G04 EAGLE Gerber RS-274X export*
G75*
%MOMM*%
%FSLAX34Y34*%
%LPD*%
%INLayer3*%
%IPPOS*%
%AMOC8*
5,1,8,0,0,1.08239X$1,22.5*%
G01*
%ADD10C,1.397000*%
%ADD11C,0.706400*%
%ADD12C,0.756400*%
%ADD13C,0.152400*%
%ADD14C,0.812800*%

G36*
X965022Y12543D02*
X965022Y12543D01*
X965100Y12545D01*
X968414Y12806D01*
X968482Y12820D01*
X968551Y12824D01*
X968707Y12864D01*
X975012Y14912D01*
X975120Y14963D01*
X975230Y15007D01*
X975281Y15039D01*
X975300Y15048D01*
X975316Y15061D01*
X975366Y15093D01*
X980730Y18990D01*
X980816Y19071D01*
X980908Y19146D01*
X980947Y19193D01*
X980961Y19207D01*
X980972Y19224D01*
X981010Y19270D01*
X984907Y24634D01*
X984965Y24738D01*
X985028Y24838D01*
X985051Y24895D01*
X985061Y24913D01*
X985066Y24932D01*
X985088Y24988D01*
X987136Y31293D01*
X987149Y31361D01*
X987172Y31426D01*
X987194Y31586D01*
X987455Y34900D01*
X987454Y34922D01*
X987459Y35000D01*
X987459Y485000D01*
X987457Y485022D01*
X987455Y485100D01*
X987194Y488414D01*
X987180Y488482D01*
X987176Y488551D01*
X987136Y488707D01*
X985088Y495012D01*
X985037Y495120D01*
X984993Y495230D01*
X984961Y495281D01*
X984952Y495300D01*
X984939Y495316D01*
X984907Y495366D01*
X981010Y500730D01*
X980929Y500816D01*
X980854Y500908D01*
X980807Y500947D01*
X980793Y500961D01*
X980776Y500972D01*
X980730Y501010D01*
X975366Y504907D01*
X975262Y504965D01*
X975162Y505028D01*
X975105Y505051D01*
X975087Y505061D01*
X975068Y505066D01*
X975012Y505088D01*
X968707Y507136D01*
X968639Y507149D01*
X968574Y507172D01*
X968414Y507194D01*
X965101Y507455D01*
X965079Y507454D01*
X964992Y507459D01*
X935711Y507254D01*
X935597Y507239D01*
X935483Y507232D01*
X935440Y507218D01*
X935396Y507212D01*
X935290Y507169D01*
X935181Y507134D01*
X935143Y507110D01*
X935101Y507093D01*
X935009Y507025D01*
X934912Y506963D01*
X934881Y506931D01*
X934845Y506904D01*
X934772Y506815D01*
X934694Y506732D01*
X934672Y506693D01*
X934644Y506658D01*
X934596Y506554D01*
X934540Y506453D01*
X934529Y506410D01*
X934510Y506369D01*
X934490Y506256D01*
X934461Y506145D01*
X934457Y506077D01*
X934453Y506056D01*
X934454Y506037D01*
X934451Y505985D01*
X934451Y459694D01*
X932770Y455636D01*
X929664Y452530D01*
X925606Y450849D01*
X860304Y450849D01*
X856246Y452530D01*
X853140Y455636D01*
X851459Y459694D01*
X851459Y506190D01*
X851444Y506308D01*
X851437Y506427D01*
X851424Y506465D01*
X851419Y506506D01*
X851376Y506616D01*
X851339Y506729D01*
X851317Y506764D01*
X851302Y506801D01*
X851233Y506897D01*
X851169Y506998D01*
X851139Y507026D01*
X851116Y507059D01*
X851024Y507135D01*
X850937Y507216D01*
X850902Y507236D01*
X850871Y507261D01*
X850763Y507312D01*
X850659Y507370D01*
X850619Y507380D01*
X850583Y507397D01*
X850466Y507419D01*
X850351Y507449D01*
X850291Y507453D01*
X850271Y507457D01*
X850250Y507455D01*
X850190Y507459D01*
X800500Y507459D01*
X800498Y507459D01*
X800495Y507459D01*
X800334Y507448D01*
X799638Y507357D01*
X799629Y507354D01*
X799620Y507354D01*
X799476Y507314D01*
X799331Y507276D01*
X799322Y507272D01*
X799313Y507269D01*
X799169Y507198D01*
X797963Y506501D01*
X797890Y506445D01*
X797811Y506398D01*
X797764Y506350D01*
X797710Y506309D01*
X797653Y506237D01*
X797588Y506171D01*
X797523Y506073D01*
X797512Y506060D01*
X797509Y506052D01*
X797499Y506037D01*
X796802Y504831D01*
X796799Y504822D01*
X796793Y504815D01*
X796737Y504676D01*
X796679Y504538D01*
X796678Y504528D01*
X796674Y504520D01*
X796643Y504362D01*
X796552Y503666D01*
X796552Y503663D01*
X796551Y503661D01*
X796541Y503500D01*
X796541Y501304D01*
X794860Y497246D01*
X791754Y494140D01*
X787696Y492459D01*
X717304Y492459D01*
X713246Y494140D01*
X710140Y497246D01*
X708459Y501304D01*
X708459Y503500D01*
X708459Y503502D01*
X708459Y503505D01*
X708448Y503666D01*
X708357Y504362D01*
X708354Y504371D01*
X708354Y504380D01*
X708314Y504524D01*
X708276Y504669D01*
X708272Y504678D01*
X708269Y504687D01*
X708198Y504831D01*
X707501Y506037D01*
X707445Y506110D01*
X707398Y506189D01*
X707350Y506236D01*
X707309Y506290D01*
X707237Y506347D01*
X707171Y506412D01*
X707073Y506477D01*
X707060Y506488D01*
X707052Y506491D01*
X707037Y506501D01*
X705831Y507198D01*
X705822Y507201D01*
X705815Y507207D01*
X705676Y507263D01*
X705538Y507321D01*
X705528Y507322D01*
X705520Y507326D01*
X705362Y507357D01*
X704666Y507448D01*
X704663Y507448D01*
X704661Y507449D01*
X704500Y507459D01*
X456532Y507459D01*
X445840Y509707D01*
X435838Y514107D01*
X426956Y520470D01*
X423264Y524497D01*
X422198Y525660D01*
X342990Y612069D01*
X342976Y612081D01*
X342944Y612117D01*
X339534Y615471D01*
X339519Y615482D01*
X339507Y615496D01*
X339383Y615598D01*
X331616Y621162D01*
X331571Y621186D01*
X331531Y621217D01*
X331388Y621292D01*
X322643Y625139D01*
X322594Y625153D01*
X322548Y625176D01*
X322393Y625219D01*
X313043Y627184D01*
X313025Y627186D01*
X313008Y627191D01*
X312848Y627210D01*
X308071Y627458D01*
X308053Y627456D01*
X308005Y627459D01*
X55000Y627459D01*
X54978Y627457D01*
X54900Y627455D01*
X51586Y627194D01*
X51518Y627180D01*
X51449Y627176D01*
X51293Y627136D01*
X44988Y625088D01*
X44880Y625037D01*
X44770Y624993D01*
X44719Y624961D01*
X44700Y624952D01*
X44684Y624939D01*
X44634Y624907D01*
X39270Y621010D01*
X39184Y620929D01*
X39092Y620854D01*
X39053Y620807D01*
X39039Y620793D01*
X39028Y620776D01*
X38990Y620730D01*
X35093Y615366D01*
X35035Y615262D01*
X34972Y615162D01*
X34949Y615105D01*
X34939Y615087D01*
X34934Y615068D01*
X34912Y615012D01*
X32864Y608707D01*
X32851Y608639D01*
X32828Y608574D01*
X32806Y608414D01*
X32545Y605100D01*
X32546Y605078D01*
X32541Y605000D01*
X32541Y145000D01*
X32543Y144978D01*
X32545Y144900D01*
X32806Y141586D01*
X32820Y141518D01*
X32824Y141449D01*
X32864Y141293D01*
X34912Y134988D01*
X34963Y134880D01*
X35007Y134770D01*
X35039Y134719D01*
X35048Y134700D01*
X35061Y134684D01*
X35093Y134634D01*
X38990Y129270D01*
X39071Y129184D01*
X39146Y129092D01*
X39193Y129053D01*
X39207Y129039D01*
X39224Y129028D01*
X39270Y128990D01*
X44634Y125093D01*
X44738Y125035D01*
X44838Y124972D01*
X44895Y124949D01*
X44913Y124939D01*
X44932Y124934D01*
X44988Y124912D01*
X51293Y122864D01*
X51361Y122851D01*
X51426Y122828D01*
X51586Y122806D01*
X54900Y122545D01*
X54922Y122546D01*
X55000Y122541D01*
X96774Y122541D01*
X96892Y122556D01*
X97011Y122563D01*
X97049Y122576D01*
X97090Y122581D01*
X97200Y122624D01*
X97313Y122661D01*
X97348Y122683D01*
X97385Y122698D01*
X97481Y122767D01*
X97582Y122831D01*
X97610Y122861D01*
X97643Y122884D01*
X97719Y122976D01*
X97800Y123063D01*
X97820Y123098D01*
X97845Y123129D01*
X97896Y123237D01*
X97954Y123341D01*
X97964Y123381D01*
X97981Y123417D01*
X98003Y123534D01*
X98033Y123649D01*
X98037Y123709D01*
X98041Y123729D01*
X98039Y123750D01*
X98043Y123810D01*
X98043Y131133D01*
X100064Y134632D01*
X103563Y136653D01*
X136021Y136653D01*
X139520Y134632D01*
X141541Y131133D01*
X141541Y123810D01*
X141556Y123692D01*
X141563Y123573D01*
X141576Y123535D01*
X141581Y123494D01*
X141624Y123384D01*
X141661Y123271D01*
X141683Y123236D01*
X141698Y123199D01*
X141767Y123103D01*
X141831Y123002D01*
X141861Y122974D01*
X141884Y122941D01*
X141976Y122865D01*
X142063Y122784D01*
X142098Y122764D01*
X142129Y122739D01*
X142237Y122688D01*
X142341Y122630D01*
X142381Y122620D01*
X142417Y122603D01*
X142534Y122581D01*
X142649Y122551D01*
X142709Y122547D01*
X142729Y122543D01*
X142750Y122545D01*
X142810Y122541D01*
X197190Y122541D01*
X197308Y122556D01*
X197427Y122563D01*
X197465Y122576D01*
X197506Y122581D01*
X197616Y122624D01*
X197729Y122661D01*
X197764Y122683D01*
X197801Y122698D01*
X197897Y122767D01*
X197998Y122831D01*
X198026Y122861D01*
X198059Y122884D01*
X198135Y122976D01*
X198216Y123063D01*
X198236Y123098D01*
X198261Y123129D01*
X198312Y123237D01*
X198370Y123341D01*
X198380Y123381D01*
X198397Y123417D01*
X198419Y123534D01*
X198449Y123649D01*
X198453Y123709D01*
X198457Y123729D01*
X198455Y123750D01*
X198459Y123810D01*
X198459Y131021D01*
X200480Y134520D01*
X203979Y136541D01*
X236020Y136541D01*
X239520Y134520D01*
X241541Y131021D01*
X241541Y123810D01*
X241556Y123692D01*
X241563Y123573D01*
X241576Y123535D01*
X241581Y123494D01*
X241624Y123384D01*
X241661Y123271D01*
X241683Y123236D01*
X241698Y123199D01*
X241767Y123103D01*
X241831Y123002D01*
X241861Y122974D01*
X241884Y122941D01*
X241976Y122865D01*
X242063Y122784D01*
X242098Y122764D01*
X242129Y122739D01*
X242237Y122688D01*
X242341Y122630D01*
X242381Y122620D01*
X242417Y122603D01*
X242534Y122581D01*
X242649Y122551D01*
X242709Y122547D01*
X242729Y122543D01*
X242750Y122545D01*
X242810Y122541D01*
X297190Y122541D01*
X297308Y122556D01*
X297427Y122563D01*
X297465Y122576D01*
X297506Y122581D01*
X297616Y122624D01*
X297729Y122661D01*
X297764Y122683D01*
X297801Y122698D01*
X297897Y122767D01*
X297998Y122831D01*
X298026Y122861D01*
X298059Y122884D01*
X298135Y122976D01*
X298216Y123063D01*
X298236Y123098D01*
X298261Y123129D01*
X298312Y123237D01*
X298370Y123341D01*
X298380Y123381D01*
X298397Y123417D01*
X298419Y123534D01*
X298449Y123649D01*
X298453Y123709D01*
X298457Y123729D01*
X298455Y123750D01*
X298459Y123810D01*
X298459Y131021D01*
X300480Y134520D01*
X303979Y136541D01*
X336021Y136541D01*
X339520Y134520D01*
X341541Y131021D01*
X341541Y123810D01*
X341556Y123692D01*
X341563Y123573D01*
X341576Y123535D01*
X341581Y123494D01*
X341624Y123384D01*
X341661Y123271D01*
X341683Y123236D01*
X341698Y123199D01*
X341767Y123103D01*
X341831Y123002D01*
X341861Y122974D01*
X341884Y122941D01*
X341976Y122865D01*
X342063Y122784D01*
X342098Y122764D01*
X342129Y122739D01*
X342237Y122688D01*
X342341Y122630D01*
X342381Y122620D01*
X342417Y122603D01*
X342534Y122581D01*
X342649Y122551D01*
X342709Y122547D01*
X342729Y122543D01*
X342750Y122545D01*
X342810Y122541D01*
X556206Y122541D01*
X569569Y118960D01*
X581550Y112043D01*
X585325Y108268D01*
X667152Y26441D01*
X667166Y26431D01*
X667197Y26398D01*
X670556Y23354D01*
X670566Y23347D01*
X670575Y23337D01*
X670703Y23239D01*
X678232Y18209D01*
X678271Y18189D01*
X678307Y18162D01*
X678451Y18091D01*
X686817Y14626D01*
X686859Y14615D01*
X686899Y14595D01*
X687055Y14554D01*
X695936Y12788D01*
X695949Y12787D01*
X695961Y12783D01*
X696121Y12765D01*
X700648Y12542D01*
X700666Y12544D01*
X700711Y12541D01*
X965000Y12541D01*
X965022Y12543D01*
G37*
%LPC*%
G36*
X86309Y232917D02*
X86309Y232917D01*
X79289Y235198D01*
X73377Y239493D01*
X73317Y239537D01*
X68978Y245509D01*
X66697Y252529D01*
X66697Y373691D01*
X68978Y380711D01*
X73317Y386683D01*
X79289Y391022D01*
X86309Y393303D01*
X353691Y393303D01*
X360711Y391022D01*
X366683Y386683D01*
X371022Y380711D01*
X373303Y373691D01*
X373303Y252529D01*
X371022Y245509D01*
X366683Y239537D01*
X360711Y235198D01*
X353691Y232917D01*
X86309Y232917D01*
G37*
%LPD*%
%LPC*%
G36*
X530362Y198905D02*
X530362Y198905D01*
X528504Y199675D01*
X527081Y201098D01*
X526311Y202956D01*
X526311Y203709D01*
X526296Y203827D01*
X526289Y203946D01*
X526276Y203984D01*
X526271Y204024D01*
X526228Y204135D01*
X526191Y204248D01*
X526169Y204282D01*
X526154Y204320D01*
X526085Y204416D01*
X526021Y204517D01*
X525991Y204545D01*
X525968Y204577D01*
X525876Y204653D01*
X525789Y204735D01*
X525754Y204754D01*
X525723Y204780D01*
X525615Y204831D01*
X525511Y204888D01*
X525471Y204898D01*
X525435Y204916D01*
X525318Y204938D01*
X525203Y204968D01*
X525143Y204972D01*
X525123Y204975D01*
X525102Y204974D01*
X525042Y204978D01*
X524289Y204978D01*
X522431Y205748D01*
X521008Y207170D01*
X520239Y209029D01*
X520239Y209781D01*
X520224Y209900D01*
X520216Y210018D01*
X520204Y210057D01*
X520199Y210097D01*
X520155Y210208D01*
X520118Y210321D01*
X520097Y210355D01*
X520082Y210393D01*
X520012Y210489D01*
X519948Y210590D01*
X519919Y210617D01*
X519895Y210650D01*
X519803Y210726D01*
X519716Y210807D01*
X519681Y210827D01*
X519650Y210853D01*
X519542Y210903D01*
X519438Y210961D01*
X519399Y210971D01*
X519362Y210988D01*
X519245Y211011D01*
X519130Y211040D01*
X519070Y211044D01*
X519050Y211048D01*
X519030Y211047D01*
X518969Y211051D01*
X518217Y211051D01*
X516358Y211820D01*
X514936Y213243D01*
X514166Y215101D01*
X514166Y215854D01*
X514151Y215972D01*
X514144Y216091D01*
X514131Y216129D01*
X514126Y216170D01*
X514082Y216280D01*
X514046Y216394D01*
X514024Y216428D01*
X514009Y216465D01*
X513939Y216561D01*
X513875Y216662D01*
X513846Y216690D01*
X513822Y216723D01*
X513730Y216799D01*
X513644Y216880D01*
X513608Y216900D01*
X513577Y216925D01*
X513470Y216976D01*
X513365Y217034D01*
X513326Y217044D01*
X513289Y217061D01*
X513173Y217083D01*
X513057Y217113D01*
X512997Y217117D01*
X512977Y217121D01*
X512957Y217120D01*
X512897Y217123D01*
X512144Y217123D01*
X510286Y217893D01*
X508863Y219316D01*
X508093Y221174D01*
X508093Y221927D01*
X508078Y222045D01*
X508071Y222164D01*
X508058Y222202D01*
X508053Y222242D01*
X508010Y222353D01*
X507973Y222466D01*
X507951Y222500D01*
X507936Y222538D01*
X507866Y222634D01*
X507803Y222735D01*
X507773Y222763D01*
X507749Y222795D01*
X507658Y222871D01*
X507571Y222953D01*
X507536Y222972D01*
X507505Y222998D01*
X507397Y223049D01*
X507293Y223106D01*
X507253Y223116D01*
X507217Y223134D01*
X507100Y223156D01*
X506985Y223186D01*
X506924Y223190D01*
X506904Y223193D01*
X506884Y223192D01*
X506824Y223196D01*
X506071Y223196D01*
X504213Y223966D01*
X502790Y225388D01*
X502021Y227247D01*
X502021Y227999D01*
X502006Y228118D01*
X501998Y228236D01*
X501986Y228275D01*
X501981Y228315D01*
X501937Y228426D01*
X501900Y228539D01*
X501879Y228573D01*
X501864Y228611D01*
X501794Y228707D01*
X501730Y228808D01*
X501701Y228835D01*
X501677Y228868D01*
X501585Y228944D01*
X501498Y229026D01*
X501463Y229045D01*
X501432Y229071D01*
X501324Y229122D01*
X501220Y229179D01*
X501181Y229189D01*
X501144Y229206D01*
X501027Y229229D01*
X500912Y229258D01*
X500852Y229262D01*
X500832Y229266D01*
X500811Y229265D01*
X500751Y229269D01*
X499999Y229269D01*
X498140Y230039D01*
X496718Y231461D01*
X495948Y233320D01*
X495948Y235331D01*
X496718Y237190D01*
X498140Y238612D01*
X499999Y239382D01*
X502010Y239382D01*
X503869Y238612D01*
X505291Y237190D01*
X506061Y235331D01*
X506061Y234579D01*
X506076Y234461D01*
X506084Y234342D01*
X506096Y234303D01*
X506101Y234263D01*
X506145Y234152D01*
X506182Y234039D01*
X506203Y234005D01*
X506218Y233968D01*
X506288Y233871D01*
X506352Y233771D01*
X506381Y233743D01*
X506405Y233710D01*
X506497Y233634D01*
X506583Y233553D01*
X506619Y233533D01*
X506650Y233507D01*
X506758Y233457D01*
X506862Y233399D01*
X506901Y233389D01*
X506938Y233372D01*
X507054Y233349D01*
X507170Y233320D01*
X507230Y233316D01*
X507250Y233312D01*
X507270Y233313D01*
X507331Y233309D01*
X508083Y233309D01*
X509942Y232540D01*
X511364Y231117D01*
X512134Y229259D01*
X512134Y228506D01*
X512149Y228388D01*
X512156Y228269D01*
X512169Y228231D01*
X512174Y228191D01*
X512218Y228080D01*
X512254Y227967D01*
X512276Y227932D01*
X512291Y227895D01*
X512361Y227799D01*
X512424Y227698D01*
X512454Y227670D01*
X512478Y227637D01*
X512569Y227562D01*
X512656Y227480D01*
X512692Y227460D01*
X512723Y227435D01*
X512830Y227384D01*
X512935Y227326D01*
X512974Y227316D01*
X513010Y227299D01*
X513127Y227277D01*
X513243Y227247D01*
X513303Y227243D01*
X513323Y227239D01*
X513343Y227241D01*
X513403Y227237D01*
X514156Y227237D01*
X516014Y226467D01*
X517437Y225044D01*
X518207Y223186D01*
X518207Y222433D01*
X518222Y222315D01*
X518229Y222196D01*
X518241Y222158D01*
X518247Y222118D01*
X518290Y222007D01*
X518327Y221894D01*
X518349Y221860D01*
X518364Y221822D01*
X518433Y221726D01*
X518497Y221625D01*
X518527Y221598D01*
X518550Y221565D01*
X518642Y221489D01*
X518729Y221407D01*
X518764Y221388D01*
X518795Y221362D01*
X518903Y221311D01*
X519007Y221254D01*
X519047Y221244D01*
X519083Y221226D01*
X519200Y221204D01*
X519315Y221174D01*
X519375Y221171D01*
X519395Y221167D01*
X519416Y221168D01*
X519476Y221164D01*
X520229Y221164D01*
X522087Y220394D01*
X523510Y218972D01*
X524279Y217113D01*
X524279Y216361D01*
X524294Y216242D01*
X524302Y216124D01*
X524314Y216085D01*
X524319Y216045D01*
X524363Y215934D01*
X524400Y215821D01*
X524421Y215787D01*
X524436Y215749D01*
X524506Y215653D01*
X524570Y215553D01*
X524599Y215525D01*
X524623Y215492D01*
X524715Y215416D01*
X524801Y215335D01*
X524837Y215315D01*
X524868Y215289D01*
X524976Y215239D01*
X525080Y215181D01*
X525119Y215171D01*
X525156Y215154D01*
X525273Y215131D01*
X525388Y215102D01*
X525448Y215098D01*
X525468Y215094D01*
X525488Y215095D01*
X525549Y215091D01*
X526301Y215091D01*
X528160Y214322D01*
X529582Y212899D01*
X530352Y211041D01*
X530352Y210288D01*
X530367Y210170D01*
X530374Y210051D01*
X530387Y210013D01*
X530392Y209972D01*
X530436Y209862D01*
X530472Y209749D01*
X530494Y209714D01*
X530509Y209677D01*
X530579Y209581D01*
X530643Y209480D01*
X530672Y209452D01*
X530696Y209419D01*
X530787Y209343D01*
X530874Y209262D01*
X530910Y209242D01*
X530941Y209217D01*
X531048Y209166D01*
X531153Y209108D01*
X531192Y209098D01*
X531228Y209081D01*
X531345Y209059D01*
X531461Y209029D01*
X531521Y209025D01*
X531541Y209021D01*
X531561Y209023D01*
X531621Y209019D01*
X532374Y209019D01*
X534232Y208249D01*
X535655Y206826D01*
X536425Y204968D01*
X536425Y202956D01*
X535655Y201098D01*
X534232Y199675D01*
X532374Y198905D01*
X530362Y198905D01*
G37*
%LPD*%
%LPC*%
G36*
X80623Y561559D02*
X80623Y561559D01*
X76786Y563149D01*
X73849Y566086D01*
X72259Y569923D01*
X72259Y574077D01*
X73849Y577914D01*
X76786Y580851D01*
X80623Y582441D01*
X84777Y582441D01*
X88614Y580851D01*
X91551Y577914D01*
X93141Y574077D01*
X93141Y569923D01*
X91551Y566086D01*
X88614Y563149D01*
X84777Y561559D01*
X80623Y561559D01*
G37*
%LPD*%
%LPC*%
G36*
X935223Y57559D02*
X935223Y57559D01*
X931386Y59149D01*
X928449Y62086D01*
X926859Y65923D01*
X926859Y70077D01*
X928449Y73914D01*
X931386Y76851D01*
X935223Y78441D01*
X939377Y78441D01*
X943214Y76851D01*
X946151Y73914D01*
X947741Y70077D01*
X947741Y65923D01*
X946151Y62086D01*
X943214Y59149D01*
X939377Y57559D01*
X935223Y57559D01*
G37*
%LPD*%
%LPC*%
G36*
X732023Y57559D02*
X732023Y57559D01*
X728186Y59149D01*
X725249Y62086D01*
X723659Y65923D01*
X723659Y70077D01*
X725249Y73914D01*
X728186Y76851D01*
X732023Y78441D01*
X736177Y78441D01*
X740014Y76851D01*
X742951Y73914D01*
X744541Y70077D01*
X744541Y65923D01*
X742951Y62086D01*
X740014Y59149D01*
X736177Y57559D01*
X732023Y57559D01*
G37*
%LPD*%
%LPC*%
G36*
X283823Y561559D02*
X283823Y561559D01*
X279986Y563149D01*
X277049Y566086D01*
X275459Y569923D01*
X275459Y574077D01*
X277049Y577914D01*
X279986Y580851D01*
X283823Y582441D01*
X287977Y582441D01*
X291814Y580851D01*
X294751Y577914D01*
X296341Y574077D01*
X296341Y569923D01*
X294751Y566086D01*
X291814Y563149D01*
X287977Y561559D01*
X283823Y561559D01*
G37*
%LPD*%
%LPC*%
G36*
X555366Y353083D02*
X555366Y353083D01*
X553508Y353853D01*
X552085Y355276D01*
X551315Y357134D01*
X551315Y359146D01*
X552085Y361004D01*
X552839Y361758D01*
X552912Y361852D01*
X552991Y361942D01*
X553009Y361978D01*
X553034Y362010D01*
X553081Y362119D01*
X553136Y362225D01*
X553144Y362264D01*
X553160Y362302D01*
X553179Y362419D01*
X553205Y362535D01*
X553204Y362576D01*
X553210Y362616D01*
X553199Y362734D01*
X553196Y362853D01*
X553184Y362892D01*
X553181Y362932D01*
X553140Y363045D01*
X553107Y363159D01*
X553087Y363193D01*
X553073Y363232D01*
X553006Y363330D01*
X552946Y363433D01*
X552906Y363478D01*
X552894Y363495D01*
X552879Y363508D01*
X552839Y363553D01*
X551973Y364420D01*
X551203Y366278D01*
X551203Y368290D01*
X551973Y370148D01*
X553396Y371571D01*
X555254Y372341D01*
X557266Y372341D01*
X559124Y371571D01*
X560547Y370148D01*
X561317Y368290D01*
X561317Y366278D01*
X560547Y364420D01*
X559793Y363665D01*
X559720Y363571D01*
X559641Y363482D01*
X559623Y363446D01*
X559598Y363414D01*
X559551Y363305D01*
X559496Y363199D01*
X559488Y363160D01*
X559472Y363122D01*
X559453Y363005D01*
X559427Y362889D01*
X559428Y362848D01*
X559422Y362808D01*
X559433Y362690D01*
X559436Y362571D01*
X559448Y362532D01*
X559451Y362492D01*
X559492Y362379D01*
X559525Y362265D01*
X559545Y362230D01*
X559559Y362192D01*
X559626Y362094D01*
X559686Y361991D01*
X559726Y361946D01*
X559738Y361929D01*
X559753Y361916D01*
X559793Y361870D01*
X560018Y361645D01*
X560113Y361572D01*
X560202Y361493D01*
X560238Y361475D01*
X560270Y361450D01*
X560379Y361403D01*
X560485Y361348D01*
X560524Y361340D01*
X560562Y361324D01*
X560679Y361305D01*
X560795Y361279D01*
X560836Y361280D01*
X560876Y361274D01*
X560994Y361285D01*
X561113Y361288D01*
X561152Y361300D01*
X561192Y361303D01*
X561305Y361344D01*
X561419Y361377D01*
X561453Y361397D01*
X561492Y361411D01*
X561590Y361478D01*
X561693Y361538D01*
X561738Y361578D01*
X561755Y361590D01*
X561768Y361605D01*
X561813Y361645D01*
X562596Y362427D01*
X564454Y363197D01*
X566466Y363197D01*
X568324Y362427D01*
X569106Y361645D01*
X569200Y361572D01*
X569290Y361493D01*
X569326Y361475D01*
X569358Y361450D01*
X569467Y361403D01*
X569573Y361348D01*
X569612Y361340D01*
X569650Y361324D01*
X569767Y361305D01*
X569883Y361279D01*
X569924Y361280D01*
X569964Y361274D01*
X570082Y361285D01*
X570201Y361288D01*
X570240Y361300D01*
X570280Y361303D01*
X570393Y361344D01*
X570507Y361377D01*
X570541Y361397D01*
X570580Y361411D01*
X570678Y361478D01*
X570781Y361538D01*
X570826Y361578D01*
X570843Y361590D01*
X570856Y361605D01*
X570901Y361645D01*
X571684Y362427D01*
X573542Y363197D01*
X575554Y363197D01*
X577412Y362427D01*
X578835Y361004D01*
X579605Y359146D01*
X579605Y357134D01*
X578835Y355276D01*
X577412Y353853D01*
X575554Y353083D01*
X573542Y353083D01*
X571684Y353853D01*
X570901Y354635D01*
X570807Y354708D01*
X570718Y354787D01*
X570682Y354805D01*
X570650Y354830D01*
X570541Y354878D01*
X570435Y354932D01*
X570396Y354940D01*
X570358Y354956D01*
X570241Y354975D01*
X570125Y355001D01*
X570084Y355000D01*
X570044Y355006D01*
X569926Y354995D01*
X569807Y354992D01*
X569768Y354980D01*
X569728Y354977D01*
X569616Y354936D01*
X569501Y354903D01*
X569466Y354883D01*
X569428Y354869D01*
X569330Y354802D01*
X569227Y354742D01*
X569182Y354702D01*
X569165Y354690D01*
X569152Y354675D01*
X569106Y354635D01*
X568324Y353853D01*
X566466Y353083D01*
X564454Y353083D01*
X562596Y353853D01*
X561813Y354635D01*
X561719Y354708D01*
X561630Y354787D01*
X561594Y354805D01*
X561562Y354830D01*
X561453Y354878D01*
X561347Y354932D01*
X561308Y354940D01*
X561270Y354956D01*
X561153Y354975D01*
X561037Y355001D01*
X560996Y355000D01*
X560956Y355006D01*
X560838Y354995D01*
X560719Y354992D01*
X560680Y354980D01*
X560640Y354977D01*
X560528Y354936D01*
X560413Y354903D01*
X560378Y354883D01*
X560340Y354869D01*
X560242Y354802D01*
X560139Y354742D01*
X560094Y354702D01*
X560077Y354690D01*
X560064Y354675D01*
X560018Y354635D01*
X559236Y353853D01*
X557378Y353083D01*
X555366Y353083D01*
G37*
%LPD*%
%LPC*%
G36*
X761837Y273555D02*
X761837Y273555D01*
X759979Y274325D01*
X758556Y275748D01*
X757786Y277606D01*
X757786Y279618D01*
X758565Y281497D01*
X758602Y281631D01*
X758642Y281764D01*
X758643Y281784D01*
X758649Y281804D01*
X758651Y281943D01*
X758658Y282082D01*
X758654Y282102D01*
X758654Y282122D01*
X758621Y282257D01*
X758593Y282393D01*
X758584Y282412D01*
X758580Y282431D01*
X758515Y282554D01*
X758454Y282679D01*
X758440Y282694D01*
X758431Y282712D01*
X758338Y282815D01*
X758247Y282921D01*
X758231Y282933D01*
X758217Y282948D01*
X758101Y283024D01*
X757987Y283104D01*
X757968Y283111D01*
X757951Y283122D01*
X757820Y283167D01*
X757690Y283217D01*
X757670Y283219D01*
X757651Y283226D01*
X757512Y283237D01*
X757374Y283252D01*
X757354Y283249D01*
X757334Y283251D01*
X757196Y283227D01*
X757059Y283208D01*
X757032Y283199D01*
X757020Y283196D01*
X757001Y283188D01*
X756907Y283156D01*
X754960Y282349D01*
X752948Y282349D01*
X751090Y283119D01*
X749667Y284542D01*
X748897Y286400D01*
X748897Y288412D01*
X749667Y290270D01*
X750867Y291471D01*
X750940Y291565D01*
X751019Y291654D01*
X751037Y291690D01*
X751062Y291722D01*
X751110Y291831D01*
X751164Y291937D01*
X751172Y291976D01*
X751188Y292014D01*
X751207Y292131D01*
X751233Y292247D01*
X751232Y292288D01*
X751238Y292328D01*
X751227Y292446D01*
X751224Y292565D01*
X751212Y292604D01*
X751209Y292644D01*
X751168Y292756D01*
X751135Y292871D01*
X751115Y292906D01*
X751101Y292944D01*
X751034Y293042D01*
X750974Y293145D01*
X750934Y293190D01*
X750922Y293207D01*
X750907Y293220D01*
X750867Y293266D01*
X749569Y294564D01*
X748799Y296422D01*
X748799Y298434D01*
X749569Y300292D01*
X750992Y301715D01*
X752850Y302485D01*
X754862Y302485D01*
X756720Y301715D01*
X758143Y300292D01*
X758913Y298434D01*
X758913Y296422D01*
X758143Y294564D01*
X756943Y293364D01*
X756870Y293269D01*
X756791Y293180D01*
X756773Y293144D01*
X756748Y293112D01*
X756701Y293003D01*
X756646Y292897D01*
X756638Y292858D01*
X756622Y292820D01*
X756603Y292703D01*
X756577Y292587D01*
X756578Y292546D01*
X756572Y292506D01*
X756583Y292388D01*
X756586Y292269D01*
X756598Y292230D01*
X756601Y292190D01*
X756642Y292077D01*
X756675Y291963D01*
X756695Y291929D01*
X756709Y291890D01*
X756776Y291792D01*
X756836Y291689D01*
X756876Y291644D01*
X756888Y291627D01*
X756903Y291614D01*
X756943Y291569D01*
X758241Y290270D01*
X759011Y288412D01*
X759011Y286400D01*
X758232Y284521D01*
X758196Y284387D01*
X758155Y284254D01*
X758154Y284234D01*
X758148Y284214D01*
X758146Y284074D01*
X758140Y283936D01*
X758144Y283916D01*
X758143Y283896D01*
X758176Y283761D01*
X758204Y283625D01*
X758213Y283606D01*
X758217Y283587D01*
X758282Y283464D01*
X758344Y283339D01*
X758357Y283324D01*
X758366Y283306D01*
X758460Y283203D01*
X758550Y283097D01*
X758566Y283085D01*
X758580Y283070D01*
X758696Y282994D01*
X758810Y282914D01*
X758829Y282907D01*
X758846Y282896D01*
X758977Y282851D01*
X759107Y282801D01*
X759127Y282799D01*
X759147Y282792D01*
X759285Y282781D01*
X759423Y282766D01*
X759443Y282769D01*
X759464Y282767D01*
X759601Y282791D01*
X759738Y282810D01*
X759765Y282819D01*
X759777Y282822D01*
X759796Y282830D01*
X759891Y282862D01*
X761837Y283669D01*
X763849Y283669D01*
X765708Y282899D01*
X767130Y281476D01*
X767900Y279618D01*
X767900Y277606D01*
X767130Y275748D01*
X765708Y274325D01*
X763849Y273555D01*
X761837Y273555D01*
G37*
%LPD*%
%LPC*%
G36*
X182407Y468790D02*
X182407Y468790D01*
X179280Y470086D01*
X176886Y472480D01*
X175590Y475607D01*
X175590Y478993D01*
X176886Y482120D01*
X179280Y484514D01*
X182407Y485810D01*
X185793Y485810D01*
X188920Y484514D01*
X191314Y482120D01*
X192610Y478993D01*
X192610Y475607D01*
X191314Y472480D01*
X188920Y470086D01*
X185793Y468790D01*
X182407Y468790D01*
G37*
%LPD*%
%LPC*%
G36*
X258607Y468790D02*
X258607Y468790D01*
X255480Y470086D01*
X253086Y472480D01*
X251790Y475607D01*
X251790Y478993D01*
X253086Y482120D01*
X255480Y484514D01*
X258607Y485810D01*
X261993Y485810D01*
X265120Y484514D01*
X267514Y482120D01*
X268810Y478993D01*
X268810Y475607D01*
X267514Y472480D01*
X265120Y470086D01*
X261993Y468790D01*
X258607Y468790D01*
G37*
%LPD*%
%LPC*%
G36*
X207807Y468790D02*
X207807Y468790D01*
X204680Y470086D01*
X202286Y472480D01*
X200990Y475607D01*
X200990Y478993D01*
X202286Y482120D01*
X204680Y484514D01*
X207807Y485810D01*
X211193Y485810D01*
X214320Y484514D01*
X216714Y482120D01*
X218010Y478993D01*
X218010Y475607D01*
X216714Y472480D01*
X214320Y470086D01*
X211193Y468790D01*
X207807Y468790D01*
G37*
%LPD*%
%LPC*%
G36*
X868154Y408395D02*
X868154Y408395D01*
X866296Y409165D01*
X864873Y410588D01*
X864103Y412446D01*
X864103Y414458D01*
X864873Y416316D01*
X866296Y417739D01*
X868154Y418509D01*
X870166Y418509D01*
X872024Y417739D01*
X873481Y416283D01*
X873541Y416168D01*
X873555Y416153D01*
X873565Y416136D01*
X873661Y416036D01*
X873755Y415933D01*
X873772Y415922D01*
X873786Y415907D01*
X873905Y415834D01*
X874021Y415758D01*
X874040Y415752D01*
X874057Y415741D01*
X874191Y415700D01*
X874322Y415655D01*
X874342Y415653D01*
X874361Y415647D01*
X874500Y415641D01*
X874639Y415630D01*
X874659Y415633D01*
X874679Y415632D01*
X874815Y415660D01*
X874952Y415684D01*
X874970Y415692D01*
X874990Y415696D01*
X875115Y415757D01*
X875242Y415815D01*
X875258Y415827D01*
X875276Y415836D01*
X875382Y415926D01*
X875490Y416013D01*
X875503Y416029D01*
X875518Y416042D01*
X875598Y416156D01*
X875682Y416267D01*
X875694Y416292D01*
X875701Y416302D01*
X875702Y416306D01*
X877136Y417739D01*
X878994Y418509D01*
X881006Y418509D01*
X882864Y417739D01*
X884287Y416316D01*
X885057Y414458D01*
X885057Y412446D01*
X884287Y410588D01*
X882864Y409165D01*
X881006Y408395D01*
X878994Y408395D01*
X877136Y409165D01*
X875679Y410621D01*
X875619Y410736D01*
X875605Y410751D01*
X875595Y410768D01*
X875498Y410868D01*
X875405Y410971D01*
X875388Y410982D01*
X875374Y410997D01*
X875255Y411070D01*
X875139Y411146D01*
X875120Y411153D01*
X875103Y411163D01*
X874970Y411204D01*
X874838Y411249D01*
X874818Y411251D01*
X874799Y411257D01*
X874660Y411263D01*
X874521Y411274D01*
X874501Y411271D01*
X874481Y411272D01*
X874344Y411244D01*
X874208Y411220D01*
X874189Y411212D01*
X874170Y411208D01*
X874045Y411146D01*
X873918Y411089D01*
X873902Y411077D01*
X873884Y411068D01*
X873778Y410978D01*
X873669Y410891D01*
X873657Y410875D01*
X873642Y410861D01*
X873562Y410748D01*
X873478Y410636D01*
X873466Y410611D01*
X873459Y410601D01*
X873458Y410598D01*
X872024Y409165D01*
X870166Y408395D01*
X868154Y408395D01*
G37*
%LPD*%
%LPC*%
G36*
X622766Y326593D02*
X622766Y326593D01*
X620908Y327363D01*
X619485Y328786D01*
X618715Y330644D01*
X618715Y332656D01*
X619120Y333632D01*
X619133Y333680D01*
X619154Y333725D01*
X619175Y333833D01*
X619204Y333939D01*
X619204Y333989D01*
X619214Y334038D01*
X619207Y334147D01*
X619209Y334257D01*
X619197Y334305D01*
X619194Y334355D01*
X619160Y334459D01*
X619135Y334566D01*
X619111Y334610D01*
X619096Y334657D01*
X619037Y334750D01*
X618986Y334847D01*
X618952Y334884D01*
X618926Y334926D01*
X618846Y335001D01*
X618772Y335083D01*
X618730Y335110D01*
X618694Y335144D01*
X618598Y335197D01*
X618506Y335257D01*
X618459Y335274D01*
X618416Y335298D01*
X618310Y335325D01*
X618205Y335361D01*
X618156Y335365D01*
X618108Y335377D01*
X617947Y335387D01*
X617106Y335387D01*
X615248Y336157D01*
X613825Y337580D01*
X613055Y339438D01*
X613055Y341450D01*
X613825Y343308D01*
X615248Y344731D01*
X617106Y345501D01*
X619118Y345501D01*
X620976Y344731D01*
X622399Y343308D01*
X623169Y341450D01*
X623169Y339438D01*
X622764Y338462D01*
X622751Y338414D01*
X622730Y338369D01*
X622709Y338261D01*
X622680Y338155D01*
X622680Y338105D01*
X622670Y338056D01*
X622677Y337947D01*
X622675Y337837D01*
X622687Y337789D01*
X622690Y337739D01*
X622724Y337635D01*
X622749Y337528D01*
X622773Y337484D01*
X622788Y337437D01*
X622847Y337344D01*
X622898Y337247D01*
X622932Y337210D01*
X622958Y337168D01*
X623038Y337093D01*
X623112Y337011D01*
X623154Y336984D01*
X623190Y336950D01*
X623286Y336897D01*
X623378Y336837D01*
X623425Y336820D01*
X623468Y336796D01*
X623574Y336769D01*
X623679Y336733D01*
X623728Y336729D01*
X623776Y336717D01*
X623937Y336707D01*
X624778Y336707D01*
X626636Y335937D01*
X628059Y334514D01*
X628829Y332656D01*
X628829Y330644D01*
X628059Y328786D01*
X626636Y327363D01*
X624778Y326593D01*
X622766Y326593D01*
G37*
%LPD*%
%LPC*%
G36*
X542402Y362227D02*
X542402Y362227D01*
X540543Y362997D01*
X539121Y364420D01*
X538351Y366278D01*
X538351Y368391D01*
X538353Y368398D01*
X538354Y368448D01*
X538363Y368498D01*
X538356Y368607D01*
X538358Y368716D01*
X538347Y368765D01*
X538343Y368815D01*
X538310Y368919D01*
X538284Y369025D01*
X538261Y369070D01*
X538245Y369117D01*
X538187Y369210D01*
X538136Y369307D01*
X538102Y369344D01*
X538075Y369386D01*
X537996Y369461D01*
X537922Y369542D01*
X537880Y369570D01*
X537844Y369604D01*
X537748Y369657D01*
X537656Y369717D01*
X537609Y369733D01*
X537565Y369758D01*
X537459Y369785D01*
X537356Y369821D01*
X537306Y369825D01*
X537257Y369837D01*
X537096Y369847D01*
X536334Y369847D01*
X534475Y370617D01*
X533053Y372040D01*
X532283Y373898D01*
X532283Y375910D01*
X533053Y377768D01*
X534475Y379191D01*
X536334Y379961D01*
X538346Y379961D01*
X540204Y379191D01*
X541627Y377768D01*
X542396Y375910D01*
X542396Y373797D01*
X542394Y373790D01*
X542394Y373740D01*
X542384Y373690D01*
X542391Y373581D01*
X542389Y373472D01*
X542401Y373423D01*
X542404Y373373D01*
X542438Y373269D01*
X542463Y373163D01*
X542486Y373118D01*
X542502Y373071D01*
X542560Y372978D01*
X542612Y372881D01*
X542645Y372844D01*
X542672Y372802D01*
X542752Y372727D01*
X542825Y372646D01*
X542867Y372618D01*
X542904Y372584D01*
X542999Y372531D01*
X543091Y372471D01*
X543138Y372455D01*
X543182Y372430D01*
X543288Y372403D01*
X543392Y372367D01*
X543442Y372363D01*
X543490Y372351D01*
X543651Y372341D01*
X544414Y372341D01*
X546272Y371571D01*
X547695Y370148D01*
X548464Y368290D01*
X548464Y366278D01*
X547695Y364420D01*
X546272Y362997D01*
X544414Y362227D01*
X542402Y362227D01*
G37*
%LPD*%
%LPC*%
G36*
X698994Y319943D02*
X698994Y319943D01*
X697136Y320713D01*
X695713Y322136D01*
X695607Y322391D01*
X695548Y322494D01*
X695496Y322601D01*
X695470Y322632D01*
X695450Y322667D01*
X695367Y322752D01*
X695290Y322843D01*
X695257Y322866D01*
X695229Y322895D01*
X695127Y322958D01*
X695030Y323026D01*
X694992Y323040D01*
X694958Y323062D01*
X694844Y323097D01*
X694732Y323139D01*
X694692Y323143D01*
X694654Y323155D01*
X694535Y323161D01*
X694416Y323174D01*
X694376Y323168D01*
X694336Y323170D01*
X694219Y323146D01*
X694101Y323130D01*
X694044Y323110D01*
X694024Y323106D01*
X694006Y323097D01*
X693949Y323078D01*
X692418Y322443D01*
X690406Y322443D01*
X688548Y323213D01*
X687125Y324636D01*
X686355Y326494D01*
X686355Y328506D01*
X687125Y330364D01*
X688548Y331787D01*
X690406Y332557D01*
X692418Y332557D01*
X694276Y331787D01*
X695699Y330364D01*
X695805Y330109D01*
X695863Y330006D01*
X695916Y329899D01*
X695942Y329868D01*
X695962Y329833D01*
X696045Y329748D01*
X696122Y329657D01*
X696155Y329634D01*
X696183Y329605D01*
X696285Y329543D01*
X696382Y329474D01*
X696420Y329460D01*
X696454Y329438D01*
X696568Y329403D01*
X696680Y329361D01*
X696720Y329357D01*
X696758Y329345D01*
X696877Y329339D01*
X696996Y329326D01*
X697036Y329332D01*
X697076Y329330D01*
X697193Y329354D01*
X697311Y329370D01*
X697367Y329390D01*
X697388Y329394D01*
X697406Y329403D01*
X697463Y329422D01*
X698994Y330057D01*
X701006Y330057D01*
X702864Y329287D01*
X704287Y327864D01*
X705057Y326006D01*
X705057Y323994D01*
X704287Y322136D01*
X702864Y320713D01*
X701006Y319943D01*
X698994Y319943D01*
G37*
%LPD*%
%LPC*%
G36*
X607804Y216383D02*
X607804Y216383D01*
X605946Y217153D01*
X604523Y218576D01*
X603753Y220434D01*
X603753Y221464D01*
X603738Y221582D01*
X603731Y221701D01*
X603718Y221739D01*
X603713Y221780D01*
X603670Y221890D01*
X603633Y222003D01*
X603611Y222038D01*
X603596Y222075D01*
X603527Y222171D01*
X603463Y222272D01*
X603433Y222300D01*
X603410Y222333D01*
X603318Y222409D01*
X603231Y222490D01*
X603196Y222510D01*
X603165Y222535D01*
X603057Y222586D01*
X602953Y222644D01*
X602913Y222654D01*
X602877Y222671D01*
X602760Y222693D01*
X602645Y222723D01*
X602585Y222727D01*
X602565Y222731D01*
X602544Y222729D01*
X602484Y222733D01*
X601732Y222733D01*
X599874Y223503D01*
X598451Y224926D01*
X597681Y226784D01*
X597681Y228796D01*
X598451Y230654D01*
X599874Y232077D01*
X601732Y232847D01*
X603744Y232847D01*
X605602Y232077D01*
X607025Y230654D01*
X607795Y228796D01*
X607795Y227766D01*
X607810Y227648D01*
X607817Y227529D01*
X607830Y227491D01*
X607835Y227450D01*
X607878Y227340D01*
X607915Y227227D01*
X607937Y227192D01*
X607952Y227155D01*
X608021Y227059D01*
X608085Y226958D01*
X608115Y226930D01*
X608138Y226897D01*
X608230Y226821D01*
X608317Y226740D01*
X608352Y226720D01*
X608383Y226695D01*
X608491Y226644D01*
X608595Y226586D01*
X608635Y226576D01*
X608671Y226559D01*
X608788Y226537D01*
X608903Y226507D01*
X608963Y226503D01*
X608983Y226499D01*
X609004Y226501D01*
X609064Y226497D01*
X609816Y226497D01*
X611674Y225727D01*
X613097Y224304D01*
X613867Y222446D01*
X613867Y220434D01*
X613097Y218576D01*
X611674Y217153D01*
X609816Y216383D01*
X607804Y216383D01*
G37*
%LPD*%
%LPC*%
G36*
X626494Y217443D02*
X626494Y217443D01*
X624636Y218213D01*
X623213Y219636D01*
X622443Y221494D01*
X622443Y223506D01*
X623213Y225364D01*
X623745Y225896D01*
X623818Y225990D01*
X623897Y226080D01*
X623915Y226116D01*
X623940Y226148D01*
X623987Y226257D01*
X624042Y226363D01*
X624050Y226402D01*
X624066Y226440D01*
X624085Y226557D01*
X624111Y226673D01*
X624110Y226714D01*
X624116Y226754D01*
X624105Y226872D01*
X624102Y226991D01*
X624090Y227030D01*
X624087Y227070D01*
X624046Y227182D01*
X624013Y227297D01*
X623993Y227332D01*
X623979Y227370D01*
X623912Y227468D01*
X623852Y227571D01*
X623812Y227616D01*
X623800Y227633D01*
X623785Y227646D01*
X623745Y227691D01*
X623213Y228224D01*
X622443Y230082D01*
X622443Y232094D01*
X623213Y233952D01*
X624636Y235375D01*
X626494Y236145D01*
X628506Y236145D01*
X630364Y235375D01*
X631787Y233952D01*
X632557Y232094D01*
X632557Y230082D01*
X631787Y228224D01*
X631255Y227691D01*
X631182Y227597D01*
X631103Y227508D01*
X631085Y227472D01*
X631060Y227440D01*
X631012Y227331D01*
X630958Y227225D01*
X630950Y227186D01*
X630934Y227148D01*
X630915Y227031D01*
X630889Y226915D01*
X630890Y226874D01*
X630884Y226834D01*
X630895Y226716D01*
X630898Y226597D01*
X630910Y226558D01*
X630913Y226518D01*
X630954Y226406D01*
X630987Y226291D01*
X631007Y226256D01*
X631021Y226218D01*
X631088Y226120D01*
X631148Y226017D01*
X631188Y225972D01*
X631200Y225955D01*
X631215Y225942D01*
X631255Y225896D01*
X631787Y225364D01*
X632557Y223506D01*
X632557Y221494D01*
X631787Y219636D01*
X630364Y218213D01*
X628506Y217443D01*
X626494Y217443D01*
G37*
%LPD*%
%LPC*%
G36*
X283932Y598197D02*
X283932Y598197D01*
X281982Y599005D01*
X280489Y600498D01*
X279681Y602448D01*
X279681Y604560D01*
X280489Y606510D01*
X281982Y608003D01*
X283932Y608811D01*
X286044Y608811D01*
X287994Y608003D01*
X289487Y606510D01*
X290295Y604560D01*
X290295Y602448D01*
X289487Y600498D01*
X287994Y599005D01*
X286044Y598197D01*
X283932Y598197D01*
G37*
%LPD*%
%LPC*%
G36*
X349464Y436653D02*
X349464Y436653D01*
X347514Y437461D01*
X346021Y438954D01*
X345213Y440904D01*
X345213Y443016D01*
X346021Y444966D01*
X347514Y446459D01*
X349464Y447267D01*
X351576Y447267D01*
X353526Y446459D01*
X355019Y444966D01*
X355827Y443016D01*
X355827Y440904D01*
X355019Y438954D01*
X353526Y437461D01*
X351576Y436653D01*
X349464Y436653D01*
G37*
%LPD*%
%LPC*%
G36*
X723994Y324943D02*
X723994Y324943D01*
X722136Y325713D01*
X721538Y326311D01*
X721483Y326354D01*
X721434Y326404D01*
X721358Y326450D01*
X721287Y326506D01*
X721223Y326533D01*
X721163Y326570D01*
X721077Y326596D01*
X720995Y326632D01*
X720926Y326643D01*
X720859Y326663D01*
X720770Y326668D01*
X720681Y326682D01*
X720611Y326675D01*
X720558Y326678D01*
X720569Y326724D01*
X720593Y326789D01*
X720603Y326879D01*
X720623Y326966D01*
X720621Y327036D01*
X720629Y327105D01*
X720616Y327194D01*
X720613Y327284D01*
X720594Y327351D01*
X720584Y327420D01*
X720532Y327573D01*
X719943Y328994D01*
X719943Y331006D01*
X720713Y332864D01*
X722136Y334287D01*
X723994Y335057D01*
X726006Y335057D01*
X727864Y334287D01*
X729287Y332864D01*
X730057Y331006D01*
X730057Y328994D01*
X729287Y327136D01*
X727864Y325713D01*
X726006Y324943D01*
X723994Y324943D01*
G37*
%LPD*%
%LPC*%
G36*
X713994Y317443D02*
X713994Y317443D01*
X712136Y318213D01*
X710713Y319636D01*
X709943Y321494D01*
X709943Y323506D01*
X710713Y325364D01*
X712136Y326787D01*
X713994Y327557D01*
X716006Y327557D01*
X717864Y326787D01*
X718462Y326189D01*
X718517Y326146D01*
X718566Y326096D01*
X718642Y326050D01*
X718713Y325994D01*
X718777Y325967D01*
X718837Y325930D01*
X718923Y325904D01*
X719005Y325868D01*
X719074Y325857D01*
X719141Y325837D01*
X719230Y325832D01*
X719319Y325818D01*
X719389Y325825D01*
X719442Y325822D01*
X719431Y325776D01*
X719407Y325711D01*
X719397Y325621D01*
X719377Y325534D01*
X719379Y325464D01*
X719371Y325395D01*
X719384Y325306D01*
X719387Y325216D01*
X719406Y325149D01*
X719416Y325080D01*
X719468Y324927D01*
X720057Y323506D01*
X720057Y321494D01*
X719287Y319636D01*
X717864Y318213D01*
X716006Y317443D01*
X713994Y317443D01*
G37*
%LPD*%
%LPC*%
G36*
X621884Y361597D02*
X621884Y361597D01*
X620026Y362367D01*
X618603Y363790D01*
X617833Y365648D01*
X617833Y367660D01*
X618603Y369518D01*
X620026Y370941D01*
X621884Y371711D01*
X623896Y371711D01*
X625754Y370941D01*
X627177Y369518D01*
X627947Y367660D01*
X627947Y365648D01*
X627177Y363790D01*
X625754Y362367D01*
X623896Y361597D01*
X621884Y361597D01*
G37*
%LPD*%
%LPC*%
G36*
X733230Y348803D02*
X733230Y348803D01*
X731372Y349573D01*
X729949Y350996D01*
X729179Y352854D01*
X729179Y354866D01*
X729949Y356724D01*
X731372Y358147D01*
X733230Y358917D01*
X735242Y358917D01*
X737100Y358147D01*
X738523Y356724D01*
X739293Y354866D01*
X739293Y352854D01*
X738523Y350996D01*
X737100Y349573D01*
X735242Y348803D01*
X733230Y348803D01*
G37*
%LPD*%
%LPC*%
G36*
X720394Y37543D02*
X720394Y37543D01*
X718536Y38313D01*
X717113Y39736D01*
X716343Y41594D01*
X716343Y43606D01*
X717113Y45464D01*
X718536Y46887D01*
X720394Y47657D01*
X722406Y47657D01*
X724264Y46887D01*
X725687Y45464D01*
X726457Y43606D01*
X726457Y41594D01*
X725687Y39736D01*
X724264Y38313D01*
X722406Y37543D01*
X720394Y37543D01*
G37*
%LPD*%
%LPC*%
G36*
X760204Y334493D02*
X760204Y334493D01*
X758346Y335263D01*
X756923Y336686D01*
X756153Y338544D01*
X756153Y340556D01*
X756923Y342414D01*
X758346Y343837D01*
X760204Y344607D01*
X762216Y344607D01*
X764074Y343837D01*
X765497Y342414D01*
X766267Y340556D01*
X766267Y338544D01*
X765497Y336686D01*
X764074Y335263D01*
X762216Y334493D01*
X760204Y334493D01*
G37*
%LPD*%
%LPC*%
G36*
X574640Y334419D02*
X574640Y334419D01*
X572782Y335189D01*
X571359Y336612D01*
X570589Y338470D01*
X570589Y340482D01*
X571359Y342340D01*
X572782Y343763D01*
X574640Y344533D01*
X576652Y344533D01*
X578510Y343763D01*
X579933Y342340D01*
X580703Y340482D01*
X580703Y338470D01*
X579933Y336612D01*
X578510Y335189D01*
X576652Y334419D01*
X574640Y334419D01*
G37*
%LPD*%
%LPC*%
G36*
X653994Y330943D02*
X653994Y330943D01*
X652136Y331713D01*
X650713Y333136D01*
X649943Y334994D01*
X649943Y337006D01*
X650713Y338864D01*
X652136Y340287D01*
X653994Y341057D01*
X656006Y341057D01*
X657864Y340287D01*
X659287Y338864D01*
X660057Y337006D01*
X660057Y334994D01*
X659287Y333136D01*
X657864Y331713D01*
X656006Y330943D01*
X653994Y330943D01*
G37*
%LPD*%
%LPC*%
G36*
X669890Y361851D02*
X669890Y361851D01*
X668032Y362621D01*
X666609Y364044D01*
X665839Y365902D01*
X665839Y367914D01*
X666609Y369772D01*
X668032Y371195D01*
X669890Y371965D01*
X671902Y371965D01*
X673760Y371195D01*
X675183Y369772D01*
X675953Y367914D01*
X675953Y365902D01*
X675183Y364044D01*
X673760Y362621D01*
X671902Y361851D01*
X669890Y361851D01*
G37*
%LPD*%
%LPC*%
G36*
X745794Y37543D02*
X745794Y37543D01*
X743936Y38313D01*
X742513Y39736D01*
X741743Y41594D01*
X741743Y43606D01*
X742513Y45464D01*
X743936Y46887D01*
X745794Y47657D01*
X747806Y47657D01*
X749664Y46887D01*
X751087Y45464D01*
X751857Y43606D01*
X751857Y41594D01*
X751087Y39736D01*
X749664Y38313D01*
X747806Y37543D01*
X745794Y37543D01*
G37*
%LPD*%
%LPC*%
G36*
X718994Y364943D02*
X718994Y364943D01*
X717136Y365713D01*
X715713Y367136D01*
X714943Y368994D01*
X714943Y371006D01*
X715713Y372864D01*
X717136Y374287D01*
X718994Y375057D01*
X721006Y375057D01*
X722864Y374287D01*
X724287Y372864D01*
X725057Y371006D01*
X725057Y368994D01*
X724287Y367136D01*
X722864Y365713D01*
X721006Y364943D01*
X718994Y364943D01*
G37*
%LPD*%
%LPC*%
G36*
X814416Y304447D02*
X814416Y304447D01*
X812558Y305217D01*
X811135Y306640D01*
X810365Y308498D01*
X810365Y310510D01*
X811135Y312368D01*
X812558Y313791D01*
X814416Y314561D01*
X816428Y314561D01*
X818286Y313791D01*
X819709Y312368D01*
X820479Y310510D01*
X820479Y308498D01*
X819709Y306640D01*
X818286Y305217D01*
X816428Y304447D01*
X814416Y304447D01*
G37*
%LPD*%
%LPC*%
G36*
X572894Y295541D02*
X572894Y295541D01*
X571036Y296311D01*
X569613Y297734D01*
X568843Y299592D01*
X568843Y301604D01*
X569613Y303462D01*
X571036Y304885D01*
X572894Y305655D01*
X574906Y305655D01*
X576764Y304885D01*
X578187Y303462D01*
X578957Y301604D01*
X578957Y299592D01*
X578187Y297734D01*
X576764Y296311D01*
X574906Y295541D01*
X572894Y295541D01*
G37*
%LPD*%
%LPC*%
G36*
X895696Y295303D02*
X895696Y295303D01*
X893838Y296073D01*
X892415Y297496D01*
X891645Y299354D01*
X891645Y301366D01*
X892415Y303224D01*
X893838Y304647D01*
X895696Y305417D01*
X897708Y305417D01*
X899566Y304647D01*
X900989Y303224D01*
X901759Y301366D01*
X901759Y299354D01*
X900989Y297496D01*
X899566Y296073D01*
X897708Y295303D01*
X895696Y295303D01*
G37*
%LPD*%
%LPC*%
G36*
X643940Y470431D02*
X643940Y470431D01*
X642082Y471201D01*
X640659Y472624D01*
X639889Y474482D01*
X639889Y476494D01*
X640659Y478352D01*
X642082Y479775D01*
X643940Y480545D01*
X645952Y480545D01*
X647810Y479775D01*
X649233Y478352D01*
X650003Y476494D01*
X650003Y474482D01*
X649233Y472624D01*
X647810Y471201D01*
X645952Y470431D01*
X643940Y470431D01*
G37*
%LPD*%
%LPC*%
G36*
X828386Y283873D02*
X828386Y283873D01*
X826528Y284643D01*
X825105Y286066D01*
X824335Y287924D01*
X824335Y289936D01*
X825105Y291794D01*
X826528Y293217D01*
X828386Y293987D01*
X830398Y293987D01*
X832256Y293217D01*
X833679Y291794D01*
X834449Y289936D01*
X834449Y287924D01*
X833679Y286066D01*
X832256Y284643D01*
X830398Y283873D01*
X828386Y283873D01*
G37*
%LPD*%
%LPC*%
G36*
X893554Y274803D02*
X893554Y274803D01*
X891696Y275573D01*
X890273Y276996D01*
X889503Y278854D01*
X889503Y280866D01*
X890273Y282724D01*
X891696Y284147D01*
X893554Y284917D01*
X895566Y284917D01*
X897424Y284147D01*
X898847Y282724D01*
X899617Y280866D01*
X899617Y278854D01*
X898847Y276996D01*
X897424Y275573D01*
X895566Y274803D01*
X893554Y274803D01*
G37*
%LPD*%
%LPC*%
G36*
X613166Y271295D02*
X613166Y271295D01*
X611308Y272065D01*
X609885Y273488D01*
X609115Y275346D01*
X609115Y277358D01*
X609885Y279216D01*
X611308Y280639D01*
X613166Y281409D01*
X615178Y281409D01*
X617036Y280639D01*
X618459Y279216D01*
X619229Y277358D01*
X619229Y275346D01*
X618459Y273488D01*
X617036Y272065D01*
X615178Y271295D01*
X613166Y271295D01*
G37*
%LPD*%
%LPC*%
G36*
X726278Y270411D02*
X726278Y270411D01*
X724420Y271181D01*
X722997Y272604D01*
X722227Y274462D01*
X722227Y276474D01*
X722997Y278332D01*
X724420Y279755D01*
X726278Y280525D01*
X728290Y280525D01*
X730148Y279755D01*
X731571Y278332D01*
X732341Y276474D01*
X732341Y274462D01*
X731571Y272604D01*
X730148Y271181D01*
X728290Y270411D01*
X726278Y270411D01*
G37*
%LPD*%
%LPC*%
G36*
X752948Y262537D02*
X752948Y262537D01*
X751090Y263307D01*
X749667Y264730D01*
X748897Y266588D01*
X748897Y268600D01*
X749667Y270458D01*
X751090Y271881D01*
X752948Y272651D01*
X754960Y272651D01*
X756818Y271881D01*
X758241Y270458D01*
X759011Y268600D01*
X759011Y266588D01*
X758241Y264730D01*
X756818Y263307D01*
X754960Y262537D01*
X752948Y262537D01*
G37*
%LPD*%
%LPC*%
G36*
X574640Y254409D02*
X574640Y254409D01*
X572782Y255179D01*
X571359Y256602D01*
X570589Y258460D01*
X570589Y260472D01*
X571359Y262330D01*
X572782Y263753D01*
X574640Y264523D01*
X576652Y264523D01*
X578510Y263753D01*
X579933Y262330D01*
X580703Y260472D01*
X580703Y258460D01*
X579933Y256602D01*
X578510Y255179D01*
X576652Y254409D01*
X574640Y254409D01*
G37*
%LPD*%
%LPC*%
G36*
X814416Y239423D02*
X814416Y239423D01*
X812558Y240193D01*
X811135Y241616D01*
X810365Y243474D01*
X810365Y245486D01*
X811135Y247344D01*
X812558Y248767D01*
X814416Y249537D01*
X816428Y249537D01*
X818286Y248767D01*
X819709Y247344D01*
X820479Y245486D01*
X820479Y243474D01*
X819709Y241616D01*
X818286Y240193D01*
X816428Y239423D01*
X814416Y239423D01*
G37*
%LPD*%
%LPC*%
G36*
X923594Y37543D02*
X923594Y37543D01*
X921736Y38313D01*
X920313Y39736D01*
X919543Y41594D01*
X919543Y43606D01*
X920313Y45464D01*
X921736Y46887D01*
X923594Y47657D01*
X925606Y47657D01*
X927464Y46887D01*
X928887Y45464D01*
X929657Y43606D01*
X929657Y41594D01*
X928887Y39736D01*
X927464Y38313D01*
X925606Y37543D01*
X923594Y37543D01*
G37*
%LPD*%
%LPC*%
G36*
X965546Y226723D02*
X965546Y226723D01*
X963688Y227493D01*
X962265Y228916D01*
X961495Y230774D01*
X961495Y232786D01*
X962265Y234644D01*
X963688Y236067D01*
X965546Y236837D01*
X967558Y236837D01*
X969416Y236067D01*
X970839Y234644D01*
X971609Y232786D01*
X971609Y230774D01*
X970839Y228916D01*
X969416Y227493D01*
X967558Y226723D01*
X965546Y226723D01*
G37*
%LPD*%
%LPC*%
G36*
X921096Y226723D02*
X921096Y226723D01*
X919238Y227493D01*
X917815Y228916D01*
X917045Y230774D01*
X917045Y232786D01*
X917815Y234644D01*
X919238Y236067D01*
X921096Y236837D01*
X923108Y236837D01*
X924966Y236067D01*
X926389Y234644D01*
X927159Y232786D01*
X927159Y230774D01*
X926389Y228916D01*
X924966Y227493D01*
X923108Y226723D01*
X921096Y226723D01*
G37*
%LPD*%
%LPC*%
G36*
X582686Y395755D02*
X582686Y395755D01*
X580828Y396525D01*
X579405Y397948D01*
X578635Y399806D01*
X578635Y401818D01*
X579405Y403676D01*
X580828Y405099D01*
X582686Y405869D01*
X584698Y405869D01*
X586556Y405099D01*
X587979Y403676D01*
X588749Y401818D01*
X588749Y399806D01*
X587979Y397948D01*
X586556Y396525D01*
X584698Y395755D01*
X582686Y395755D01*
G37*
%LPD*%
%LPC*%
G36*
X723230Y224183D02*
X723230Y224183D01*
X721372Y224953D01*
X719949Y226376D01*
X719179Y228234D01*
X719179Y230246D01*
X719949Y232104D01*
X721372Y233527D01*
X723230Y234297D01*
X725242Y234297D01*
X727100Y233527D01*
X728523Y232104D01*
X729293Y230246D01*
X729293Y228234D01*
X728523Y226376D01*
X727100Y224953D01*
X725242Y224183D01*
X723230Y224183D01*
G37*
%LPD*%
%LPC*%
G36*
X771194Y40943D02*
X771194Y40943D01*
X769336Y41713D01*
X767913Y43136D01*
X767143Y44994D01*
X767143Y47006D01*
X767913Y48864D01*
X769336Y50287D01*
X771194Y51057D01*
X773206Y51057D01*
X775064Y50287D01*
X776487Y48864D01*
X777257Y47006D01*
X777257Y44994D01*
X776487Y43136D01*
X775064Y41713D01*
X773206Y40943D01*
X771194Y40943D01*
G37*
%LPD*%
%LPC*%
G36*
X680422Y217443D02*
X680422Y217443D01*
X678564Y218213D01*
X677141Y219636D01*
X676371Y221494D01*
X676371Y223506D01*
X677141Y225364D01*
X678564Y226787D01*
X680422Y227557D01*
X682434Y227557D01*
X684292Y226787D01*
X685715Y225364D01*
X686485Y223506D01*
X686485Y221494D01*
X685715Y219636D01*
X684292Y218213D01*
X682434Y217443D01*
X680422Y217443D01*
G37*
%LPD*%
%LPC*%
G36*
X739486Y200053D02*
X739486Y200053D01*
X737628Y200823D01*
X736205Y202246D01*
X735435Y204104D01*
X735435Y206116D01*
X736205Y207974D01*
X737628Y209397D01*
X739486Y210167D01*
X741498Y210167D01*
X743356Y209397D01*
X744779Y207974D01*
X745549Y206116D01*
X745549Y204104D01*
X744779Y202246D01*
X743356Y200823D01*
X741498Y200053D01*
X739486Y200053D01*
G37*
%LPD*%
%LPC*%
G36*
X803748Y197767D02*
X803748Y197767D01*
X801890Y198537D01*
X800467Y199960D01*
X799697Y201818D01*
X799697Y203830D01*
X800467Y205688D01*
X801890Y207111D01*
X803748Y207881D01*
X805760Y207881D01*
X807618Y207111D01*
X809041Y205688D01*
X809811Y203830D01*
X809811Y201818D01*
X809041Y199960D01*
X807618Y198537D01*
X805760Y197767D01*
X803748Y197767D01*
G37*
%LPD*%
%LPC*%
G36*
X468994Y194943D02*
X468994Y194943D01*
X467136Y195713D01*
X465713Y197136D01*
X464943Y198994D01*
X464943Y201006D01*
X465713Y202864D01*
X467136Y204287D01*
X468994Y205057D01*
X471006Y205057D01*
X472864Y204287D01*
X474287Y202864D01*
X475057Y201006D01*
X475057Y198994D01*
X474287Y197136D01*
X472864Y195713D01*
X471006Y194943D01*
X468994Y194943D01*
G37*
%LPD*%
%LPC*%
G36*
X782158Y190655D02*
X782158Y190655D01*
X780300Y191425D01*
X778877Y192848D01*
X778107Y194706D01*
X778107Y196718D01*
X778877Y198576D01*
X780300Y199999D01*
X782158Y200769D01*
X784170Y200769D01*
X786028Y199999D01*
X787451Y198576D01*
X788221Y196718D01*
X788221Y194706D01*
X787451Y192848D01*
X786028Y191425D01*
X784170Y190655D01*
X782158Y190655D01*
G37*
%LPD*%
%LPC*%
G36*
X564624Y187173D02*
X564624Y187173D01*
X562766Y187943D01*
X561343Y189366D01*
X560573Y191224D01*
X560573Y193236D01*
X561343Y195094D01*
X562766Y196517D01*
X564624Y197287D01*
X566636Y197287D01*
X568494Y196517D01*
X569917Y195094D01*
X570687Y193236D01*
X570687Y191224D01*
X569917Y189366D01*
X568494Y187943D01*
X566636Y187173D01*
X564624Y187173D01*
G37*
%LPD*%
%LPC*%
G36*
X725770Y183289D02*
X725770Y183289D01*
X723912Y184059D01*
X722489Y185482D01*
X721719Y187340D01*
X721719Y189352D01*
X722489Y191210D01*
X723912Y192633D01*
X725770Y193403D01*
X727782Y193403D01*
X729640Y192633D01*
X731063Y191210D01*
X731833Y189352D01*
X731833Y187340D01*
X731063Y185482D01*
X729640Y184059D01*
X727782Y183289D01*
X725770Y183289D01*
G37*
%LPD*%
%LPC*%
G36*
X701640Y183289D02*
X701640Y183289D01*
X699782Y184059D01*
X698359Y185482D01*
X697589Y187340D01*
X697589Y189352D01*
X698359Y191210D01*
X699782Y192633D01*
X701640Y193403D01*
X703652Y193403D01*
X705510Y192633D01*
X706933Y191210D01*
X707703Y189352D01*
X707703Y187340D01*
X706933Y185482D01*
X705510Y184059D01*
X703652Y183289D01*
X701640Y183289D01*
G37*
%LPD*%
%LPC*%
G36*
X657952Y183289D02*
X657952Y183289D01*
X656094Y184059D01*
X654671Y185482D01*
X653901Y187340D01*
X653901Y189352D01*
X654671Y191210D01*
X656094Y192633D01*
X657952Y193403D01*
X659964Y193403D01*
X661822Y192633D01*
X663245Y191210D01*
X664015Y189352D01*
X664015Y187340D01*
X663245Y185482D01*
X661822Y184059D01*
X659964Y183289D01*
X657952Y183289D01*
G37*
%LPD*%
%LPC*%
G36*
X621884Y183289D02*
X621884Y183289D01*
X620026Y184059D01*
X618603Y185482D01*
X617833Y187340D01*
X617833Y189352D01*
X618603Y191210D01*
X620026Y192633D01*
X621884Y193403D01*
X623896Y193403D01*
X625754Y192633D01*
X627177Y191210D01*
X627947Y189352D01*
X627947Y187340D01*
X627177Y185482D01*
X625754Y184059D01*
X623896Y183289D01*
X621884Y183289D01*
G37*
%LPD*%
%LPC*%
G36*
X673994Y182443D02*
X673994Y182443D01*
X672136Y183213D01*
X670713Y184636D01*
X669943Y186494D01*
X669943Y188506D01*
X670713Y190364D01*
X672136Y191787D01*
X673994Y192557D01*
X676006Y192557D01*
X677864Y191787D01*
X679287Y190364D01*
X680057Y188506D01*
X680057Y186494D01*
X679287Y184636D01*
X677864Y183213D01*
X676006Y182443D01*
X673994Y182443D01*
G37*
%LPD*%
%LPC*%
G36*
X588754Y179553D02*
X588754Y179553D01*
X586896Y180323D01*
X585473Y181746D01*
X584703Y183604D01*
X584703Y185616D01*
X585473Y187474D01*
X586896Y188897D01*
X588754Y189667D01*
X590766Y189667D01*
X592624Y188897D01*
X594047Y187474D01*
X594817Y185616D01*
X594817Y183604D01*
X594047Y181746D01*
X592624Y180323D01*
X590766Y179553D01*
X588754Y179553D01*
G37*
%LPD*%
%LPC*%
G36*
X908396Y172113D02*
X908396Y172113D01*
X906538Y172883D01*
X905115Y174306D01*
X904345Y176164D01*
X904345Y178176D01*
X905115Y180034D01*
X906538Y181457D01*
X908396Y182227D01*
X910408Y182227D01*
X912266Y181457D01*
X913689Y180034D01*
X914459Y178176D01*
X914459Y176164D01*
X913689Y174306D01*
X912266Y172883D01*
X910408Y172113D01*
X908396Y172113D01*
G37*
%LPD*%
%LPC*%
G36*
X832196Y172113D02*
X832196Y172113D01*
X830338Y172883D01*
X828915Y174306D01*
X828145Y176164D01*
X828145Y178176D01*
X828915Y180034D01*
X830338Y181457D01*
X832196Y182227D01*
X834208Y182227D01*
X836066Y181457D01*
X837489Y180034D01*
X838259Y178176D01*
X838259Y176164D01*
X837489Y174306D01*
X836066Y172883D01*
X834208Y172113D01*
X832196Y172113D01*
G37*
%LPD*%
%LPC*%
G36*
X563354Y171425D02*
X563354Y171425D01*
X561496Y172195D01*
X560073Y173618D01*
X559303Y175476D01*
X559303Y177488D01*
X560073Y179346D01*
X561496Y180769D01*
X563354Y181539D01*
X565366Y181539D01*
X567224Y180769D01*
X568647Y179346D01*
X569417Y177488D01*
X569417Y175476D01*
X568647Y173618D01*
X567224Y172195D01*
X565366Y171425D01*
X563354Y171425D01*
G37*
%LPD*%
%LPC*%
G36*
X591184Y152063D02*
X591184Y152063D01*
X589326Y152833D01*
X587903Y154256D01*
X587133Y156114D01*
X587133Y158126D01*
X587903Y159984D01*
X589326Y161407D01*
X591184Y162177D01*
X593196Y162177D01*
X595054Y161407D01*
X596477Y159984D01*
X597247Y158126D01*
X597247Y156114D01*
X596477Y154256D01*
X595054Y152833D01*
X593196Y152063D01*
X591184Y152063D01*
G37*
%LPD*%
%LPC*%
G36*
X118994Y142997D02*
X118994Y142997D01*
X117136Y143767D01*
X115713Y145190D01*
X114943Y147048D01*
X114943Y149060D01*
X115713Y150918D01*
X117136Y152341D01*
X118994Y153111D01*
X121006Y153111D01*
X122864Y152341D01*
X124287Y150918D01*
X125057Y149060D01*
X125057Y147048D01*
X124287Y145190D01*
X122864Y143767D01*
X121006Y142997D01*
X118994Y142997D01*
G37*
%LPD*%
%LPC*%
G36*
X318994Y142885D02*
X318994Y142885D01*
X317136Y143655D01*
X315713Y145078D01*
X314943Y146936D01*
X314943Y148948D01*
X315713Y150806D01*
X317136Y152229D01*
X318994Y152999D01*
X321006Y152999D01*
X322864Y152229D01*
X324287Y150806D01*
X325057Y148948D01*
X325057Y146936D01*
X324287Y145078D01*
X322864Y143655D01*
X321006Y142885D01*
X318994Y142885D01*
G37*
%LPD*%
%LPC*%
G36*
X218994Y142885D02*
X218994Y142885D01*
X217136Y143655D01*
X215713Y145078D01*
X214943Y146936D01*
X214943Y148948D01*
X215713Y150806D01*
X217136Y152229D01*
X218994Y152999D01*
X221006Y152999D01*
X222864Y152229D01*
X224287Y150806D01*
X225057Y148948D01*
X225057Y146936D01*
X224287Y145078D01*
X222864Y143655D01*
X221006Y142885D01*
X218994Y142885D01*
G37*
%LPD*%
%LPC*%
G36*
X824466Y140945D02*
X824466Y140945D01*
X822608Y141715D01*
X821185Y143138D01*
X820415Y144996D01*
X820415Y147008D01*
X821185Y148866D01*
X822608Y150289D01*
X824466Y151059D01*
X826478Y151059D01*
X828336Y150289D01*
X829759Y148866D01*
X830529Y147008D01*
X830529Y144996D01*
X829759Y143138D01*
X828336Y141715D01*
X826478Y140945D01*
X824466Y140945D01*
G37*
%LPD*%
%LPC*%
G36*
X899904Y140183D02*
X899904Y140183D01*
X898046Y140953D01*
X896623Y142376D01*
X895853Y144234D01*
X895853Y146246D01*
X896623Y148104D01*
X898046Y149527D01*
X899904Y150297D01*
X901916Y150297D01*
X903774Y149527D01*
X905197Y148104D01*
X905967Y146246D01*
X905967Y144234D01*
X905197Y142376D01*
X903774Y140953D01*
X901916Y140183D01*
X899904Y140183D01*
G37*
%LPD*%
%LPC*%
G36*
X948994Y88343D02*
X948994Y88343D01*
X947136Y89113D01*
X945713Y90536D01*
X944943Y92394D01*
X944943Y94406D01*
X945713Y96264D01*
X947136Y97687D01*
X948994Y98457D01*
X951006Y98457D01*
X952864Y97687D01*
X954287Y96264D01*
X955057Y94406D01*
X955057Y92394D01*
X954287Y90536D01*
X952864Y89113D01*
X951006Y88343D01*
X948994Y88343D01*
G37*
%LPD*%
%LPC*%
G36*
X923594Y88343D02*
X923594Y88343D01*
X921736Y89113D01*
X920313Y90536D01*
X919543Y92394D01*
X919543Y94406D01*
X920313Y96264D01*
X921736Y97687D01*
X923594Y98457D01*
X925606Y98457D01*
X927464Y97687D01*
X928887Y96264D01*
X929657Y94406D01*
X929657Y92394D01*
X928887Y90536D01*
X927464Y89113D01*
X925606Y88343D01*
X923594Y88343D01*
G37*
%LPD*%
%LPC*%
G36*
X898194Y84943D02*
X898194Y84943D01*
X896336Y85713D01*
X894913Y87136D01*
X894143Y88994D01*
X894143Y91006D01*
X894913Y92864D01*
X896336Y94287D01*
X898194Y95057D01*
X900206Y95057D01*
X902064Y94287D01*
X903487Y92864D01*
X904257Y91006D01*
X904257Y88994D01*
X903487Y87136D01*
X902064Y85713D01*
X900206Y84943D01*
X898194Y84943D01*
G37*
%LPD*%
%LPC*%
G36*
X872794Y84943D02*
X872794Y84943D01*
X870936Y85713D01*
X869513Y87136D01*
X868743Y88994D01*
X868743Y91006D01*
X869513Y92864D01*
X870936Y94287D01*
X872794Y95057D01*
X874806Y95057D01*
X876664Y94287D01*
X878087Y92864D01*
X878857Y91006D01*
X878857Y88994D01*
X878087Y87136D01*
X876664Y85713D01*
X874806Y84943D01*
X872794Y84943D01*
G37*
%LPD*%
%LPC*%
G36*
X847394Y84943D02*
X847394Y84943D01*
X845536Y85713D01*
X844113Y87136D01*
X843343Y88994D01*
X843343Y91006D01*
X844113Y92864D01*
X845536Y94287D01*
X847394Y95057D01*
X849406Y95057D01*
X851264Y94287D01*
X852687Y92864D01*
X853457Y91006D01*
X853457Y88994D01*
X852687Y87136D01*
X851264Y85713D01*
X849406Y84943D01*
X847394Y84943D01*
G37*
%LPD*%
%LPC*%
G36*
X821994Y84943D02*
X821994Y84943D01*
X820136Y85713D01*
X818713Y87136D01*
X817943Y88994D01*
X817943Y91006D01*
X818713Y92864D01*
X820136Y94287D01*
X821994Y95057D01*
X824006Y95057D01*
X825864Y94287D01*
X827287Y92864D01*
X828057Y91006D01*
X828057Y88994D01*
X827287Y87136D01*
X825864Y85713D01*
X824006Y84943D01*
X821994Y84943D01*
G37*
%LPD*%
%LPC*%
G36*
X796594Y84943D02*
X796594Y84943D01*
X794736Y85713D01*
X793313Y87136D01*
X792543Y88994D01*
X792543Y91006D01*
X793313Y92864D01*
X794736Y94287D01*
X796594Y95057D01*
X798606Y95057D01*
X800464Y94287D01*
X801887Y92864D01*
X802657Y91006D01*
X802657Y88994D01*
X801887Y87136D01*
X800464Y85713D01*
X798606Y84943D01*
X796594Y84943D01*
G37*
%LPD*%
%LPC*%
G36*
X771194Y84943D02*
X771194Y84943D01*
X769336Y85713D01*
X767913Y87136D01*
X767143Y88994D01*
X767143Y91006D01*
X767913Y92864D01*
X769336Y94287D01*
X771194Y95057D01*
X773206Y95057D01*
X775064Y94287D01*
X776487Y92864D01*
X777257Y91006D01*
X777257Y88994D01*
X776487Y87136D01*
X775064Y85713D01*
X773206Y84943D01*
X771194Y84943D01*
G37*
%LPD*%
%LPC*%
G36*
X745754Y80981D02*
X745754Y80981D01*
X743896Y81751D01*
X742473Y83174D01*
X741703Y85032D01*
X741703Y87044D01*
X742473Y88902D01*
X743896Y90325D01*
X745754Y91095D01*
X747766Y91095D01*
X749624Y90325D01*
X751047Y88902D01*
X751817Y87044D01*
X751817Y85032D01*
X751047Y83174D01*
X749624Y81751D01*
X747766Y80981D01*
X745754Y80981D01*
G37*
%LPD*%
%LPC*%
G36*
X719083Y79524D02*
X719083Y79524D01*
X717224Y80294D01*
X715802Y81716D01*
X715032Y83575D01*
X715032Y85586D01*
X715802Y87445D01*
X717224Y88867D01*
X719083Y89637D01*
X721094Y89637D01*
X722953Y88867D01*
X724375Y87445D01*
X725145Y85586D01*
X725145Y83575D01*
X724375Y81716D01*
X722953Y80294D01*
X721094Y79524D01*
X719083Y79524D01*
G37*
%LPD*%
%LPC*%
G36*
X221394Y544943D02*
X221394Y544943D01*
X219536Y545713D01*
X218113Y547136D01*
X217343Y548994D01*
X217343Y551006D01*
X218113Y552864D01*
X219536Y554287D01*
X221394Y555057D01*
X223406Y555057D01*
X225264Y554287D01*
X226687Y552864D01*
X227457Y551006D01*
X227457Y548994D01*
X226687Y547136D01*
X225264Y545713D01*
X223406Y544943D01*
X221394Y544943D01*
G37*
%LPD*%
%LPC*%
G36*
X515994Y410943D02*
X515994Y410943D01*
X514136Y411713D01*
X512713Y413136D01*
X511943Y414994D01*
X511943Y417006D01*
X512713Y418864D01*
X514136Y420287D01*
X515994Y421057D01*
X518006Y421057D01*
X519864Y420287D01*
X521287Y418864D01*
X522057Y417006D01*
X522057Y414994D01*
X521287Y413136D01*
X519864Y411713D01*
X518006Y410943D01*
X515994Y410943D01*
G37*
%LPD*%
%LPC*%
G36*
X898194Y40943D02*
X898194Y40943D01*
X896336Y41713D01*
X894913Y43136D01*
X894143Y44994D01*
X894143Y47006D01*
X894913Y48864D01*
X896336Y50287D01*
X898194Y51057D01*
X900206Y51057D01*
X902064Y50287D01*
X903487Y48864D01*
X904257Y47006D01*
X904257Y44994D01*
X903487Y43136D01*
X902064Y41713D01*
X900206Y40943D01*
X898194Y40943D01*
G37*
%LPD*%
%LPC*%
G36*
X872794Y40943D02*
X872794Y40943D01*
X870936Y41713D01*
X869513Y43136D01*
X868743Y44994D01*
X868743Y47006D01*
X869513Y48864D01*
X870936Y50287D01*
X872794Y51057D01*
X874806Y51057D01*
X876664Y50287D01*
X878087Y48864D01*
X878857Y47006D01*
X878857Y44994D01*
X878087Y43136D01*
X876664Y41713D01*
X874806Y40943D01*
X872794Y40943D01*
G37*
%LPD*%
%LPC*%
G36*
X847394Y40943D02*
X847394Y40943D01*
X845536Y41713D01*
X844113Y43136D01*
X843343Y44994D01*
X843343Y47006D01*
X844113Y48864D01*
X845536Y50287D01*
X847394Y51057D01*
X849406Y51057D01*
X851264Y50287D01*
X852687Y48864D01*
X853457Y47006D01*
X853457Y44994D01*
X852687Y43136D01*
X851264Y41713D01*
X849406Y40943D01*
X847394Y40943D01*
G37*
%LPD*%
%LPC*%
G36*
X821994Y40943D02*
X821994Y40943D01*
X820136Y41713D01*
X818713Y43136D01*
X817943Y44994D01*
X817943Y47006D01*
X818713Y48864D01*
X820136Y50287D01*
X821994Y51057D01*
X824006Y51057D01*
X825864Y50287D01*
X827287Y48864D01*
X828057Y47006D01*
X828057Y44994D01*
X827287Y43136D01*
X825864Y41713D01*
X824006Y40943D01*
X821994Y40943D01*
G37*
%LPD*%
%LPC*%
G36*
X796594Y40943D02*
X796594Y40943D01*
X794736Y41713D01*
X793313Y43136D01*
X792543Y44994D01*
X792543Y47006D01*
X793313Y48864D01*
X794736Y50287D01*
X796594Y51057D01*
X798606Y51057D01*
X800464Y50287D01*
X801887Y48864D01*
X802657Y47006D01*
X802657Y44994D01*
X801887Y43136D01*
X800464Y41713D01*
X798606Y40943D01*
X796594Y40943D01*
G37*
%LPD*%
%LPC*%
G36*
X237122Y479522D02*
X237122Y479522D01*
X237122Y486593D01*
X237131Y486591D01*
X238557Y486128D01*
X239893Y485447D01*
X241106Y484566D01*
X242166Y483506D01*
X243047Y482293D01*
X243728Y480957D01*
X244191Y479531D01*
X244193Y479522D01*
X237122Y479522D01*
G37*
%LPD*%
%LPC*%
G36*
X225607Y479522D02*
X225607Y479522D01*
X225609Y479531D01*
X226072Y480957D01*
X226753Y482293D01*
X227634Y483506D01*
X228694Y484566D01*
X229907Y485447D01*
X231243Y486128D01*
X232669Y486591D01*
X232678Y486593D01*
X232678Y479522D01*
X225607Y479522D01*
G37*
%LPD*%
%LPC*%
G36*
X237122Y475078D02*
X237122Y475078D01*
X244193Y475078D01*
X244191Y475069D01*
X243728Y473643D01*
X243047Y472307D01*
X242166Y471094D01*
X241106Y470034D01*
X239893Y469153D01*
X238557Y468472D01*
X237131Y468009D01*
X237122Y468007D01*
X237122Y475078D01*
G37*
%LPD*%
%LPC*%
G36*
X232669Y468009D02*
X232669Y468009D01*
X231243Y468472D01*
X229907Y469153D01*
X228694Y470034D01*
X227634Y471094D01*
X226753Y472307D01*
X226072Y473643D01*
X225609Y475069D01*
X225607Y475078D01*
X232678Y475078D01*
X232678Y468007D01*
X232669Y468009D01*
G37*
%LPD*%
D10*
X260300Y477300D03*
X234900Y477300D03*
X209500Y477300D03*
X184100Y477300D03*
D11*
X740492Y205110D03*
X804754Y202824D03*
X725000Y330000D03*
X899200Y90000D03*
X715000Y322500D03*
X899200Y46000D03*
X700000Y325000D03*
X873800Y90000D03*
X691412Y327500D03*
X873800Y46000D03*
X815422Y244480D03*
X815422Y309504D03*
X966552Y231780D03*
X922102Y231780D03*
X655000Y336000D03*
X720000Y370000D03*
X608810Y221440D03*
X589760Y184610D03*
X543408Y367284D03*
D12*
X350520Y441960D03*
D11*
X602738Y227790D03*
X564360Y176482D03*
X556260Y367284D03*
X727284Y275468D03*
X924600Y42600D03*
X762843Y278612D03*
X924600Y93400D03*
X753954Y287406D03*
X950000Y93400D03*
X513150Y222180D03*
X720089Y84581D03*
X519223Y216107D03*
X746760Y86038D03*
X525295Y210035D03*
X772200Y46000D03*
X531368Y203962D03*
X772200Y90000D03*
X627500Y222500D03*
X797600Y46000D03*
X627500Y231088D03*
X797600Y90000D03*
X675000Y187500D03*
X823000Y46000D03*
X681428Y222500D03*
X823000Y90000D03*
X869160Y413452D03*
X618112Y340444D03*
X848400Y46000D03*
X880000Y413452D03*
X623772Y331650D03*
X848400Y90000D03*
X829392Y288930D03*
X896702Y300360D03*
X833202Y177170D03*
X909402Y177170D03*
X592190Y157120D03*
X470000Y200000D03*
X575646Y339476D03*
X573900Y300598D03*
X622890Y366654D03*
X670896Y366908D03*
X734236Y353860D03*
X753856Y297428D03*
X753954Y267594D03*
X724236Y229240D03*
X726776Y188346D03*
X702646Y188346D03*
X658958Y188346D03*
X622890Y188346D03*
X575646Y259466D03*
X783164Y195712D03*
X825472Y146002D03*
X900910Y145240D03*
X894560Y279860D03*
X761210Y339550D03*
X565630Y192230D03*
X644946Y475488D03*
X517000Y416000D03*
X583692Y400812D03*
D12*
X284988Y603504D03*
D11*
X943692Y367670D03*
X867492Y368386D03*
X879176Y247020D03*
X943692Y278770D03*
X608700Y177440D03*
X490000Y330000D03*
X602062Y303408D03*
X626700Y340238D03*
X672206Y340238D03*
X727284Y339476D03*
X727284Y295534D03*
X727284Y263530D03*
X717886Y235590D03*
X722712Y215016D03*
X698836Y215016D03*
X654640Y215016D03*
X618826Y215016D03*
X602062Y263530D03*
X804754Y169042D03*
X864080Y145240D03*
X940280Y145240D03*
X859000Y287480D03*
X778990Y339550D03*
X661896Y475440D03*
X743684Y187150D03*
X672080Y175990D03*
X762480Y364950D03*
X709140Y370030D03*
X547850Y350980D03*
X533278Y300020D03*
X532008Y256144D03*
X547850Y192230D03*
X856742Y439674D03*
X574294Y434848D03*
D13*
X574040Y434848D01*
D11*
X663956Y440944D03*
X589788Y376174D03*
X531876Y268986D03*
X794766Y267716D03*
X170180Y143510D03*
X270764Y143510D03*
X363728Y143764D03*
D12*
X311000Y597400D03*
D14*
X311000Y598932D01*
X310896Y598932D01*
D11*
X591820Y353568D03*
D13*
X592074Y353568D01*
D11*
X76000Y144000D03*
X501005Y234325D03*
X746800Y42600D03*
X507077Y228253D03*
X721400Y42600D03*
X556372Y358140D03*
X120000Y148054D03*
X565460Y358140D03*
X220000Y147942D03*
X574548Y358140D03*
X320000Y147942D03*
X614172Y276352D03*
X537340Y374904D03*
X222400Y550000D03*
M02*
