G04 EAGLE Gerber RS-274X export*
G75*
%MOMM*%
%FSLAX34Y34*%
%LPD*%
%INTop Copper*%
%IPPOS*%
%AMOC8*
5,1,8,0,0,1.08239X$1,22.5*%
G01*
%ADD10R,0.200000X1.600000*%
%ADD11R,1.600000X0.200000*%
%ADD12R,1.050000X1.080000*%
%ADD13C,0.118838*%
%ADD14R,0.500000X1.200000*%
%ADD15R,4.300000X3.400000*%
%ADD16R,5.000000X2.000000*%
%ADD17R,4.000000X1.700000*%
%ADD18R,2.400000X2.400000*%
%ADD19R,1.000000X1.100000*%
%ADD20R,0.600000X2.200000*%
%ADD21C,0.200000*%
%ADD22R,1.500000X2.500000*%
%ADD23R,2.500000X1.500000*%
%ADD24R,0.550000X1.750000*%
%ADD25R,1.300000X1.500000*%
%ADD26R,1.000000X1.550000*%
%ADD27R,0.800000X1.400000*%
%ADD28R,1.300000X1.000000*%
%ADD29P,2.061953X8X202.500000*%
%ADD30R,1.270000X3.000000*%
%ADD31R,1.270000X3.680000*%
%ADD32R,0.650000X0.650000*%
%ADD33R,0.800000X1.250000*%
%ADD34R,1.800000X1.000000*%
%ADD35R,1.745500X0.591500*%
%ADD36C,0.203200*%
%ADD37C,0.152400*%
%ADD38C,0.706400*%
%ADD39C,0.254000*%
%ADD40C,0.756400*%
%ADD41C,0.304800*%
%ADD42C,0.812800*%
%ADD43C,0.406400*%
%ADD44C,0.508000*%


D10*
X602800Y201500D03*
X606800Y201500D03*
X610800Y201500D03*
X614800Y201500D03*
X618800Y201500D03*
X622800Y201500D03*
X626800Y201500D03*
X630800Y201500D03*
X634800Y201500D03*
X638800Y201500D03*
X642800Y201500D03*
X646800Y201500D03*
X650800Y201500D03*
X654800Y201500D03*
X658800Y201500D03*
X662800Y201500D03*
X666800Y201500D03*
X670800Y201500D03*
X674800Y201500D03*
X678800Y201500D03*
X682800Y201500D03*
X686800Y201500D03*
X690800Y201500D03*
X694800Y201500D03*
X698800Y201500D03*
X702800Y201500D03*
X706800Y201500D03*
X710800Y201500D03*
X714800Y201500D03*
X718800Y201500D03*
X722800Y201500D03*
X726800Y201500D03*
D11*
X740800Y215500D03*
X740800Y219500D03*
X740800Y223500D03*
X740800Y227500D03*
X740800Y231500D03*
X740800Y235500D03*
X740800Y239500D03*
X740800Y243500D03*
X740800Y247500D03*
X740800Y251500D03*
X740800Y255500D03*
X740800Y259500D03*
X740800Y263500D03*
X740800Y267500D03*
X740800Y271500D03*
X740800Y275500D03*
X740800Y279500D03*
X740800Y283500D03*
X740800Y287500D03*
X740800Y291500D03*
X740800Y295500D03*
X740800Y299500D03*
X740800Y303500D03*
X740800Y307500D03*
X740800Y311500D03*
X740800Y315500D03*
X740800Y319500D03*
X740800Y323500D03*
X740800Y327500D03*
X740800Y331500D03*
X740800Y335500D03*
X740800Y339500D03*
D10*
X726800Y353500D03*
X722800Y353500D03*
X718800Y353500D03*
X714800Y353500D03*
X710800Y353500D03*
X706800Y353500D03*
X702800Y353500D03*
X698800Y353500D03*
X694800Y353500D03*
X690800Y353500D03*
X686800Y353500D03*
X682800Y353500D03*
X678800Y353500D03*
X674800Y353500D03*
X670800Y353500D03*
X666800Y353500D03*
X662800Y353500D03*
X658800Y353500D03*
X654800Y353500D03*
X650800Y353500D03*
X646800Y353500D03*
X642800Y353500D03*
X638800Y353500D03*
X634800Y353500D03*
X630800Y353500D03*
X626800Y353500D03*
X622800Y353500D03*
X618800Y353500D03*
X614800Y353500D03*
X610800Y353500D03*
X606800Y353500D03*
X602800Y353500D03*
D11*
X588800Y339500D03*
X588800Y335500D03*
X588800Y331500D03*
X588800Y327500D03*
X588800Y323500D03*
X588800Y319500D03*
X588800Y315500D03*
X588800Y311500D03*
X588800Y307500D03*
X588800Y303500D03*
X588800Y299500D03*
X588800Y295500D03*
X588800Y291500D03*
X588800Y287500D03*
X588800Y283500D03*
X588800Y279500D03*
X588800Y275500D03*
X588800Y271500D03*
X588800Y267500D03*
X588800Y263500D03*
X588800Y259500D03*
X588800Y255500D03*
X588800Y251500D03*
X588800Y247500D03*
X588800Y243500D03*
X588800Y239500D03*
X588800Y235500D03*
X588800Y231500D03*
X588800Y227500D03*
X588800Y223500D03*
X588800Y219500D03*
X588800Y215500D03*
D12*
X703302Y176556D03*
X685802Y176556D03*
D13*
X627862Y158171D02*
X614666Y158171D01*
X627862Y158171D02*
X627862Y156389D01*
X614666Y156389D01*
X614666Y158171D01*
X614666Y157518D02*
X627862Y157518D01*
X627862Y163171D02*
X614666Y163171D01*
X627862Y163171D02*
X627862Y161389D01*
X614666Y161389D01*
X614666Y163171D01*
X614666Y162518D02*
X627862Y162518D01*
X627862Y168171D02*
X614666Y168171D01*
X627862Y168171D02*
X627862Y166389D01*
X614666Y166389D01*
X614666Y168171D01*
X614666Y167518D02*
X627862Y167518D01*
X627862Y173171D02*
X614666Y173171D01*
X627862Y173171D02*
X627862Y171389D01*
X614666Y171389D01*
X614666Y173171D01*
X614666Y172518D02*
X627862Y172518D01*
X627862Y178171D02*
X614666Y178171D01*
X627862Y178171D02*
X627862Y176389D01*
X614666Y176389D01*
X614666Y178171D01*
X614666Y177518D02*
X627862Y177518D01*
X584954Y178171D02*
X571758Y178171D01*
X584954Y178171D02*
X584954Y176389D01*
X571758Y176389D01*
X571758Y178171D01*
X571758Y177518D02*
X584954Y177518D01*
X584954Y173171D02*
X571758Y173171D01*
X584954Y173171D02*
X584954Y171389D01*
X571758Y171389D01*
X571758Y173171D01*
X571758Y172518D02*
X584954Y172518D01*
X584954Y168171D02*
X571758Y168171D01*
X584954Y168171D02*
X584954Y166389D01*
X571758Y166389D01*
X571758Y168171D01*
X571758Y167518D02*
X584954Y167518D01*
X584954Y163171D02*
X571758Y163171D01*
X584954Y163171D02*
X584954Y161389D01*
X571758Y161389D01*
X571758Y163171D01*
X571758Y162518D02*
X584954Y162518D01*
X584954Y158171D02*
X571758Y158171D01*
X584954Y158171D02*
X584954Y156389D01*
X571758Y156389D01*
X571758Y158171D01*
X571758Y157518D02*
X584954Y157518D01*
D14*
X833202Y246980D03*
X845902Y246980D03*
X858602Y246980D03*
X871302Y246980D03*
X871302Y165780D03*
X858602Y165780D03*
X845902Y165780D03*
X833202Y165780D03*
D15*
X852252Y206380D03*
D14*
X909402Y246980D03*
X922102Y246980D03*
X934802Y246980D03*
X947502Y246980D03*
X947502Y165780D03*
X934802Y165780D03*
X922102Y165780D03*
X909402Y165780D03*
D15*
X928452Y206380D03*
D14*
X905592Y381600D03*
X918292Y381600D03*
X930992Y381600D03*
X943692Y381600D03*
X943692Y300400D03*
X930992Y300400D03*
X918292Y300400D03*
X905592Y300400D03*
D15*
X924642Y341000D03*
D14*
X829392Y381600D03*
X842092Y381600D03*
X854792Y381600D03*
X867492Y381600D03*
X867492Y300400D03*
X854792Y300400D03*
X842092Y300400D03*
X829392Y300400D03*
D15*
X848442Y341000D03*
D16*
X460000Y228500D03*
D17*
X460000Y330000D03*
D18*
X489320Y161770D03*
X445320Y161770D03*
D19*
X458500Y200000D03*
X441500Y200000D03*
D20*
X766654Y152910D03*
X779354Y152910D03*
X792054Y152910D03*
X804754Y152910D03*
X804754Y219210D03*
X792054Y219210D03*
X779354Y219210D03*
X766654Y219210D03*
D21*
X905096Y439508D02*
X905096Y450008D01*
X907096Y450008D01*
X907096Y439508D01*
X905096Y439508D01*
X905096Y441408D02*
X907096Y441408D01*
X907096Y443308D02*
X905096Y443308D01*
X905096Y445208D02*
X907096Y445208D01*
X907096Y447108D02*
X905096Y447108D01*
X905096Y449008D02*
X907096Y449008D01*
X898596Y450008D02*
X898596Y439508D01*
X898596Y450008D02*
X900596Y450008D01*
X900596Y439508D01*
X898596Y439508D01*
X898596Y441408D02*
X900596Y441408D01*
X900596Y443308D02*
X898596Y443308D01*
X898596Y445208D02*
X900596Y445208D01*
X900596Y447108D02*
X898596Y447108D01*
X898596Y449008D02*
X900596Y449008D01*
X892096Y450008D02*
X892096Y439508D01*
X892096Y450008D02*
X894096Y450008D01*
X894096Y439508D01*
X892096Y439508D01*
X892096Y441408D02*
X894096Y441408D01*
X894096Y443308D02*
X892096Y443308D01*
X892096Y445208D02*
X894096Y445208D01*
X894096Y447108D02*
X892096Y447108D01*
X892096Y449008D02*
X894096Y449008D01*
X885596Y450008D02*
X885596Y439508D01*
X885596Y450008D02*
X887596Y450008D01*
X887596Y439508D01*
X885596Y439508D01*
X885596Y441408D02*
X887596Y441408D01*
X887596Y443308D02*
X885596Y443308D01*
X885596Y445208D02*
X887596Y445208D01*
X887596Y447108D02*
X885596Y447108D01*
X885596Y449008D02*
X887596Y449008D01*
X879096Y450008D02*
X879096Y439508D01*
X879096Y450008D02*
X881096Y450008D01*
X881096Y439508D01*
X879096Y439508D01*
X879096Y441408D02*
X881096Y441408D01*
X881096Y443308D02*
X879096Y443308D01*
X879096Y445208D02*
X881096Y445208D01*
X881096Y447108D02*
X879096Y447108D01*
X879096Y449008D02*
X881096Y449008D01*
D22*
X944596Y490008D03*
X944596Y448008D03*
D23*
X912596Y426008D03*
X873596Y426008D03*
D22*
X841596Y448008D03*
X841596Y490008D03*
D24*
X705596Y388168D03*
X716596Y388168D03*
X727596Y388168D03*
X738596Y388168D03*
X749596Y388168D03*
X760596Y388168D03*
X771596Y388168D03*
X782596Y388168D03*
D25*
X693596Y389418D03*
X807096Y389418D03*
D26*
X809596Y496168D03*
D27*
X810596Y471918D03*
X691096Y465418D03*
D28*
X693596Y496168D03*
D29*
X260300Y477300D03*
X234900Y477300D03*
X209500Y477300D03*
X184100Y477300D03*
D12*
X559700Y269242D03*
X542200Y269242D03*
X644946Y486398D03*
X662446Y486398D03*
X912360Y146030D03*
X929860Y146030D03*
X836170Y146030D03*
X853670Y146030D03*
X904900Y279840D03*
X922400Y279840D03*
X841250Y276190D03*
X858750Y276190D03*
X766264Y267808D03*
X783764Y267808D03*
X565354Y205428D03*
X547854Y205428D03*
X761250Y328000D03*
X778750Y328000D03*
X745850Y353970D03*
X763350Y353970D03*
X681250Y370000D03*
X698750Y370000D03*
X621930Y377840D03*
X604430Y377840D03*
X726170Y176350D03*
X743670Y176350D03*
X643790Y176350D03*
X661290Y176350D03*
X560020Y255682D03*
X542520Y255682D03*
X562052Y303048D03*
X544552Y303048D03*
X565100Y340000D03*
X547600Y340000D03*
D30*
X70000Y546600D03*
X95400Y546600D03*
D31*
X120800Y550000D03*
X146200Y550000D03*
X171600Y550000D03*
X197000Y550000D03*
X222400Y550000D03*
X247800Y550000D03*
D30*
X273200Y546600D03*
X298600Y546600D03*
X298600Y597400D03*
X273200Y597400D03*
D31*
X247800Y594000D03*
X222400Y594000D03*
X197000Y594000D03*
X171600Y594000D03*
X146200Y594000D03*
X120800Y594000D03*
D30*
X95400Y597400D03*
X70000Y597400D03*
X950000Y93400D03*
X924600Y93400D03*
D31*
X899200Y90000D03*
X873800Y90000D03*
X848400Y90000D03*
X823000Y90000D03*
X797600Y90000D03*
X772200Y90000D03*
D30*
X746800Y93400D03*
X721400Y93400D03*
X721400Y42600D03*
X746800Y42600D03*
D31*
X772200Y46000D03*
X797600Y46000D03*
X823000Y46000D03*
X848400Y46000D03*
X873800Y46000D03*
X899200Y46000D03*
D30*
X924600Y42600D03*
X950000Y42600D03*
D32*
X145000Y126750D03*
X95000Y126750D03*
D33*
X120000Y143750D03*
X131500Y143750D03*
X108500Y143750D03*
D32*
X245000Y126750D03*
X195000Y126750D03*
D33*
X220000Y143750D03*
X231500Y143750D03*
X208500Y143750D03*
D32*
X345000Y126750D03*
X295000Y126750D03*
D33*
X320000Y143750D03*
X331500Y143750D03*
X308500Y143750D03*
D34*
X647700Y163376D03*
X647700Y138376D03*
D35*
X591625Y466344D03*
X591625Y453644D03*
X591625Y440944D03*
X591625Y428244D03*
X643323Y428244D03*
X643323Y440944D03*
X643323Y453644D03*
X643323Y466344D03*
D19*
X534280Y400812D03*
X517280Y400812D03*
X534280Y431292D03*
X517280Y431292D03*
X555380Y400812D03*
X572380Y400812D03*
D36*
X602460Y201500D02*
X602800Y201500D01*
X602460Y201500D02*
X602460Y176923D01*
X592818Y167280D01*
X578356Y167280D01*
D37*
X740800Y205418D02*
X740800Y215500D01*
X740800Y205418D02*
X740492Y205110D01*
D38*
X740492Y205110D03*
X804754Y202824D03*
D37*
X804754Y219210D01*
D36*
X779354Y179873D02*
X779354Y152910D01*
X757436Y215161D02*
X753049Y219548D01*
X740848Y219548D01*
D37*
X740800Y219500D01*
D36*
X757436Y201791D02*
X779354Y179873D01*
X757436Y201791D02*
X757436Y215161D01*
X792054Y172246D02*
X792054Y152910D01*
X760992Y216875D02*
X754319Y223548D01*
X740848Y223548D01*
D37*
X740800Y223500D01*
D36*
X760992Y203308D02*
X792054Y172246D01*
X760992Y203308D02*
X760992Y216875D01*
X779354Y219210D02*
X779354Y231363D01*
X777205Y233512D01*
X760421Y233512D01*
X754409Y227500D02*
X740800Y227500D01*
X754409Y227500D02*
X760421Y233512D01*
X706800Y341020D02*
X706800Y353500D01*
X706800Y341020D02*
X717820Y330000D01*
X725000Y330000D01*
D38*
X725000Y330000D03*
X899200Y90000D03*
D36*
X715000Y322500D02*
X702800Y334700D01*
D38*
X715000Y322500D03*
X899200Y46000D03*
D36*
X702800Y334700D02*
X702800Y353500D01*
D38*
X700000Y325000D03*
D36*
X683260Y353040D02*
X682800Y353500D01*
X683260Y353040D02*
X683260Y344448D01*
X700000Y327708D02*
X700000Y325000D01*
X700000Y327708D02*
X683260Y344448D01*
D38*
X873800Y90000D03*
D36*
X873800Y97500D01*
D38*
X691412Y327500D03*
D36*
X679244Y353056D02*
X678800Y353500D01*
X691412Y331267D02*
X691412Y327500D01*
X679244Y343435D02*
X679244Y353056D01*
X679244Y343435D02*
X691412Y331267D01*
D38*
X873800Y46000D03*
D36*
X740800Y239500D02*
X740864Y239564D01*
X792054Y231109D02*
X792054Y219210D01*
X792054Y231109D02*
X783599Y239564D01*
X740864Y239564D01*
X740800Y243500D02*
X740848Y243548D01*
X740928Y243628D02*
X799093Y243628D01*
D37*
X740928Y243628D02*
X740800Y243500D01*
D36*
X799093Y243628D02*
X812882Y229839D01*
X812882Y141519D02*
X809925Y138562D01*
X768686Y138562D01*
X812882Y141519D02*
X812882Y229839D01*
X766654Y140594D02*
X768686Y138562D01*
X766654Y140594D02*
X766654Y152910D01*
D39*
X947502Y155620D02*
X947502Y165780D01*
X947502Y155620D02*
X947462Y155580D01*
X870032Y155580D01*
X817962Y155580D01*
X817962Y231780D01*
X802214Y247528D01*
D36*
X740828Y247528D01*
D37*
X740800Y247500D01*
D39*
X871302Y165780D02*
X871302Y156850D01*
X870032Y155580D01*
X943692Y289911D02*
X943692Y300400D01*
X947502Y175359D02*
X947502Y165780D01*
X957876Y275727D02*
X943692Y289911D01*
X957876Y275727D02*
X957876Y185733D01*
X947502Y175359D01*
X870361Y289911D02*
X867492Y292780D01*
X867492Y300400D01*
X870361Y289911D02*
X943692Y289911D01*
D36*
X808402Y251500D02*
X740800Y251500D01*
D39*
X808402Y251500D02*
X815422Y244480D01*
D38*
X815422Y244480D03*
D39*
X858602Y174630D02*
X858602Y165780D01*
X822878Y237024D02*
X815422Y244480D01*
X822878Y237024D02*
X822878Y190763D01*
X828325Y185316D01*
X847916Y185316D01*
X858602Y174630D01*
X934802Y174670D02*
X934802Y165780D01*
X934802Y174670D02*
X924156Y185316D01*
X847916Y185316D01*
X854792Y300400D02*
X854792Y310520D01*
D38*
X815422Y309504D03*
D39*
X930992Y310520D02*
X930992Y300400D01*
X930992Y310520D02*
X854792Y310520D01*
X816438Y310520D01*
X815422Y309504D01*
D38*
X966552Y231780D03*
D39*
X922102Y231780D02*
X922102Y246980D01*
D38*
X922102Y231780D03*
D39*
X842092Y388971D02*
X846055Y392934D01*
X842092Y388971D02*
X842092Y381600D01*
X846055Y392934D02*
X918292Y392934D01*
X951448Y392934D01*
X966552Y377830D01*
X966552Y231780D01*
X918292Y381600D02*
X918292Y392934D01*
X922102Y231780D02*
X845902Y231780D01*
X845902Y238130D02*
X827820Y238130D01*
X827820Y243298D01*
D36*
X806992Y259720D02*
X741020Y259720D01*
D37*
X740800Y259500D01*
D39*
X845902Y246980D02*
X845902Y238130D01*
X845902Y231780D01*
X811398Y259720D02*
X806992Y259720D01*
X811398Y259720D02*
X827820Y243298D01*
D37*
X685874Y399288D02*
X658752Y372166D01*
X731209Y399288D02*
X733140Y397357D01*
X733140Y378891D02*
X735603Y376428D01*
X758698Y376428D01*
X760596Y378326D01*
X760596Y388168D01*
X731209Y399288D02*
X685874Y399288D01*
X733140Y397357D02*
X733140Y378891D01*
X658800Y353500D02*
X658752Y353548D01*
X658752Y372166D01*
X654800Y372735D02*
X684571Y402506D01*
X738596Y398308D02*
X738596Y388168D01*
X738596Y398308D02*
X734398Y402506D01*
X684571Y402506D01*
X654800Y372735D02*
X654800Y353500D01*
X683098Y405554D02*
X697710Y405554D01*
X764878Y405554D01*
X771596Y398836D02*
X771596Y388168D01*
X771596Y398836D02*
X764878Y405554D01*
X650800Y373256D02*
X650800Y353500D01*
X650800Y373256D02*
X683098Y405554D01*
D38*
X655000Y336000D03*
D37*
X655000Y336305D01*
X646736Y353436D02*
X646800Y353500D01*
X646736Y353436D02*
X646736Y344569D01*
X655000Y336305D01*
D38*
X720000Y370000D03*
D37*
X716596Y373404D01*
X716596Y388168D01*
D36*
X578398Y177322D02*
X578356Y177280D01*
X578398Y177322D02*
X588907Y177322D01*
X642800Y260561D02*
X642800Y353500D01*
X642800Y260561D02*
X608810Y226571D01*
X608810Y221440D01*
D38*
X608810Y221440D03*
X589760Y184610D03*
D36*
X589760Y178175D01*
X588907Y177322D01*
D38*
X543408Y367284D03*
D37*
X617982Y423418D02*
X617982Y451612D01*
X603250Y466344D01*
X591625Y466344D01*
X642800Y398600D02*
X642800Y353500D01*
X642800Y398600D02*
X617982Y423418D01*
X591625Y466344D02*
X577596Y466344D01*
X543408Y432156D01*
X543408Y367284D01*
X542544Y431292D02*
X534280Y431292D01*
X542544Y431292D02*
X543408Y432156D01*
X350520Y441960D02*
X327660Y464820D01*
D40*
X350520Y441960D03*
D37*
X196580Y464820D02*
X184100Y477300D01*
X196580Y464820D02*
X327660Y464820D01*
D36*
X578398Y172322D02*
X578356Y172280D01*
X638800Y261590D02*
X638800Y353500D01*
X638800Y261590D02*
X605000Y227790D01*
X602738Y227790D01*
D38*
X602738Y227790D03*
X564360Y176482D03*
D36*
X567688Y172280D02*
X578356Y172280D01*
X567688Y172280D02*
X563486Y176482D01*
X564360Y176482D01*
D38*
X556260Y367284D03*
D37*
X614934Y422155D02*
X638800Y398289D01*
X614934Y444246D02*
X605536Y453644D01*
X591625Y453644D01*
X638800Y398289D02*
X638800Y353500D01*
X614934Y422155D02*
X614934Y444246D01*
X591625Y453644D02*
X569214Y453644D01*
X546608Y431038D01*
X546608Y400812D01*
X546608Y376936D01*
X556260Y367284D01*
X555380Y400812D02*
X546608Y400812D01*
X540064Y333653D02*
X546217Y327500D01*
X588800Y327500D01*
X461772Y436102D02*
X461772Y471088D01*
X405556Y527304D01*
X540064Y357810D02*
X540064Y333653D01*
X540064Y357810D02*
X461772Y436102D01*
X204216Y594000D02*
X197000Y594000D01*
X204216Y594000D02*
X210312Y587904D01*
X210312Y531876D01*
X214884Y527304D01*
X405556Y527304D01*
X537016Y355092D02*
X537016Y332391D01*
X545907Y323500D02*
X588800Y323500D01*
X545907Y323500D02*
X537016Y332391D01*
X537016Y355092D02*
X458724Y433384D01*
X458724Y469826D02*
X404294Y524256D01*
X458724Y469826D02*
X458724Y433384D01*
X197000Y528424D02*
X197000Y550000D01*
X197000Y528424D02*
X201168Y524256D01*
X404294Y524256D01*
X530920Y348996D02*
X530920Y329865D01*
X545285Y315500D02*
X588800Y315500D01*
X545285Y315500D02*
X530920Y329865D01*
X530920Y348996D02*
X452628Y427288D01*
X452628Y467301D02*
X401769Y518160D01*
X452628Y467301D02*
X452628Y427288D01*
X171600Y520296D02*
X171600Y550000D01*
X171600Y520296D02*
X173736Y518160D01*
X401769Y518160D01*
X527872Y328603D02*
X544023Y312452D01*
X527872Y328603D02*
X527872Y345948D01*
X571483Y307500D02*
X588800Y307500D01*
X571483Y307500D02*
X566531Y312452D01*
X544023Y312452D01*
X527872Y345948D02*
X449580Y424240D01*
X449580Y466038D02*
X400506Y515112D01*
X449580Y466038D02*
X449580Y424240D01*
X154000Y594000D02*
X146200Y594000D01*
X154000Y594000D02*
X158496Y589504D01*
X158496Y521208D02*
X164592Y515112D01*
X158496Y521208D02*
X158496Y589504D01*
X164592Y515112D02*
X400506Y515112D01*
D36*
X731252Y271500D02*
X740800Y271500D01*
X731252Y271500D02*
X727284Y275468D01*
D38*
X727284Y275468D03*
X924600Y42600D03*
D36*
X759731Y275500D02*
X740800Y275500D01*
X759731Y275500D02*
X762843Y278612D01*
D38*
X762843Y278612D03*
X924600Y93400D03*
D36*
X750048Y283500D02*
X740800Y283500D01*
X750048Y283500D02*
X753954Y287406D01*
D38*
X753954Y287406D03*
X950000Y93400D03*
D36*
X780532Y303500D02*
X740800Y303500D01*
D39*
X833202Y250830D02*
X833202Y246980D01*
X833202Y250830D02*
X780532Y303500D01*
D36*
X783383Y307500D02*
X740800Y307500D01*
D39*
X909402Y254600D02*
X909402Y246980D01*
X909402Y254600D02*
X906822Y257180D01*
X833703Y257180D01*
X783383Y307500D01*
D36*
X796082Y311500D02*
X810519Y325937D01*
X796082Y311500D02*
X740800Y311500D01*
D39*
X823640Y359665D02*
X825785Y361810D01*
X900512Y381600D02*
X905592Y381600D01*
X900512Y381600D02*
X880722Y361810D01*
X823640Y359665D02*
X823640Y339058D01*
X810519Y325937D01*
X825785Y361810D02*
X880722Y361810D01*
D36*
X803664Y325364D02*
X793773Y315473D01*
X740827Y315473D01*
D37*
X740800Y315500D01*
D39*
X824312Y381600D02*
X829392Y381600D01*
X824312Y381600D02*
X818978Y376266D01*
X818978Y340695D02*
X803687Y325404D01*
X818978Y340695D02*
X818978Y376266D01*
D36*
X518470Y227500D02*
X513150Y222180D01*
D38*
X513150Y222180D03*
D36*
X518470Y227500D02*
X588800Y227500D01*
D38*
X720089Y84581D03*
D36*
X720089Y92089D01*
X721400Y93400D01*
X526615Y223500D02*
X519223Y216107D01*
D38*
X519223Y216107D03*
D36*
X526615Y223500D02*
X588800Y223500D01*
D38*
X746760Y86038D03*
D36*
X746760Y93360D01*
X746800Y93400D01*
X534761Y219500D02*
X525295Y210035D01*
D38*
X525295Y210035D03*
D36*
X534761Y219500D02*
X588800Y219500D01*
D38*
X772200Y46000D03*
D36*
X542906Y215500D02*
X531368Y203962D01*
D38*
X531368Y203962D03*
D36*
X542906Y215500D02*
X588800Y215500D01*
D38*
X772200Y90000D03*
D36*
X642800Y201500D02*
X642800Y210516D01*
X630816Y222500D01*
X627500Y222500D01*
D38*
X627500Y222500D03*
X797600Y46000D03*
D36*
X646800Y201500D02*
X646800Y212173D01*
D38*
X627500Y231088D03*
D36*
X627885Y231088D02*
X646800Y212173D01*
X627885Y231088D02*
X627500Y231088D01*
D38*
X797600Y90000D03*
X675000Y187500D03*
D36*
X667244Y201056D02*
X666800Y201500D01*
X672208Y187500D02*
X675000Y187500D01*
X667244Y192464D02*
X667244Y201056D01*
X667244Y192464D02*
X672208Y187500D01*
D38*
X823000Y46000D03*
D36*
X670800Y201500D02*
X670800Y211872D01*
X681428Y222500D01*
D38*
X681428Y222500D03*
X823000Y90000D03*
D36*
X899640Y444714D02*
X899596Y444758D01*
X897556Y418797D02*
X886139Y407380D01*
X897556Y434560D02*
X899640Y436644D01*
X897556Y434560D02*
X897556Y418797D01*
X899640Y436644D02*
X899640Y444714D01*
D38*
X869160Y413452D03*
D36*
X871413Y413452D01*
X877485Y407380D01*
X886139Y407380D01*
D38*
X618112Y340444D03*
D36*
X612748Y342960D02*
X611260Y344448D01*
X611260Y353040D02*
X610800Y353500D01*
X611260Y353040D02*
X611260Y344448D01*
X612748Y342960D02*
X615596Y342960D01*
X618112Y340444D01*
D38*
X848400Y46000D03*
D36*
X893096Y419366D02*
X893096Y444758D01*
X893096Y419366D02*
X886940Y413210D01*
X880242Y413210D01*
X880000Y413452D01*
D38*
X880000Y413452D03*
X623772Y331650D03*
D36*
X607244Y353056D02*
X606800Y353500D01*
X621050Y334372D02*
X623772Y331650D01*
X621050Y334372D02*
X615597Y334372D01*
X607244Y342725D02*
X607244Y353056D01*
X607244Y342725D02*
X615597Y334372D01*
D38*
X848400Y90000D03*
D36*
X588800Y251500D02*
X576640Y251500D01*
X571472Y246332D01*
X555216Y246332D01*
D37*
X533592Y246332D01*
X509584Y270340D01*
X509584Y327660D01*
X431292Y405952D01*
X431292Y458463D02*
X392931Y496824D01*
X431292Y458463D02*
X431292Y405952D01*
X70000Y519527D02*
X70000Y546600D01*
X70000Y519527D02*
X92703Y496824D01*
X392931Y496824D01*
D36*
X577720Y247500D02*
X588800Y247500D01*
X572996Y242776D02*
X559026Y242776D01*
X572996Y242776D02*
X577720Y247500D01*
D37*
X506536Y269078D02*
X506536Y324612D01*
X532838Y242776D02*
X559026Y242776D01*
X532838Y242776D02*
X506536Y269078D01*
X506536Y324612D02*
X428244Y402904D01*
X428244Y457200D01*
X391668Y493776D01*
X385572Y493776D01*
X382524Y493776D01*
X91440Y493776D01*
X51816Y533400D01*
X51816Y589788D01*
X59436Y597408D01*
X69992Y597408D01*
X70000Y597400D01*
D38*
X829392Y288930D03*
D39*
X829392Y300400D01*
X896742Y300400D02*
X905592Y300400D01*
X896742Y300400D02*
X896702Y300360D01*
D38*
X896702Y300360D03*
D39*
X833202Y177170D02*
X833202Y165780D01*
D38*
X833202Y177170D03*
D39*
X909402Y177170D02*
X909402Y165780D01*
D38*
X909402Y177170D03*
D39*
X592030Y157280D02*
X578356Y157280D01*
X592030Y157280D02*
X592190Y157120D01*
D38*
X592190Y157120D03*
D39*
X470000Y200000D02*
X458500Y200000D01*
D38*
X470000Y200000D03*
D36*
X575924Y339500D02*
X588800Y339500D01*
X575670Y339500D02*
X575646Y339476D01*
D38*
X575646Y339476D03*
D36*
X574998Y299500D02*
X588800Y299500D01*
X574998Y299500D02*
X573900Y300598D01*
D38*
X573900Y300598D03*
D36*
X622800Y353500D02*
X622800Y366564D01*
X622890Y366654D01*
D38*
X622890Y366654D03*
D36*
X670800Y366812D02*
X670800Y353500D01*
X670800Y366812D02*
X670896Y366908D01*
D38*
X670896Y366908D03*
X734236Y353860D03*
D36*
X740800Y299500D02*
X751784Y299500D01*
X753856Y297428D01*
D38*
X753856Y297428D03*
D36*
X753954Y267594D02*
X753860Y267500D01*
X740800Y267500D01*
D38*
X753954Y267594D03*
D36*
X740774Y231526D02*
X740800Y231500D01*
X740774Y231526D02*
X726522Y231526D01*
X724236Y229240D01*
D38*
X724236Y229240D03*
D36*
X726800Y201500D02*
X726800Y188370D01*
X726776Y188346D01*
D38*
X726776Y188346D03*
D36*
X702800Y188500D02*
X702800Y201500D01*
X702800Y188500D02*
X702646Y188346D01*
D38*
X702646Y188346D03*
D36*
X658800Y188504D02*
X658800Y201500D01*
X658800Y188504D02*
X658958Y188346D01*
D38*
X658958Y188346D03*
D36*
X622800Y188436D02*
X622800Y201500D01*
X622800Y188436D02*
X622890Y188346D01*
D38*
X622890Y188346D03*
D36*
X588800Y259500D02*
X575680Y259500D01*
X575646Y259466D01*
D38*
X575646Y259466D03*
D36*
X579680Y255500D02*
X588800Y255500D01*
X579680Y255500D02*
X575680Y259500D01*
D39*
X766654Y219210D02*
X766654Y204856D01*
X775798Y195712D01*
X783164Y195712D01*
D38*
X783164Y195712D03*
D39*
X565600Y339500D02*
X565100Y340000D01*
X565600Y339500D02*
X575670Y339500D01*
X575924Y339500D01*
X562052Y303048D02*
X562454Y302646D01*
X571852Y302646D01*
X573900Y300598D01*
X570916Y259466D02*
X567132Y255682D01*
X560020Y255682D01*
X570916Y259466D02*
X575646Y259466D01*
X631704Y188436D02*
X643790Y176350D01*
X631704Y188436D02*
X622800Y188436D01*
X655786Y188346D02*
X658958Y188346D01*
X655786Y188346D02*
X643790Y176350D01*
X702646Y177212D02*
X702646Y188346D01*
X702646Y177212D02*
X703302Y176556D01*
X726776Y176956D02*
X726776Y188346D01*
X726776Y176956D02*
X726170Y176350D01*
X743176Y351296D02*
X745850Y353970D01*
D36*
X681250Y370000D02*
X673988Y370000D01*
X670896Y366908D01*
D41*
X825500Y146030D02*
X836170Y146030D01*
X825500Y146030D02*
X825472Y146002D01*
D38*
X825472Y146002D03*
D41*
X901700Y146030D02*
X912360Y146030D01*
X901700Y146030D02*
X900910Y145240D01*
D38*
X900910Y145240D03*
D41*
X841250Y276190D02*
X829392Y288048D01*
X829392Y288930D01*
X904880Y279860D02*
X904900Y279840D01*
X904880Y279860D02*
X894560Y279860D01*
D38*
X894560Y279860D03*
D41*
X761250Y328000D02*
X761210Y328040D01*
X761210Y339550D01*
D38*
X761210Y339550D03*
D36*
X575790Y259610D02*
X575646Y259466D01*
X621930Y367434D02*
X621930Y377840D01*
X621930Y367434D02*
X622800Y366564D01*
X734346Y353970D02*
X745850Y353970D01*
X734346Y353970D02*
X734236Y353860D01*
X727160Y353860D01*
X726800Y353500D01*
X565354Y205428D02*
X565354Y192506D01*
X565630Y192230D01*
D38*
X565630Y192230D03*
D36*
X580000Y267500D02*
X588800Y267500D01*
X580000Y267500D02*
X561442Y267500D01*
X559700Y269242D01*
D37*
X765956Y267500D02*
X766264Y267808D01*
X765956Y267500D02*
X753860Y267500D01*
X644946Y467967D02*
X644946Y475488D01*
X644946Y467967D02*
X643323Y466344D01*
X644946Y475488D02*
X644946Y486398D01*
D38*
X644946Y475488D03*
D37*
X517280Y415720D02*
X517280Y400812D01*
X517280Y415720D02*
X517000Y416000D01*
D38*
X517000Y416000D03*
D37*
X572380Y400812D02*
X583692Y400812D01*
D38*
X583692Y400812D03*
D37*
X517280Y416280D02*
X517280Y431292D01*
X517280Y416280D02*
X517000Y416000D01*
D42*
X279304Y603504D02*
X273200Y597400D01*
X279304Y603504D02*
X284988Y603504D01*
D40*
X284988Y603504D03*
D37*
X575646Y263146D02*
X575646Y259466D01*
X575646Y263146D02*
X580000Y267500D01*
D39*
X943692Y367670D02*
X943692Y381600D01*
D38*
X943692Y367670D03*
D39*
X867492Y368386D02*
X867492Y381600D01*
D38*
X867492Y368386D03*
D39*
X871302Y246980D02*
X879136Y246980D01*
X879176Y247020D01*
D38*
X879176Y247020D03*
D39*
X946231Y276231D02*
X947502Y274960D01*
X946231Y276231D02*
X943692Y278770D01*
X947502Y274960D02*
X947502Y246980D01*
D38*
X943692Y278770D03*
D39*
X621264Y177280D02*
X608860Y177280D01*
X608700Y177440D01*
D38*
X608700Y177440D03*
D39*
X490000Y330000D02*
X460000Y330000D01*
D38*
X490000Y330000D03*
D36*
X588800Y303500D02*
X601970Y303500D01*
X602062Y303408D01*
D38*
X602062Y303408D03*
D36*
X626800Y340338D02*
X626800Y353500D01*
X626800Y340338D02*
X626700Y340238D01*
D38*
X626700Y340238D03*
D36*
X674800Y342832D02*
X674800Y353500D01*
X674800Y342832D02*
X672206Y340238D01*
D38*
X672206Y340238D03*
D36*
X727308Y339500D02*
X740800Y339500D01*
X727308Y339500D02*
X727284Y339476D01*
D38*
X727284Y339476D03*
D36*
X727318Y295500D02*
X740800Y295500D01*
X727318Y295500D02*
X727284Y295534D01*
D38*
X727284Y295534D03*
D36*
X727314Y263500D02*
X740800Y263500D01*
X727314Y263500D02*
X727284Y263530D01*
D38*
X727284Y263530D03*
D36*
X717976Y235500D02*
X740800Y235500D01*
X717976Y235500D02*
X717886Y235590D01*
D38*
X717886Y235590D03*
D36*
X722800Y214928D02*
X722800Y201500D01*
X722800Y214928D02*
X722712Y215016D01*
D38*
X722712Y215016D03*
D36*
X698800Y214980D02*
X698800Y201500D01*
X698800Y214980D02*
X698836Y215016D01*
D38*
X698836Y215016D03*
D36*
X654800Y214856D02*
X654800Y201500D01*
X654800Y214856D02*
X654640Y215016D01*
D38*
X654640Y215016D03*
D36*
X618800Y214990D02*
X618800Y201500D01*
X618800Y214990D02*
X618826Y215016D01*
D38*
X618826Y215016D03*
D36*
X602032Y263500D02*
X588800Y263500D01*
X602032Y263500D02*
X602062Y263530D01*
D38*
X602062Y263530D03*
D39*
X804754Y169042D02*
X804754Y152910D01*
D38*
X804754Y169042D03*
D41*
X853670Y146030D02*
X863290Y146030D01*
X864080Y145240D01*
D38*
X864080Y145240D03*
D41*
X929860Y146030D02*
X939490Y146030D01*
X940280Y145240D01*
D38*
X940280Y145240D03*
D41*
X858750Y276190D02*
X859000Y276440D01*
X859000Y287480D01*
D38*
X859000Y287480D03*
D41*
X922400Y279840D02*
X942622Y279840D01*
X946231Y276231D01*
D38*
X778990Y339550D03*
D41*
X778990Y328240D02*
X778750Y328000D01*
X778990Y328240D02*
X778990Y339550D01*
X662446Y475990D02*
X662446Y486398D01*
X662446Y475990D02*
X661896Y475440D01*
D38*
X661896Y475440D03*
D41*
X743670Y187136D02*
X743670Y176350D01*
X743670Y187136D02*
X743684Y187150D01*
D38*
X743684Y187150D03*
D41*
X672940Y176350D02*
X661290Y176350D01*
X671514Y176556D02*
X672080Y175990D01*
D38*
X672080Y175990D03*
D41*
X673146Y176556D02*
X685802Y176556D01*
X673146Y176556D02*
X671514Y176556D01*
X672940Y176350D02*
X673146Y176556D01*
D36*
X763350Y353970D02*
X763350Y364080D01*
X762480Y364950D01*
D38*
X762480Y364950D03*
D36*
X698780Y370030D02*
X698750Y370000D01*
X698780Y370030D02*
X709140Y370030D01*
D38*
X709140Y370030D03*
D36*
X547600Y350730D02*
X547600Y340000D01*
X547600Y350730D02*
X547850Y350980D01*
D38*
X547850Y350980D03*
D36*
X544552Y303048D02*
X536306Y303048D01*
X533278Y300020D01*
D38*
X533278Y300020D03*
D36*
X532470Y255682D02*
X542520Y255682D01*
X532470Y255682D02*
X532008Y256144D01*
D38*
X532008Y256144D03*
D36*
X547854Y192234D02*
X547850Y192230D01*
X547854Y192234D02*
X547854Y205428D01*
D38*
X547850Y192230D03*
D43*
X861826Y444758D02*
X880096Y444758D01*
X861826Y444758D02*
X856742Y439674D01*
D38*
X856742Y439674D03*
D37*
X591625Y440944D02*
X580390Y440944D01*
X574294Y434848D01*
D38*
X574294Y434848D03*
D37*
X580898Y428244D02*
X591625Y428244D01*
X580898Y428244D02*
X574294Y434848D01*
X643323Y440944D02*
X663956Y440944D01*
D38*
X663956Y440944D03*
D37*
X657098Y428244D02*
X643323Y428244D01*
X657098Y428244D02*
X663956Y435102D01*
X663956Y440944D01*
X657352Y453644D02*
X643323Y453644D01*
X657352Y453644D02*
X663956Y447040D01*
X663956Y440944D01*
X604430Y377840D02*
X591454Y377840D01*
X589788Y376174D01*
D38*
X589788Y376174D03*
D37*
X542200Y269242D02*
X532132Y269242D01*
X531876Y268986D01*
D38*
X531876Y268986D03*
D37*
X783764Y267808D02*
X794674Y267808D01*
X794766Y267716D01*
D38*
X794766Y267716D03*
D37*
X169940Y143750D02*
X131500Y143750D01*
X169940Y143750D02*
X170180Y143510D01*
D38*
X170180Y143510D03*
D37*
X169940Y143750D02*
X208500Y143750D01*
X231500Y143750D02*
X270524Y143750D01*
X270764Y143510D01*
D38*
X270764Y143510D03*
D37*
X270524Y143750D02*
X308500Y143750D01*
X331500Y143750D02*
X363714Y143750D01*
X363728Y143764D01*
D38*
X363728Y143764D03*
D42*
X311000Y597400D02*
X298600Y597400D01*
D40*
X311000Y597400D03*
D37*
X591888Y353500D02*
X602800Y353500D01*
X591888Y353500D02*
X591820Y353568D01*
D38*
X591820Y353568D03*
D37*
X108500Y143750D02*
X76250Y143750D01*
X76000Y144000D01*
D38*
X76000Y144000D03*
D39*
X489320Y161770D02*
X489870Y161220D01*
X489320Y161770D02*
X489320Y199180D01*
X460000Y228500D01*
D41*
X594916Y150540D02*
X598770Y154394D01*
X598770Y158204D01*
X561226Y161770D02*
X489320Y161770D01*
X572456Y150540D02*
X594916Y150540D01*
X572456Y150540D02*
X561226Y161770D01*
X598770Y158204D02*
X607846Y167280D01*
X621264Y167280D01*
D39*
X445320Y161770D02*
X441500Y165590D01*
X441500Y200000D01*
D44*
X950000Y51567D02*
X950000Y42600D01*
X950000Y51567D02*
X974148Y75715D01*
X974148Y390203D01*
X923661Y440690D01*
D43*
X908128Y442726D02*
X906096Y444758D01*
X908128Y442726D02*
X923036Y442726D01*
X923153Y441198D02*
X923661Y440690D01*
X923153Y441198D02*
X908558Y441198D01*
D37*
X588800Y295500D02*
X577030Y295500D01*
X530868Y294202D02*
X524824Y300246D01*
X524824Y342900D01*
X575732Y294202D02*
X577030Y295500D01*
X575732Y294202D02*
X530868Y294202D01*
X524824Y342900D02*
X446532Y421192D01*
X446532Y464775D02*
X399243Y512064D01*
X446532Y464775D02*
X446532Y421192D01*
X146200Y522836D02*
X146200Y550000D01*
X146200Y522836D02*
X156972Y512064D01*
X399243Y512064D01*
X577341Y291500D02*
X588800Y291500D01*
X577341Y291500D02*
X576995Y291154D01*
X529606Y291154D01*
X521776Y298984D01*
X521776Y339852D01*
X443484Y418144D01*
X443484Y463513D02*
X397981Y509016D01*
X443484Y463513D02*
X443484Y418144D01*
X121964Y592836D02*
X120800Y594000D01*
X121964Y592836D02*
X128016Y592836D01*
X133588Y587264D01*
X133588Y517160D01*
X141732Y509016D01*
X397981Y509016D01*
X518728Y336804D02*
X518728Y297721D01*
X528949Y287500D02*
X588800Y287500D01*
X528949Y287500D02*
X518728Y297721D01*
X518728Y336804D02*
X440436Y415096D01*
X440436Y462250D02*
X396718Y505968D01*
X440436Y462250D02*
X440436Y415096D01*
X128016Y505968D02*
X120396Y513588D01*
X120396Y549596D01*
X120800Y550000D01*
X128016Y505968D02*
X396718Y505968D01*
X515680Y333756D02*
X515680Y296458D01*
X528638Y283500D02*
X588800Y283500D01*
X528638Y283500D02*
X515680Y296458D01*
X515680Y333756D02*
X437388Y412048D01*
X437388Y460988D02*
X395456Y502920D01*
X437388Y460988D02*
X437388Y412048D01*
X114300Y502920D02*
X107084Y510136D01*
X107084Y593336D02*
X103020Y597400D01*
X95400Y597400D01*
X114300Y502920D02*
X395456Y502920D01*
X107084Y510136D02*
X107084Y593336D01*
X512632Y330708D02*
X512632Y295196D01*
X528328Y279500D02*
X588800Y279500D01*
X528328Y279500D02*
X512632Y295196D01*
X512632Y330708D02*
X434340Y409000D01*
X434340Y459725D02*
X394193Y499872D01*
X434340Y459725D02*
X434340Y409000D01*
X95400Y506580D02*
X95400Y546600D01*
X102108Y499872D02*
X394193Y499872D01*
X102108Y499872D02*
X95400Y506580D01*
D36*
X501005Y234325D02*
X502179Y235500D01*
D38*
X501005Y234325D03*
D36*
X502179Y235500D02*
X588800Y235500D01*
D38*
X746800Y42600D03*
D36*
X510325Y231500D02*
X507077Y228253D01*
D38*
X507077Y228253D03*
D36*
X510325Y231500D02*
X588800Y231500D01*
D38*
X721400Y42600D03*
D37*
X533968Y331128D02*
X533968Y352044D01*
X545596Y319500D02*
X588800Y319500D01*
X545596Y319500D02*
X533968Y331128D01*
X533968Y352044D02*
X455676Y430336D01*
X455676Y468563D02*
X403031Y521208D01*
X455676Y468563D02*
X455676Y430336D01*
X178308Y594000D02*
X171600Y594000D01*
X178308Y594000D02*
X184404Y587904D01*
X184404Y530352D01*
X193548Y521208D01*
X403031Y521208D01*
X630102Y354198D02*
X630800Y353500D01*
X583758Y385526D02*
X556372Y358140D01*
X583758Y385526D02*
X628127Y385526D01*
X630102Y383551D02*
X630102Y354198D01*
X630102Y383551D02*
X628127Y385526D01*
D38*
X556372Y358140D03*
X120000Y148054D03*
D37*
X120000Y145034D01*
X618086Y354214D02*
X618800Y353500D01*
X618086Y354214D02*
X618086Y362757D01*
X613559Y367284D01*
D38*
X565460Y358140D03*
D37*
X565460Y359459D02*
X573285Y367284D01*
X565460Y359459D02*
X565460Y358140D01*
X573285Y367284D02*
X613559Y367284D01*
D38*
X220000Y147942D03*
D37*
X220000Y144922D01*
X614562Y353738D02*
X614800Y353500D01*
X614562Y353738D02*
X614562Y361971D01*
X612297Y364236D01*
X574548Y364236D01*
X574548Y358140D01*
D38*
X574548Y358140D03*
X320000Y147942D03*
D37*
X320000Y144922D01*
X621264Y157280D02*
X628796Y157280D01*
X647700Y138376D01*
X646604Y162280D02*
X647700Y163376D01*
X646604Y162280D02*
X621264Y162280D01*
X609320Y271500D02*
X588800Y271500D01*
X609320Y271500D02*
X614172Y276352D01*
D38*
X614172Y276352D03*
X537340Y374904D03*
D37*
X537340Y397752D02*
X534280Y400812D01*
X537340Y397752D02*
X537340Y374904D01*
D38*
X222400Y550000D03*
M02*
