G04 EAGLE Gerber RS-274X export*
G75*
%MOMM*%
%FSLAX34Y34*%
%LPD*%
%INBottom Copper*%
%IPPOS*%
%AMOC8*
5,1,8,0,0,1.08239X$1,22.5*%
G01*
%ADD10P,2.061953X8X202.500000*%
%ADD11C,0.706400*%
%ADD12C,0.152400*%
%ADD13C,0.203200*%
%ADD14C,0.254000*%
%ADD15C,0.756400*%
%ADD16C,0.152400*%


D10*
X260300Y477300D03*
X234900Y477300D03*
X209500Y477300D03*
X184100Y477300D03*
D11*
X740492Y205110D03*
D12*
X742778Y202824D02*
X804754Y202824D01*
X742778Y202824D02*
X740492Y205110D01*
D11*
X804754Y202824D03*
X725000Y330000D03*
D13*
X725000Y301837D01*
X718672Y295509D01*
X718672Y258983D01*
X723925Y253730D02*
X770508Y253730D01*
X876230Y148008D01*
X876230Y136484D01*
X900000Y112714D01*
X900000Y90000D01*
X899200Y90000D01*
D11*
X899200Y90000D03*
D13*
X723925Y253730D02*
X718672Y258983D01*
D11*
X715000Y322500D03*
D13*
X715000Y257500D02*
X722500Y250000D01*
X768959Y250000D02*
X872500Y146459D01*
X893088Y52112D02*
X899200Y46000D01*
D11*
X899200Y46000D03*
D13*
X715000Y257500D02*
X715000Y322500D01*
X722500Y250000D02*
X768959Y250000D01*
X872500Y146459D02*
X872500Y135000D01*
X893088Y114412D01*
X893088Y52112D01*
D11*
X700000Y325000D03*
D13*
X716738Y211387D02*
X716738Y174936D01*
X708682Y219443D02*
X708682Y316318D01*
X708682Y219443D02*
X716738Y211387D01*
X716738Y174936D02*
X762960Y128714D01*
X835086Y128714D02*
X873800Y90000D01*
D11*
X873800Y90000D03*
D13*
X708682Y316318D02*
X700000Y325000D01*
X762960Y128714D02*
X835086Y128714D01*
D11*
X691412Y327500D03*
D13*
X691412Y325000D01*
X691428Y324984D01*
X691428Y324985D01*
X705000Y311413D01*
X705000Y218000D02*
X713000Y210000D01*
X713000Y173500D01*
X761532Y124968D01*
X833556Y124968D01*
X867594Y90930D01*
X867594Y52206D01*
X873800Y46000D01*
D11*
X873800Y46000D03*
D13*
X705000Y218000D02*
X705000Y311413D01*
D11*
X815422Y244480D03*
D14*
X815422Y309504D01*
D11*
X815422Y309504D03*
D14*
X922102Y231780D02*
X966552Y231780D01*
D11*
X966552Y231780D03*
X922102Y231780D03*
X655000Y336000D03*
D12*
X679000Y360000D01*
X710000Y360000D02*
X720000Y370000D01*
D11*
X720000Y370000D03*
D12*
X710000Y360000D02*
X679000Y360000D01*
D11*
X608810Y221440D03*
D13*
X589760Y202390D01*
X589760Y184610D01*
D11*
X589760Y184610D03*
X543408Y367284D03*
D15*
X350520Y441960D03*
D12*
X355092Y437388D01*
X355092Y429507D01*
X481323Y303276D02*
X494037Y303276D01*
X538984Y348223D02*
X538984Y354653D01*
X543408Y359076D02*
X543408Y367284D01*
X543408Y359076D02*
X538984Y354653D01*
X481323Y303276D02*
X355092Y429507D01*
X494037Y303276D02*
X538984Y348223D01*
D11*
X602738Y227790D03*
X564360Y176482D03*
D13*
X581702Y206754D02*
X602738Y227790D01*
X564360Y179833D02*
X564360Y176482D01*
X581702Y197175D02*
X581702Y206754D01*
X581702Y197175D02*
X564360Y179833D01*
D11*
X556260Y367284D03*
D12*
X210577Y477300D02*
X209500Y477300D01*
X210577Y477300D02*
X222388Y489111D01*
X291177Y489111D01*
X480060Y300228D01*
X495300Y300228D01*
X542032Y346960D01*
X542032Y353390D01*
X555926Y367284D01*
X556260Y367284D01*
D11*
X727284Y275468D03*
D13*
X754762Y275468D01*
X879960Y150270D01*
X879960Y137968D01*
X918088Y99840D01*
X918088Y44412D01*
X920000Y42500D01*
X925000Y42500D01*
D12*
X924900Y42600D01*
X924600Y42600D01*
D11*
X924600Y42600D03*
X762843Y278612D03*
D13*
X762843Y275612D01*
X883690Y154765D01*
X925000Y98142D02*
X925000Y92500D01*
D12*
X924600Y92900D01*
X924600Y93400D01*
D11*
X924600Y93400D03*
D13*
X883690Y139452D02*
X883690Y154765D01*
X883690Y139452D02*
X925000Y98142D01*
D11*
X753954Y287406D03*
D13*
X763690Y287406D01*
X887420Y163676D02*
X887420Y140936D01*
X887420Y163676D02*
X763690Y287406D01*
X934956Y93400D02*
X950000Y93400D01*
X934956Y93400D02*
X887420Y140936D01*
D12*
X950000Y93400D02*
X950000Y92500D01*
D11*
X950000Y93400D03*
X513150Y222180D03*
D13*
X513150Y202267D01*
X630073Y85344D02*
X720089Y85344D01*
X720089Y84581D01*
D11*
X720089Y84581D03*
D13*
X630073Y85344D02*
X513150Y202267D01*
D11*
X519223Y216107D03*
D13*
X519223Y201223D01*
D11*
X746760Y86038D03*
D13*
X729782Y87792D02*
X714958Y102616D01*
X745006Y87792D02*
X746760Y86038D01*
X745006Y87792D02*
X729782Y87792D01*
X617830Y102616D02*
X519223Y201223D01*
X617830Y102616D02*
X714958Y102616D01*
D11*
X525295Y210035D03*
D13*
X525295Y200180D01*
X716431Y106172D02*
X730239Y92364D01*
X761076Y92364D01*
X772200Y81240D02*
X772200Y46000D01*
D11*
X772200Y46000D03*
D13*
X619303Y106172D02*
X525295Y200180D01*
X619303Y106172D02*
X716431Y106172D01*
X761076Y92364D02*
X772200Y81240D01*
D11*
X531368Y203962D03*
D13*
X531368Y199136D01*
D11*
X772200Y90000D03*
D13*
X731966Y95920D02*
X718158Y109728D01*
X766280Y95920D02*
X772200Y90000D01*
X766280Y95920D02*
X731966Y95920D01*
X620776Y109728D02*
X531368Y199136D01*
X620776Y109728D02*
X718158Y109728D01*
D11*
X627500Y222500D03*
D13*
X647500Y202500D01*
X647500Y185415D02*
X731915Y101000D01*
X777778Y101000D01*
X647500Y185415D02*
X647500Y202500D01*
X777778Y101000D02*
X797600Y81178D01*
X797600Y46000D01*
D11*
X797600Y46000D03*
X627500Y231088D03*
D13*
X651500Y207088D01*
X651500Y186564D01*
X733064Y105000D01*
X782600Y105000D02*
X797600Y90000D01*
D11*
X797600Y90000D03*
D13*
X782600Y105000D02*
X733064Y105000D01*
D11*
X675000Y187500D03*
D13*
X678128Y187500D01*
X755628Y110000D01*
X823000Y81278D02*
X823000Y46000D01*
D11*
X823000Y46000D03*
D13*
X794278Y110000D02*
X755628Y110000D01*
X794278Y110000D02*
X823000Y81278D01*
D11*
X681428Y222500D03*
D13*
X681428Y189414D01*
X757096Y113746D02*
X810826Y113746D01*
X757096Y113746D02*
X681428Y189414D01*
X810826Y113746D02*
X823000Y101572D01*
X823000Y90000D01*
D11*
X823000Y90000D03*
X869160Y413452D03*
X618112Y340444D03*
D13*
X859160Y423452D02*
X869160Y413452D01*
X859160Y423452D02*
X691327Y423452D01*
X618112Y350237D02*
X618112Y340444D01*
X618112Y350237D02*
X691327Y423452D01*
X618112Y340444D02*
X618112Y334577D01*
X617700Y334165D01*
X617700Y324581D01*
X687500Y188541D02*
X758515Y117526D01*
X812270Y117526D01*
X687500Y254781D02*
X617700Y324581D01*
X687500Y254781D02*
X687500Y188541D01*
X812270Y117526D02*
X848400Y81396D01*
X848400Y46000D01*
D11*
X848400Y46000D03*
X880000Y413452D03*
D13*
X873010Y406462D01*
X866990Y406462D01*
X854000Y419452D01*
X692356Y419452D01*
D11*
X623772Y331650D03*
D13*
X629215Y334166D02*
X632772Y337723D01*
X632772Y359868D01*
X629215Y334166D02*
X626288Y334166D01*
X623772Y331650D01*
X632772Y359868D02*
X692356Y419452D01*
X623772Y331650D02*
X623772Y326228D01*
X692764Y257236D01*
X692764Y188456D01*
X759998Y121222D01*
X817178Y121222D02*
X848400Y90000D01*
D11*
X848400Y90000D03*
D13*
X817178Y121222D02*
X759998Y121222D01*
D11*
X829392Y288930D03*
X896702Y300360D03*
X833202Y177170D03*
X909402Y177170D03*
X592190Y157120D03*
X470000Y200000D03*
X575646Y339476D03*
X573900Y300598D03*
X622890Y366654D03*
X670896Y366908D03*
X734236Y353860D03*
X753856Y297428D03*
X753954Y267594D03*
X724236Y229240D03*
X726776Y188346D03*
X702646Y188346D03*
X658958Y188346D03*
X622890Y188346D03*
X575646Y259466D03*
X783164Y195712D03*
X825472Y146002D03*
X900910Y145240D03*
X894560Y279860D03*
X761210Y339550D03*
X565630Y192230D03*
X644946Y475488D03*
X517000Y416000D03*
X583692Y400812D03*
D15*
X284988Y603504D03*
D11*
X943692Y367670D03*
X867492Y368386D03*
X879176Y247020D03*
X943692Y278770D03*
X608700Y177440D03*
X490000Y330000D03*
X602062Y303408D03*
X626700Y340238D03*
X672206Y340238D03*
X727284Y339476D03*
X727284Y295534D03*
X727284Y263530D03*
X717886Y235590D03*
X722712Y215016D03*
X698836Y215016D03*
X654640Y215016D03*
X618826Y215016D03*
X602062Y263530D03*
X804754Y169042D03*
X864080Y145240D03*
X940280Y145240D03*
X859000Y287480D03*
X778990Y339550D03*
X661896Y475440D03*
X743684Y187150D03*
X672080Y175990D03*
X762480Y364950D03*
X709140Y370030D03*
X547850Y350980D03*
X533278Y300020D03*
X532008Y256144D03*
X547850Y192230D03*
X856742Y439674D03*
X574294Y434848D03*
X663956Y440944D03*
X589788Y376174D03*
X531876Y268986D03*
X794766Y267716D03*
X170180Y143510D03*
X270764Y143510D03*
X363728Y143764D03*
D15*
X311000Y597400D03*
D11*
X591820Y353568D03*
X76000Y144000D03*
X501005Y234325D03*
D13*
X501005Y204354D01*
X746800Y43054D02*
X746800Y42600D01*
D11*
X746800Y42600D03*
D13*
X670355Y35004D02*
X501005Y204354D01*
X670355Y35004D02*
X738750Y35004D01*
X746800Y43054D01*
D11*
X507077Y228253D03*
D13*
X507077Y203311D01*
D11*
X721400Y42600D03*
D13*
X717574Y38774D01*
X671614Y38774D01*
X507077Y203311D01*
D11*
X556372Y358140D03*
D12*
X556372Y339964D01*
X377952Y161544D01*
X133490Y161544D02*
X120000Y148054D01*
D11*
X120000Y148054D03*
D12*
X133490Y161544D02*
X377952Y161544D01*
D11*
X565460Y358140D03*
D12*
X565460Y344741D01*
X379215Y158496D01*
X230554Y158496D02*
X220000Y147942D01*
D11*
X220000Y147942D03*
D12*
X230554Y158496D02*
X379215Y158496D01*
D11*
X574548Y358140D03*
D12*
X574548Y349519D01*
X380477Y155448D02*
X338328Y155448D01*
X336804Y155448D01*
X380477Y155448D02*
X574548Y349519D01*
D16*
X338328Y155448D03*
D12*
X326136Y155448D01*
X326136Y155448D01*
X320000Y149312D01*
X320000Y147942D01*
D11*
X320000Y147942D03*
X614172Y276352D03*
D12*
X583946Y306578D01*
X583946Y359410D01*
X568452Y374904D01*
X537340Y374904D01*
D11*
X537340Y374904D03*
D12*
X455676Y374904D01*
X428244Y402336D01*
X428244Y457200D01*
X391668Y493776D01*
X248412Y493776D01*
X222400Y519788D01*
X222400Y550000D01*
D11*
X222400Y550000D03*
M02*
