G04 EAGLE Gerber RS-274X export*
G75*
%MOMM*%
%FSLAX34Y34*%
%LPD*%
%IN*%
%IPPOS*%
%AMOC8*
5,1,8,0,0,1.08239X$1,22.5*%
G01*
%ADD10C,0.254000*%


D10*
X30000Y145000D02*
X30095Y142821D01*
X30380Y140659D01*
X30852Y138530D01*
X31508Y136450D01*
X32342Y134435D01*
X33349Y132500D01*
X34521Y130661D01*
X35849Y128930D01*
X37322Y127322D01*
X38930Y125849D01*
X40661Y124521D01*
X42500Y123349D01*
X44435Y122342D01*
X46450Y121508D01*
X48530Y120852D01*
X50659Y120380D01*
X52821Y120095D01*
X55000Y120000D01*
X100584Y120000D01*
X100584Y129112D01*
X100603Y129548D01*
X100660Y129980D01*
X100754Y130406D01*
X100886Y130822D01*
X101052Y131225D01*
X101254Y131612D01*
X101488Y131980D01*
X101754Y132326D01*
X102048Y132648D01*
X102370Y132942D01*
X102716Y133208D01*
X103084Y133442D01*
X103471Y133644D01*
X103874Y133810D01*
X104290Y133942D01*
X104716Y134036D01*
X105148Y134093D01*
X105584Y134112D01*
X134000Y134112D01*
X134436Y134093D01*
X134868Y134036D01*
X135294Y133942D01*
X135710Y133810D01*
X136113Y133644D01*
X136500Y133442D01*
X136868Y133208D01*
X137214Y132942D01*
X137536Y132648D01*
X137830Y132326D01*
X138096Y131980D01*
X138330Y131612D01*
X138532Y131225D01*
X138698Y130822D01*
X138830Y130406D01*
X138924Y129980D01*
X138981Y129548D01*
X139000Y129112D01*
X139000Y120000D01*
X201000Y120000D01*
X201000Y129000D01*
X201019Y129436D01*
X201076Y129868D01*
X201170Y130294D01*
X201302Y130710D01*
X201468Y131113D01*
X201670Y131500D01*
X201904Y131868D01*
X202170Y132214D01*
X202464Y132536D01*
X202786Y132830D01*
X203132Y133096D01*
X203500Y133330D01*
X203887Y133532D01*
X204290Y133698D01*
X204706Y133830D01*
X205132Y133924D01*
X205564Y133981D01*
X206000Y134000D01*
X234000Y134000D01*
X234436Y133981D01*
X234868Y133924D01*
X235294Y133830D01*
X235710Y133698D01*
X236113Y133532D01*
X236500Y133330D01*
X236868Y133096D01*
X237214Y132830D01*
X237536Y132536D01*
X237830Y132214D01*
X238096Y131868D01*
X238330Y131500D01*
X238532Y131113D01*
X238698Y130710D01*
X238830Y130294D01*
X238924Y129868D01*
X238981Y129436D01*
X239000Y129000D01*
X239000Y120000D01*
X301000Y120000D01*
X301000Y129000D01*
X301019Y129436D01*
X301076Y129868D01*
X301170Y130294D01*
X301302Y130710D01*
X301468Y131113D01*
X301670Y131500D01*
X301904Y131868D01*
X302170Y132214D01*
X302464Y132536D01*
X302786Y132830D01*
X303132Y133096D01*
X303500Y133330D01*
X303887Y133532D01*
X304290Y133698D01*
X304706Y133830D01*
X305132Y133924D01*
X305564Y133981D01*
X306000Y134000D01*
X334000Y134000D01*
X334436Y133981D01*
X334868Y133924D01*
X335294Y133830D01*
X335710Y133698D01*
X336113Y133532D01*
X336500Y133330D01*
X336868Y133096D01*
X337214Y132830D01*
X337536Y132536D01*
X337830Y132214D01*
X338096Y131868D01*
X338330Y131500D01*
X338532Y131113D01*
X338698Y130710D01*
X338830Y130294D01*
X338924Y129868D01*
X338981Y129436D01*
X339000Y129000D01*
X339000Y120000D01*
X549289Y120000D01*
X553647Y119810D01*
X557972Y119240D01*
X562230Y118296D01*
X566390Y116985D01*
X570420Y115315D01*
X574289Y113301D01*
X577968Y110958D01*
X581429Y108302D01*
X584645Y105355D01*
X665355Y24645D01*
X668571Y21698D01*
X672032Y19042D01*
X675711Y16699D01*
X679580Y14685D01*
X683610Y13015D01*
X687770Y11704D01*
X692028Y10760D01*
X696353Y10190D01*
X700711Y10000D01*
X965000Y10000D01*
X967179Y10095D01*
X969341Y10380D01*
X971470Y10852D01*
X973551Y11508D01*
X975565Y12342D01*
X977500Y13349D01*
X979339Y14521D01*
X981070Y15849D01*
X982678Y17322D01*
X984151Y18930D01*
X985479Y20661D01*
X986651Y22500D01*
X987658Y24435D01*
X988492Y26450D01*
X989148Y28530D01*
X989620Y30659D01*
X989905Y32821D01*
X990000Y35000D01*
X990000Y485000D01*
X989905Y487179D01*
X989620Y489341D01*
X989148Y491470D01*
X988492Y493551D01*
X987658Y495565D01*
X986651Y497500D01*
X985479Y499339D01*
X984151Y501070D01*
X982678Y502678D01*
X981070Y504151D01*
X979339Y505479D01*
X977500Y506651D01*
X975565Y507658D01*
X973551Y508492D01*
X971470Y509148D01*
X969341Y509620D01*
X967179Y509905D01*
X965000Y510000D01*
X932180Y509770D01*
X931910Y509770D01*
X931910Y461890D01*
X931878Y461149D01*
X931781Y460414D01*
X931620Y459690D01*
X931397Y458983D01*
X931114Y458298D01*
X930771Y457640D01*
X930373Y457015D01*
X929921Y456426D01*
X929420Y455880D01*
X928874Y455379D01*
X928285Y454927D01*
X927660Y454529D01*
X927002Y454186D01*
X926317Y453903D01*
X925610Y453680D01*
X924886Y453519D01*
X924151Y453422D01*
X923410Y453390D01*
X862500Y453390D01*
X861759Y453422D01*
X861024Y453519D01*
X860300Y453680D01*
X859593Y453903D01*
X858908Y454186D01*
X858250Y454529D01*
X857625Y454927D01*
X857036Y455379D01*
X856490Y455880D01*
X855989Y456426D01*
X855537Y457015D01*
X855139Y457640D01*
X854796Y458298D01*
X854513Y458983D01*
X854290Y459690D01*
X854129Y460414D01*
X854032Y461149D01*
X854000Y461890D01*
X854000Y510000D01*
X800500Y510000D01*
X799934Y509975D01*
X799371Y509901D01*
X798818Y509779D01*
X798277Y509608D01*
X797753Y509391D01*
X797250Y509129D01*
X796772Y508825D01*
X796322Y508479D01*
X795904Y508096D01*
X795521Y507678D01*
X795176Y507228D01*
X794871Y506750D01*
X794609Y506247D01*
X794392Y505723D01*
X794221Y505182D01*
X794099Y504629D01*
X794025Y504067D01*
X794000Y503500D01*
X793968Y502759D01*
X793871Y502024D01*
X793710Y501300D01*
X793487Y500593D01*
X793204Y499908D01*
X792861Y499250D01*
X792463Y498625D01*
X792011Y498036D01*
X791510Y497490D01*
X790964Y496989D01*
X790375Y496537D01*
X789750Y496139D01*
X789092Y495796D01*
X788407Y495513D01*
X787700Y495290D01*
X786976Y495129D01*
X786241Y495032D01*
X785500Y495000D01*
X719500Y495000D01*
X718759Y495032D01*
X718024Y495129D01*
X717300Y495290D01*
X716593Y495513D01*
X715908Y495796D01*
X715250Y496139D01*
X714625Y496537D01*
X714036Y496989D01*
X713490Y497490D01*
X712989Y498036D01*
X712537Y498625D01*
X712139Y499250D01*
X711796Y499908D01*
X711513Y500593D01*
X711290Y501300D01*
X711129Y502024D01*
X711032Y502759D01*
X711000Y503500D01*
X710975Y504067D01*
X710901Y504629D01*
X710779Y505182D01*
X710608Y505723D01*
X710391Y506247D01*
X710129Y506750D01*
X709825Y507228D01*
X709479Y507678D01*
X709096Y508096D01*
X708678Y508479D01*
X708228Y508825D01*
X707750Y509129D01*
X707247Y509391D01*
X706723Y509608D01*
X706182Y509779D01*
X705629Y509901D01*
X705067Y509975D01*
X704500Y510000D01*
X461995Y510000D01*
X459823Y510047D01*
X455478Y510427D01*
X451182Y511183D01*
X446968Y512311D01*
X442869Y513803D01*
X438916Y515645D01*
X435138Y517826D01*
X431564Y520327D01*
X428222Y523130D01*
X425137Y526214D01*
X344863Y613786D01*
X343360Y615355D01*
X340144Y618302D01*
X336684Y620958D01*
X333005Y623301D01*
X329136Y625315D01*
X325106Y626985D01*
X320946Y628296D01*
X316687Y629240D01*
X312363Y629810D01*
X308005Y630000D01*
X55000Y630000D01*
X52821Y629905D01*
X50659Y629620D01*
X48530Y629148D01*
X46450Y628492D01*
X44435Y627658D01*
X42500Y626651D01*
X40661Y625479D01*
X38930Y624151D01*
X37322Y622678D01*
X35849Y621070D01*
X34521Y619339D01*
X33349Y617500D01*
X32342Y615565D01*
X31508Y613551D01*
X30852Y611470D01*
X30380Y609341D01*
X30095Y607179D01*
X30000Y605000D01*
X30000Y145000D01*
X70000Y256220D02*
X70076Y254477D01*
X70304Y252747D01*
X70681Y251044D01*
X71206Y249380D01*
X71874Y247768D01*
X72680Y246220D01*
X73617Y244748D01*
X74679Y243364D01*
X75858Y242078D01*
X77144Y240899D01*
X78528Y239837D01*
X80000Y238900D01*
X81548Y238094D01*
X83160Y237426D01*
X84824Y236901D01*
X86527Y236524D01*
X88257Y236296D01*
X90000Y236220D01*
X350000Y236220D01*
X351743Y236296D01*
X353473Y236524D01*
X355176Y236901D01*
X356840Y237426D01*
X358452Y238094D01*
X360000Y238900D01*
X361472Y239837D01*
X362856Y240899D01*
X364142Y242078D01*
X365321Y243364D01*
X366383Y244748D01*
X367321Y246220D01*
X368126Y247768D01*
X368794Y249380D01*
X369319Y251044D01*
X369696Y252747D01*
X369924Y254477D01*
X370000Y256220D01*
X370000Y370000D01*
X369924Y371743D01*
X369696Y373473D01*
X369319Y375176D01*
X368794Y376840D01*
X368126Y378452D01*
X367321Y380000D01*
X366383Y381472D01*
X365321Y382856D01*
X364142Y384142D01*
X362856Y385321D01*
X361472Y386383D01*
X360000Y387321D01*
X358452Y388126D01*
X356840Y388794D01*
X355176Y389319D01*
X353473Y389696D01*
X351743Y389924D01*
X350000Y390000D01*
X90000Y390000D01*
X88257Y389924D01*
X86527Y389696D01*
X84824Y389319D01*
X83160Y388794D01*
X81548Y388126D01*
X80000Y387321D01*
X78528Y386383D01*
X77144Y385321D01*
X75858Y384142D01*
X74679Y382856D01*
X73617Y381472D01*
X72680Y380000D01*
X71874Y378452D01*
X71206Y376840D01*
X70681Y375176D01*
X70304Y373473D01*
X70076Y371743D01*
X70000Y370000D01*
X70000Y256220D01*
X83088Y579900D02*
X83861Y579824D01*
X84622Y579673D01*
X85365Y579447D01*
X86082Y579150D01*
X86766Y578784D01*
X87412Y578353D01*
X88012Y577861D01*
X88561Y577312D01*
X89053Y576712D01*
X89484Y576066D01*
X89850Y575382D01*
X90147Y574665D01*
X90373Y573922D01*
X90524Y573161D01*
X90600Y572388D01*
X90600Y571612D01*
X90524Y570839D01*
X90373Y570078D01*
X90147Y569335D01*
X89850Y568618D01*
X89484Y567934D01*
X89053Y567288D01*
X88561Y566688D01*
X88012Y566139D01*
X87412Y565647D01*
X86766Y565216D01*
X86082Y564850D01*
X85365Y564553D01*
X84622Y564328D01*
X83861Y564176D01*
X83088Y564100D01*
X82312Y564100D01*
X81539Y564176D01*
X80778Y564328D01*
X80035Y564553D01*
X79318Y564850D01*
X78634Y565216D01*
X77988Y565647D01*
X77388Y566139D01*
X76839Y566688D01*
X76347Y567288D01*
X75916Y567934D01*
X75550Y568618D01*
X75253Y569335D01*
X75028Y570078D01*
X74876Y570839D01*
X74800Y571612D01*
X74800Y572388D01*
X74876Y573161D01*
X75028Y573922D01*
X75253Y574665D01*
X75550Y575382D01*
X75916Y576066D01*
X76347Y576712D01*
X76839Y577312D01*
X77388Y577861D01*
X77988Y578353D01*
X78634Y578784D01*
X79318Y579150D01*
X80035Y579447D01*
X80778Y579673D01*
X81539Y579824D01*
X82312Y579900D01*
X83088Y579900D01*
X286288Y579900D02*
X287061Y579824D01*
X287822Y579673D01*
X288565Y579447D01*
X289282Y579150D01*
X289966Y578784D01*
X290612Y578353D01*
X291212Y577861D01*
X291761Y577312D01*
X292253Y576712D01*
X292684Y576066D01*
X293050Y575382D01*
X293347Y574665D01*
X293573Y573922D01*
X293724Y573161D01*
X293800Y572388D01*
X293800Y571612D01*
X293724Y570839D01*
X293573Y570078D01*
X293347Y569335D01*
X293050Y568618D01*
X292684Y567934D01*
X292253Y567288D01*
X291761Y566688D01*
X291212Y566139D01*
X290612Y565647D01*
X289966Y565216D01*
X289282Y564850D01*
X288565Y564553D01*
X287822Y564328D01*
X287061Y564176D01*
X286288Y564100D01*
X285512Y564100D01*
X284739Y564176D01*
X283978Y564328D01*
X283235Y564553D01*
X282518Y564850D01*
X281834Y565216D01*
X281188Y565647D01*
X280588Y566139D01*
X280039Y566688D01*
X279547Y567288D01*
X279116Y567934D01*
X278750Y568618D01*
X278453Y569335D01*
X278228Y570078D01*
X278076Y570839D01*
X278000Y571612D01*
X278000Y572388D01*
X278076Y573161D01*
X278228Y573922D01*
X278453Y574665D01*
X278750Y575382D01*
X279116Y576066D01*
X279547Y576712D01*
X280039Y577312D01*
X280588Y577861D01*
X281188Y578353D01*
X281834Y578784D01*
X282518Y579150D01*
X283235Y579447D01*
X283978Y579673D01*
X284739Y579824D01*
X285512Y579900D01*
X286288Y579900D01*
X936912Y60100D02*
X936139Y60176D01*
X935378Y60328D01*
X934635Y60553D01*
X933918Y60850D01*
X933234Y61216D01*
X932588Y61647D01*
X931988Y62139D01*
X931439Y62688D01*
X930947Y63288D01*
X930516Y63934D01*
X930150Y64618D01*
X929853Y65335D01*
X929628Y66078D01*
X929476Y66839D01*
X929400Y67612D01*
X929400Y68388D01*
X929476Y69161D01*
X929628Y69922D01*
X929853Y70665D01*
X930150Y71382D01*
X930516Y72066D01*
X930947Y72712D01*
X931439Y73312D01*
X931988Y73861D01*
X932588Y74353D01*
X933234Y74784D01*
X933918Y75150D01*
X934635Y75447D01*
X935378Y75673D01*
X936139Y75824D01*
X936912Y75900D01*
X937688Y75900D01*
X938461Y75824D01*
X939222Y75673D01*
X939965Y75447D01*
X940682Y75150D01*
X941366Y74784D01*
X942012Y74353D01*
X942612Y73861D01*
X943161Y73312D01*
X943653Y72712D01*
X944084Y72066D01*
X944450Y71382D01*
X944747Y70665D01*
X944973Y69922D01*
X945124Y69161D01*
X945200Y68388D01*
X945200Y67612D01*
X945124Y66839D01*
X944973Y66078D01*
X944747Y65335D01*
X944450Y64618D01*
X944084Y63934D01*
X943653Y63288D01*
X943161Y62688D01*
X942612Y62139D01*
X942012Y61647D01*
X941366Y61216D01*
X940682Y60850D01*
X939965Y60553D01*
X939222Y60328D01*
X938461Y60176D01*
X937688Y60100D01*
X936912Y60100D01*
X733712Y60100D02*
X732939Y60176D01*
X732178Y60328D01*
X731435Y60553D01*
X730718Y60850D01*
X730034Y61216D01*
X729388Y61647D01*
X728788Y62139D01*
X728239Y62688D01*
X727747Y63288D01*
X727316Y63934D01*
X726950Y64618D01*
X726653Y65335D01*
X726428Y66078D01*
X726276Y66839D01*
X726200Y67612D01*
X726200Y68388D01*
X726276Y69161D01*
X726428Y69922D01*
X726653Y70665D01*
X726950Y71382D01*
X727316Y72066D01*
X727747Y72712D01*
X728239Y73312D01*
X728788Y73861D01*
X729388Y74353D01*
X730034Y74784D01*
X730718Y75150D01*
X731435Y75447D01*
X732178Y75673D01*
X732939Y75824D01*
X733712Y75900D01*
X734488Y75900D01*
X735261Y75824D01*
X736022Y75673D01*
X736765Y75447D01*
X737482Y75150D01*
X738166Y74784D01*
X738812Y74353D01*
X739412Y73861D01*
X739961Y73312D01*
X740453Y72712D01*
X740884Y72066D01*
X741250Y71382D01*
X741547Y70665D01*
X741773Y69922D01*
X741924Y69161D01*
X742000Y68388D01*
X742000Y67612D01*
X741924Y66839D01*
X741773Y66078D01*
X741547Y65335D01*
X741250Y64618D01*
X740884Y63934D01*
X740453Y63288D01*
X739961Y62688D01*
X739412Y62139D01*
X738812Y61647D01*
X738166Y61216D01*
X737482Y60850D01*
X736765Y60553D01*
X736022Y60328D01*
X735261Y60176D01*
X734488Y60100D01*
X733712Y60100D01*
M02*
