G04 EAGLE Gerber RS-274X export*
G75*
%MOMM*%
%FSLAX34Y34*%
%LPD*%
%INSilkscreen Top*%
%IPPOS*%
%AMOC8*
5,1,8,0,0,1.08239X$1,22.5*%
G01*
%ADD10C,0.101600*%
%ADD11C,0.152400*%
%ADD12C,0.254000*%
%ADD13C,0.203200*%
%ADD14C,0.076200*%
%ADD15C,0.500000*%
%ADD16C,0.120000*%
%ADD17C,0.127000*%


D10*
X827064Y235745D02*
X826965Y235537D01*
X826872Y235327D01*
X826784Y235115D01*
X826701Y234901D01*
X826623Y234684D01*
X826550Y234466D01*
X826482Y234247D01*
X826420Y234025D01*
X826363Y233803D01*
X826311Y233579D01*
X826265Y233354D01*
X826224Y233128D01*
X826189Y232900D01*
X826159Y232673D01*
X826134Y232444D01*
X826115Y232215D01*
X826101Y231986D01*
X826093Y231756D01*
X826090Y231526D01*
X827064Y235745D02*
X827097Y235835D01*
X827133Y235924D01*
X827173Y236012D01*
X827217Y236097D01*
X827264Y236181D01*
X827314Y236263D01*
X827368Y236343D01*
X827424Y236420D01*
X827484Y236496D01*
X827547Y236569D01*
X827612Y236639D01*
X827681Y236707D01*
X827752Y236771D01*
X827825Y236833D01*
X827901Y236892D01*
X827979Y236948D01*
X828060Y237001D01*
X828142Y237050D01*
X828226Y237096D01*
X828313Y237139D01*
X828400Y237178D01*
X828490Y237214D01*
X828580Y237246D01*
X828672Y237274D01*
X828765Y237299D01*
X828859Y237320D01*
X828953Y237337D01*
X829048Y237351D01*
X829144Y237360D01*
X829240Y237366D01*
X829336Y237368D01*
X829432Y237366D01*
X829528Y237360D01*
X829624Y237351D01*
X829719Y237337D01*
X829813Y237320D01*
X829907Y237299D01*
X830000Y237274D01*
X830092Y237246D01*
X830182Y237214D01*
X830272Y237178D01*
X830359Y237139D01*
X830446Y237096D01*
X830530Y237050D01*
X830612Y237001D01*
X830693Y236948D01*
X830771Y236892D01*
X830847Y236833D01*
X830920Y236771D01*
X830991Y236707D01*
X831060Y236639D01*
X831125Y236569D01*
X831188Y236496D01*
X831248Y236420D01*
X831304Y236343D01*
X831358Y236263D01*
X831408Y236181D01*
X831455Y236097D01*
X831499Y236012D01*
X831539Y235924D01*
X831575Y235835D01*
X831608Y235745D01*
X831707Y235538D01*
X831800Y235328D01*
X831888Y235115D01*
X831971Y234901D01*
X832049Y234685D01*
X832122Y234467D01*
X832190Y234247D01*
X832252Y234026D01*
X832309Y233803D01*
X832361Y233579D01*
X832407Y233354D01*
X832448Y233128D01*
X832483Y232901D01*
X832513Y232673D01*
X832538Y232444D01*
X832557Y232215D01*
X832571Y231986D01*
X832579Y231756D01*
X832582Y231526D01*
X826090Y231526D02*
X826093Y231296D01*
X826101Y231066D01*
X826115Y230837D01*
X826134Y230608D01*
X826159Y230379D01*
X826189Y230151D01*
X826224Y229924D01*
X826265Y229698D01*
X826311Y229473D01*
X826363Y229249D01*
X826420Y229026D01*
X826482Y228805D01*
X826550Y228585D01*
X826623Y228367D01*
X826701Y228151D01*
X826784Y227937D01*
X826872Y227725D01*
X826965Y227514D01*
X827064Y227307D01*
X827097Y227217D01*
X827133Y227128D01*
X827174Y227040D01*
X827217Y226955D01*
X827264Y226871D01*
X827314Y226789D01*
X827368Y226709D01*
X827424Y226632D01*
X827484Y226556D01*
X827547Y226483D01*
X827612Y226413D01*
X827681Y226345D01*
X827752Y226281D01*
X827825Y226219D01*
X827901Y226160D01*
X827979Y226104D01*
X828060Y226051D01*
X828142Y226002D01*
X828226Y225956D01*
X828313Y225913D01*
X828400Y225874D01*
X828490Y225838D01*
X828580Y225806D01*
X828672Y225778D01*
X828765Y225753D01*
X828859Y225732D01*
X828953Y225715D01*
X829048Y225701D01*
X829144Y225692D01*
X829240Y225686D01*
X829336Y225684D01*
X831607Y227307D02*
X831706Y227514D01*
X831799Y227725D01*
X831887Y227937D01*
X831970Y228151D01*
X832048Y228367D01*
X832121Y228585D01*
X832189Y228805D01*
X832251Y229026D01*
X832308Y229249D01*
X832360Y229473D01*
X832406Y229698D01*
X832447Y229924D01*
X832482Y230151D01*
X832512Y230379D01*
X832537Y230608D01*
X832556Y230837D01*
X832570Y231066D01*
X832578Y231296D01*
X832581Y231526D01*
X831608Y227307D02*
X831575Y227217D01*
X831539Y227128D01*
X831499Y227040D01*
X831455Y226955D01*
X831408Y226871D01*
X831358Y226789D01*
X831304Y226709D01*
X831248Y226632D01*
X831188Y226556D01*
X831125Y226483D01*
X831060Y226413D01*
X830991Y226345D01*
X830920Y226281D01*
X830847Y226219D01*
X830771Y226160D01*
X830693Y226104D01*
X830612Y226051D01*
X830530Y226002D01*
X830446Y225956D01*
X830359Y225913D01*
X830272Y225874D01*
X830182Y225838D01*
X830092Y225806D01*
X830000Y225778D01*
X829907Y225753D01*
X829813Y225732D01*
X829719Y225715D01*
X829624Y225701D01*
X829528Y225692D01*
X829432Y225686D01*
X829336Y225684D01*
X826739Y228280D02*
X831932Y234772D01*
X901528Y235788D02*
X904774Y238384D01*
X904774Y226700D01*
X908019Y226700D02*
X901528Y226700D01*
X904717Y369575D02*
X904715Y369682D01*
X904709Y369788D01*
X904699Y369894D01*
X904686Y370000D01*
X904668Y370106D01*
X904647Y370210D01*
X904622Y370314D01*
X904593Y370417D01*
X904561Y370518D01*
X904524Y370618D01*
X904484Y370717D01*
X904441Y370815D01*
X904394Y370911D01*
X904343Y371005D01*
X904289Y371097D01*
X904232Y371187D01*
X904172Y371275D01*
X904108Y371360D01*
X904041Y371443D01*
X903971Y371524D01*
X903899Y371602D01*
X903823Y371678D01*
X903745Y371750D01*
X903664Y371820D01*
X903581Y371887D01*
X903496Y371951D01*
X903408Y372011D01*
X903318Y372068D01*
X903226Y372122D01*
X903132Y372173D01*
X903036Y372220D01*
X902938Y372263D01*
X902839Y372303D01*
X902739Y372340D01*
X902638Y372372D01*
X902535Y372401D01*
X902431Y372426D01*
X902327Y372447D01*
X902221Y372465D01*
X902115Y372478D01*
X902009Y372488D01*
X901903Y372494D01*
X901796Y372496D01*
X901675Y372494D01*
X901554Y372488D01*
X901434Y372478D01*
X901313Y372465D01*
X901194Y372447D01*
X901074Y372426D01*
X900956Y372401D01*
X900839Y372372D01*
X900722Y372339D01*
X900607Y372303D01*
X900493Y372262D01*
X900380Y372219D01*
X900268Y372171D01*
X900159Y372120D01*
X900051Y372065D01*
X899944Y372007D01*
X899840Y371946D01*
X899738Y371881D01*
X899638Y371813D01*
X899540Y371742D01*
X899444Y371668D01*
X899351Y371591D01*
X899261Y371510D01*
X899173Y371427D01*
X899088Y371341D01*
X899005Y371252D01*
X898926Y371161D01*
X898849Y371067D01*
X898776Y370971D01*
X898706Y370873D01*
X898639Y370772D01*
X898575Y370669D01*
X898515Y370564D01*
X898458Y370457D01*
X898404Y370349D01*
X898354Y370239D01*
X898308Y370127D01*
X898265Y370014D01*
X898226Y369899D01*
X903744Y367303D02*
X903823Y367380D01*
X903899Y367461D01*
X903972Y367544D01*
X904042Y367629D01*
X904109Y367717D01*
X904173Y367807D01*
X904233Y367899D01*
X904290Y367994D01*
X904344Y368090D01*
X904395Y368188D01*
X904442Y368288D01*
X904486Y368390D01*
X904526Y368493D01*
X904562Y368597D01*
X904594Y368703D01*
X904623Y368809D01*
X904648Y368917D01*
X904670Y369025D01*
X904687Y369135D01*
X904701Y369244D01*
X904710Y369354D01*
X904716Y369465D01*
X904718Y369575D01*
X903743Y367303D02*
X898226Y360812D01*
X904717Y360812D01*
X825780Y360812D02*
X822534Y360812D01*
X825780Y360812D02*
X825893Y360814D01*
X826006Y360820D01*
X826119Y360830D01*
X826232Y360844D01*
X826344Y360861D01*
X826455Y360883D01*
X826565Y360908D01*
X826675Y360938D01*
X826783Y360971D01*
X826890Y361008D01*
X826996Y361048D01*
X827100Y361093D01*
X827203Y361141D01*
X827304Y361192D01*
X827403Y361247D01*
X827500Y361305D01*
X827595Y361367D01*
X827688Y361432D01*
X827778Y361500D01*
X827866Y361571D01*
X827952Y361646D01*
X828035Y361723D01*
X828115Y361803D01*
X828192Y361886D01*
X828267Y361972D01*
X828338Y362060D01*
X828406Y362150D01*
X828471Y362243D01*
X828533Y362338D01*
X828591Y362435D01*
X828646Y362534D01*
X828697Y362635D01*
X828745Y362738D01*
X828790Y362842D01*
X828830Y362948D01*
X828867Y363055D01*
X828900Y363163D01*
X828930Y363273D01*
X828955Y363383D01*
X828977Y363494D01*
X828994Y363606D01*
X829008Y363719D01*
X829018Y363832D01*
X829024Y363945D01*
X829026Y364058D01*
X829024Y364171D01*
X829018Y364284D01*
X829008Y364397D01*
X828994Y364510D01*
X828977Y364622D01*
X828955Y364733D01*
X828930Y364843D01*
X828900Y364953D01*
X828867Y365061D01*
X828830Y365168D01*
X828790Y365274D01*
X828745Y365378D01*
X828697Y365481D01*
X828646Y365582D01*
X828591Y365681D01*
X828533Y365778D01*
X828471Y365873D01*
X828406Y365966D01*
X828338Y366056D01*
X828267Y366144D01*
X828192Y366230D01*
X828115Y366313D01*
X828035Y366393D01*
X827952Y366470D01*
X827866Y366545D01*
X827778Y366616D01*
X827688Y366684D01*
X827595Y366749D01*
X827500Y366811D01*
X827403Y366869D01*
X827304Y366924D01*
X827203Y366975D01*
X827100Y367023D01*
X826996Y367068D01*
X826890Y367108D01*
X826783Y367145D01*
X826675Y367178D01*
X826565Y367208D01*
X826455Y367233D01*
X826344Y367255D01*
X826232Y367272D01*
X826119Y367286D01*
X826006Y367296D01*
X825893Y367302D01*
X825780Y367304D01*
X826429Y372496D02*
X822534Y372496D01*
X826429Y372496D02*
X826530Y372494D01*
X826630Y372488D01*
X826730Y372478D01*
X826830Y372465D01*
X826929Y372447D01*
X827028Y372426D01*
X827125Y372401D01*
X827222Y372372D01*
X827317Y372339D01*
X827411Y372303D01*
X827503Y372263D01*
X827594Y372220D01*
X827683Y372173D01*
X827770Y372123D01*
X827856Y372069D01*
X827939Y372012D01*
X828019Y371952D01*
X828098Y371889D01*
X828174Y371822D01*
X828247Y371753D01*
X828317Y371681D01*
X828385Y371607D01*
X828450Y371530D01*
X828511Y371450D01*
X828570Y371368D01*
X828625Y371284D01*
X828677Y371198D01*
X828726Y371110D01*
X828771Y371020D01*
X828813Y370928D01*
X828851Y370835D01*
X828885Y370740D01*
X828916Y370645D01*
X828943Y370548D01*
X828966Y370450D01*
X828986Y370351D01*
X829001Y370251D01*
X829013Y370151D01*
X829021Y370051D01*
X829025Y369950D01*
X829025Y369850D01*
X829021Y369749D01*
X829013Y369649D01*
X829001Y369549D01*
X828986Y369449D01*
X828966Y369350D01*
X828943Y369252D01*
X828916Y369155D01*
X828885Y369060D01*
X828851Y368965D01*
X828813Y368872D01*
X828771Y368780D01*
X828726Y368690D01*
X828677Y368602D01*
X828625Y368516D01*
X828570Y368432D01*
X828511Y368350D01*
X828450Y368270D01*
X828385Y368193D01*
X828317Y368119D01*
X828247Y368047D01*
X828174Y367978D01*
X828098Y367911D01*
X828019Y367848D01*
X827939Y367788D01*
X827856Y367731D01*
X827770Y367677D01*
X827683Y367627D01*
X827594Y367580D01*
X827503Y367537D01*
X827411Y367497D01*
X827317Y367461D01*
X827222Y367428D01*
X827125Y367399D01*
X827028Y367374D01*
X826929Y367353D01*
X826830Y367335D01*
X826730Y367322D01*
X826630Y367312D01*
X826530Y367306D01*
X826429Y367304D01*
X826429Y367303D02*
X823832Y367303D01*
D11*
X469018Y258126D02*
X469016Y258244D01*
X469010Y258362D01*
X469001Y258480D01*
X468987Y258597D01*
X468970Y258714D01*
X468949Y258831D01*
X468924Y258946D01*
X468895Y259061D01*
X468862Y259175D01*
X468826Y259287D01*
X468786Y259398D01*
X468743Y259508D01*
X468696Y259617D01*
X468646Y259724D01*
X468591Y259829D01*
X468534Y259932D01*
X468473Y260033D01*
X468409Y260133D01*
X468342Y260230D01*
X468272Y260325D01*
X468198Y260417D01*
X468122Y260508D01*
X468042Y260595D01*
X467960Y260680D01*
X467875Y260762D01*
X467788Y260842D01*
X467697Y260918D01*
X467605Y260992D01*
X467510Y261062D01*
X467413Y261129D01*
X467313Y261193D01*
X467212Y261254D01*
X467109Y261311D01*
X467004Y261366D01*
X466897Y261416D01*
X466788Y261463D01*
X466678Y261506D01*
X466567Y261546D01*
X466455Y261582D01*
X466341Y261615D01*
X466226Y261644D01*
X466111Y261669D01*
X465994Y261690D01*
X465877Y261707D01*
X465760Y261721D01*
X465642Y261730D01*
X465524Y261736D01*
X465406Y261738D01*
X469018Y258126D02*
X469016Y257943D01*
X469009Y257761D01*
X468998Y257579D01*
X468983Y257397D01*
X468963Y257215D01*
X468940Y257034D01*
X468911Y256854D01*
X468879Y256674D01*
X468842Y256495D01*
X468801Y256318D01*
X468755Y256141D01*
X468706Y255965D01*
X468652Y255791D01*
X468594Y255617D01*
X468532Y255446D01*
X468466Y255276D01*
X468395Y255107D01*
X468321Y254940D01*
X468243Y254775D01*
X468161Y254612D01*
X468075Y254451D01*
X467985Y254292D01*
X467891Y254135D01*
X467794Y253981D01*
X467693Y253829D01*
X467588Y253679D01*
X467480Y253532D01*
X467369Y253388D01*
X467254Y253246D01*
X467135Y253107D01*
X467013Y252971D01*
X466888Y252838D01*
X466760Y252708D01*
X456374Y253159D02*
X456256Y253161D01*
X456138Y253167D01*
X456020Y253176D01*
X455903Y253190D01*
X455786Y253207D01*
X455669Y253228D01*
X455554Y253253D01*
X455439Y253282D01*
X455325Y253315D01*
X455213Y253351D01*
X455102Y253391D01*
X454992Y253434D01*
X454883Y253481D01*
X454776Y253531D01*
X454671Y253586D01*
X454568Y253643D01*
X454467Y253704D01*
X454367Y253768D01*
X454270Y253835D01*
X454175Y253905D01*
X454083Y253979D01*
X453992Y254055D01*
X453905Y254135D01*
X453820Y254217D01*
X453738Y254302D01*
X453658Y254389D01*
X453582Y254480D01*
X453508Y254572D01*
X453438Y254667D01*
X453371Y254764D01*
X453307Y254864D01*
X453246Y254965D01*
X453189Y255068D01*
X453134Y255173D01*
X453084Y255280D01*
X453037Y255389D01*
X452994Y255499D01*
X452954Y255610D01*
X452918Y255722D01*
X452885Y255836D01*
X452856Y255951D01*
X452831Y256066D01*
X452810Y256183D01*
X452793Y256300D01*
X452779Y256417D01*
X452770Y256535D01*
X452764Y256653D01*
X452762Y256771D01*
X452764Y256932D01*
X452770Y257094D01*
X452779Y257255D01*
X452793Y257416D01*
X452810Y257576D01*
X452831Y257736D01*
X452856Y257896D01*
X452885Y258055D01*
X452917Y258213D01*
X452953Y258370D01*
X452993Y258526D01*
X453037Y258682D01*
X453085Y258836D01*
X453136Y258989D01*
X453190Y259141D01*
X453249Y259292D01*
X453310Y259441D01*
X453376Y259588D01*
X453445Y259734D01*
X453517Y259879D01*
X453593Y260021D01*
X453672Y260162D01*
X453754Y260301D01*
X453840Y260437D01*
X453929Y260572D01*
X454021Y260705D01*
X454117Y260835D01*
X459535Y254965D02*
X459473Y254864D01*
X459408Y254764D01*
X459339Y254667D01*
X459267Y254572D01*
X459193Y254479D01*
X459115Y254389D01*
X459034Y254301D01*
X458951Y254216D01*
X458865Y254134D01*
X458776Y254055D01*
X458685Y253978D01*
X458591Y253905D01*
X458495Y253834D01*
X458397Y253767D01*
X458297Y253703D01*
X458194Y253642D01*
X458090Y253585D01*
X457984Y253531D01*
X457876Y253481D01*
X457767Y253434D01*
X457656Y253390D01*
X457544Y253350D01*
X457430Y253314D01*
X457316Y253282D01*
X457200Y253253D01*
X457084Y253228D01*
X456967Y253207D01*
X456849Y253190D01*
X456731Y253176D01*
X456612Y253167D01*
X456493Y253161D01*
X456374Y253159D01*
X462245Y259933D02*
X462307Y260034D01*
X462372Y260134D01*
X462441Y260231D01*
X462513Y260326D01*
X462587Y260419D01*
X462665Y260509D01*
X462746Y260597D01*
X462829Y260682D01*
X462915Y260764D01*
X463004Y260843D01*
X463095Y260920D01*
X463189Y260993D01*
X463285Y261064D01*
X463383Y261131D01*
X463483Y261195D01*
X463586Y261256D01*
X463690Y261313D01*
X463796Y261367D01*
X463904Y261417D01*
X464013Y261464D01*
X464124Y261508D01*
X464236Y261548D01*
X464350Y261584D01*
X464464Y261616D01*
X464580Y261645D01*
X464696Y261670D01*
X464813Y261691D01*
X464931Y261708D01*
X465049Y261722D01*
X465168Y261731D01*
X465287Y261737D01*
X465406Y261739D01*
X462245Y259932D02*
X459535Y254965D01*
X469018Y271391D02*
X469018Y275003D01*
X469018Y271391D02*
X469016Y271273D01*
X469010Y271155D01*
X469001Y271037D01*
X468987Y270920D01*
X468970Y270803D01*
X468949Y270686D01*
X468924Y270571D01*
X468895Y270456D01*
X468862Y270342D01*
X468826Y270230D01*
X468786Y270119D01*
X468743Y270009D01*
X468696Y269900D01*
X468646Y269793D01*
X468591Y269688D01*
X468534Y269585D01*
X468473Y269484D01*
X468409Y269384D01*
X468342Y269287D01*
X468272Y269192D01*
X468198Y269100D01*
X468122Y269009D01*
X468042Y268922D01*
X467960Y268837D01*
X467875Y268755D01*
X467788Y268675D01*
X467697Y268599D01*
X467605Y268525D01*
X467510Y268455D01*
X467413Y268388D01*
X467313Y268324D01*
X467212Y268263D01*
X467109Y268206D01*
X467004Y268151D01*
X466897Y268101D01*
X466788Y268054D01*
X466678Y268011D01*
X466567Y267971D01*
X466455Y267935D01*
X466341Y267902D01*
X466226Y267873D01*
X466111Y267848D01*
X465994Y267827D01*
X465877Y267810D01*
X465760Y267796D01*
X465642Y267787D01*
X465524Y267781D01*
X465406Y267779D01*
X465406Y267778D02*
X456374Y267778D01*
X456256Y267780D01*
X456138Y267786D01*
X456020Y267795D01*
X455902Y267809D01*
X455785Y267826D01*
X455669Y267847D01*
X455554Y267872D01*
X455439Y267901D01*
X455325Y267934D01*
X455213Y267970D01*
X455101Y268010D01*
X454991Y268053D01*
X454883Y268100D01*
X454776Y268151D01*
X454671Y268205D01*
X454568Y268262D01*
X454466Y268323D01*
X454367Y268387D01*
X454270Y268454D01*
X454175Y268525D01*
X454082Y268598D01*
X453992Y268675D01*
X453904Y268754D01*
X453819Y268836D01*
X453737Y268921D01*
X453658Y269009D01*
X453581Y269099D01*
X453508Y269192D01*
X453437Y269286D01*
X453370Y269384D01*
X453306Y269483D01*
X453245Y269584D01*
X453188Y269688D01*
X453134Y269793D01*
X453083Y269900D01*
X453036Y270008D01*
X452993Y270118D01*
X452953Y270230D01*
X452917Y270342D01*
X452884Y270456D01*
X452855Y270571D01*
X452830Y270686D01*
X452809Y270802D01*
X452792Y270919D01*
X452778Y271037D01*
X452769Y271155D01*
X452763Y271273D01*
X452761Y271391D01*
X452762Y271391D02*
X452762Y275003D01*
X452762Y285359D02*
X469018Y279941D01*
X469018Y290778D02*
X452762Y285359D01*
X464954Y289423D02*
X464954Y281295D01*
X469018Y297207D02*
X452762Y297207D01*
X452762Y301722D01*
X452764Y301855D01*
X452770Y301987D01*
X452780Y302119D01*
X452793Y302251D01*
X452811Y302383D01*
X452832Y302513D01*
X452857Y302644D01*
X452886Y302773D01*
X452919Y302901D01*
X452955Y303029D01*
X452995Y303155D01*
X453039Y303280D01*
X453087Y303404D01*
X453138Y303526D01*
X453193Y303647D01*
X453251Y303766D01*
X453313Y303884D01*
X453378Y303999D01*
X453447Y304113D01*
X453518Y304224D01*
X453594Y304333D01*
X453672Y304440D01*
X453753Y304545D01*
X453838Y304647D01*
X453925Y304747D01*
X454015Y304844D01*
X454108Y304939D01*
X454204Y305030D01*
X454302Y305119D01*
X454403Y305205D01*
X454507Y305288D01*
X454613Y305368D01*
X454721Y305444D01*
X454831Y305518D01*
X454944Y305588D01*
X455058Y305655D01*
X455175Y305718D01*
X455293Y305778D01*
X455413Y305835D01*
X455535Y305888D01*
X455658Y305937D01*
X455782Y305983D01*
X455908Y306025D01*
X456035Y306063D01*
X456163Y306098D01*
X456292Y306129D01*
X456421Y306156D01*
X456552Y306179D01*
X456683Y306199D01*
X456815Y306214D01*
X456947Y306226D01*
X457079Y306234D01*
X457212Y306238D01*
X457344Y306238D01*
X457477Y306234D01*
X457609Y306226D01*
X457741Y306214D01*
X457873Y306199D01*
X458004Y306179D01*
X458135Y306156D01*
X458264Y306129D01*
X458393Y306098D01*
X458521Y306063D01*
X458648Y306025D01*
X458774Y305983D01*
X458898Y305937D01*
X459021Y305888D01*
X459143Y305835D01*
X459263Y305778D01*
X459381Y305718D01*
X459498Y305655D01*
X459612Y305588D01*
X459725Y305518D01*
X459835Y305444D01*
X459943Y305368D01*
X460049Y305288D01*
X460153Y305205D01*
X460254Y305119D01*
X460352Y305030D01*
X460448Y304939D01*
X460541Y304844D01*
X460631Y304747D01*
X460718Y304647D01*
X460803Y304545D01*
X460884Y304440D01*
X460962Y304333D01*
X461038Y304224D01*
X461109Y304113D01*
X461178Y303999D01*
X461243Y303884D01*
X461305Y303766D01*
X461363Y303647D01*
X461418Y303526D01*
X461469Y303404D01*
X461517Y303280D01*
X461561Y303155D01*
X461601Y303029D01*
X461637Y302901D01*
X461670Y302773D01*
X461699Y302644D01*
X461724Y302513D01*
X461745Y302383D01*
X461763Y302251D01*
X461776Y302119D01*
X461786Y301987D01*
X461792Y301855D01*
X461794Y301722D01*
X461793Y301722D02*
X461793Y297207D01*
D12*
X602299Y222499D02*
X602301Y222683D01*
X602308Y222867D01*
X602319Y223051D01*
X602335Y223234D01*
X602355Y223417D01*
X602380Y223599D01*
X602409Y223781D01*
X602443Y223962D01*
X602481Y224142D01*
X602524Y224321D01*
X602571Y224499D01*
X602622Y224676D01*
X602678Y224852D01*
X602737Y225026D01*
X602802Y225198D01*
X602870Y225369D01*
X602942Y225538D01*
X603019Y225706D01*
X603100Y225871D01*
X603185Y226034D01*
X603273Y226196D01*
X603366Y226355D01*
X603463Y226511D01*
X603563Y226666D01*
X603667Y226818D01*
X603775Y226967D01*
X603886Y227113D01*
X604001Y227257D01*
X604120Y227398D01*
X604242Y227536D01*
X604367Y227671D01*
X604496Y227802D01*
X604627Y227931D01*
X604762Y228056D01*
X604900Y228178D01*
X605041Y228297D01*
X605185Y228412D01*
X605331Y228523D01*
X605480Y228631D01*
X605632Y228735D01*
X605787Y228835D01*
X605943Y228932D01*
X606102Y229025D01*
X606264Y229113D01*
X606427Y229198D01*
X606592Y229279D01*
X606760Y229356D01*
X606929Y229428D01*
X607100Y229496D01*
X607272Y229561D01*
X607446Y229620D01*
X607622Y229676D01*
X607799Y229727D01*
X607977Y229774D01*
X608156Y229817D01*
X608336Y229855D01*
X608517Y229889D01*
X608699Y229918D01*
X608881Y229943D01*
X609064Y229963D01*
X609247Y229979D01*
X609431Y229990D01*
X609615Y229997D01*
X609799Y229999D01*
X609983Y229997D01*
X610167Y229990D01*
X610351Y229979D01*
X610534Y229963D01*
X610717Y229943D01*
X610899Y229918D01*
X611081Y229889D01*
X611262Y229855D01*
X611442Y229817D01*
X611621Y229774D01*
X611799Y229727D01*
X611976Y229676D01*
X612152Y229620D01*
X612326Y229561D01*
X612498Y229496D01*
X612669Y229428D01*
X612838Y229356D01*
X613006Y229279D01*
X613171Y229198D01*
X613334Y229113D01*
X613496Y229025D01*
X613655Y228932D01*
X613811Y228835D01*
X613966Y228735D01*
X614118Y228631D01*
X614267Y228523D01*
X614413Y228412D01*
X614557Y228297D01*
X614698Y228178D01*
X614836Y228056D01*
X614971Y227931D01*
X615102Y227802D01*
X615231Y227671D01*
X615356Y227536D01*
X615478Y227398D01*
X615597Y227257D01*
X615712Y227113D01*
X615823Y226967D01*
X615931Y226818D01*
X616035Y226666D01*
X616135Y226511D01*
X616232Y226355D01*
X616325Y226196D01*
X616413Y226034D01*
X616498Y225871D01*
X616579Y225706D01*
X616656Y225538D01*
X616728Y225369D01*
X616796Y225198D01*
X616861Y225026D01*
X616920Y224852D01*
X616976Y224676D01*
X617027Y224499D01*
X617074Y224321D01*
X617117Y224142D01*
X617155Y223962D01*
X617189Y223781D01*
X617218Y223599D01*
X617243Y223417D01*
X617263Y223234D01*
X617279Y223051D01*
X617290Y222867D01*
X617297Y222683D01*
X617299Y222499D01*
X617297Y222315D01*
X617290Y222131D01*
X617279Y221947D01*
X617263Y221764D01*
X617243Y221581D01*
X617218Y221399D01*
X617189Y221217D01*
X617155Y221036D01*
X617117Y220856D01*
X617074Y220677D01*
X617027Y220499D01*
X616976Y220322D01*
X616920Y220146D01*
X616861Y219972D01*
X616796Y219800D01*
X616728Y219629D01*
X616656Y219460D01*
X616579Y219292D01*
X616498Y219127D01*
X616413Y218964D01*
X616325Y218802D01*
X616232Y218643D01*
X616135Y218487D01*
X616035Y218332D01*
X615931Y218180D01*
X615823Y218031D01*
X615712Y217885D01*
X615597Y217741D01*
X615478Y217600D01*
X615356Y217462D01*
X615231Y217327D01*
X615102Y217196D01*
X614971Y217067D01*
X614836Y216942D01*
X614698Y216820D01*
X614557Y216701D01*
X614413Y216586D01*
X614267Y216475D01*
X614118Y216367D01*
X613966Y216263D01*
X613811Y216163D01*
X613655Y216066D01*
X613496Y215973D01*
X613334Y215885D01*
X613171Y215800D01*
X613006Y215719D01*
X612838Y215642D01*
X612669Y215570D01*
X612498Y215502D01*
X612326Y215437D01*
X612152Y215378D01*
X611976Y215322D01*
X611799Y215271D01*
X611621Y215224D01*
X611442Y215181D01*
X611262Y215143D01*
X611081Y215109D01*
X610899Y215080D01*
X610717Y215055D01*
X610534Y215035D01*
X610351Y215019D01*
X610167Y215008D01*
X609983Y215001D01*
X609799Y214999D01*
X609615Y215001D01*
X609431Y215008D01*
X609247Y215019D01*
X609064Y215035D01*
X608881Y215055D01*
X608699Y215080D01*
X608517Y215109D01*
X608336Y215143D01*
X608156Y215181D01*
X607977Y215224D01*
X607799Y215271D01*
X607622Y215322D01*
X607446Y215378D01*
X607272Y215437D01*
X607100Y215502D01*
X606929Y215570D01*
X606760Y215642D01*
X606592Y215719D01*
X606427Y215800D01*
X606264Y215885D01*
X606102Y215973D01*
X605943Y216066D01*
X605787Y216163D01*
X605632Y216263D01*
X605480Y216367D01*
X605331Y216475D01*
X605185Y216586D01*
X605041Y216701D01*
X604900Y216820D01*
X604762Y216942D01*
X604627Y217067D01*
X604496Y217196D01*
X604367Y217327D01*
X604242Y217462D01*
X604120Y217600D01*
X604001Y217741D01*
X603886Y217885D01*
X603775Y218031D01*
X603667Y218180D01*
X603563Y218332D01*
X603463Y218487D01*
X603366Y218643D01*
X603273Y218802D01*
X603185Y218964D01*
X603100Y219127D01*
X603019Y219292D01*
X602942Y219460D01*
X602870Y219629D01*
X602802Y219800D01*
X602737Y219972D01*
X602678Y220146D01*
X602622Y220322D01*
X602571Y220499D01*
X602524Y220677D01*
X602481Y220856D01*
X602443Y221036D01*
X602409Y221217D01*
X602380Y221399D01*
X602355Y221581D01*
X602335Y221764D01*
X602319Y221947D01*
X602308Y222131D01*
X602301Y222315D01*
X602299Y222499D01*
D13*
X597600Y344600D02*
X731900Y344600D01*
X731900Y210400D01*
X597600Y210400D01*
X597600Y344600D01*
D10*
X640208Y278749D02*
X643454Y278749D01*
X643454Y278750D02*
X643567Y278748D01*
X643680Y278742D01*
X643793Y278732D01*
X643906Y278718D01*
X644018Y278701D01*
X644129Y278679D01*
X644239Y278654D01*
X644349Y278624D01*
X644457Y278591D01*
X644564Y278554D01*
X644670Y278514D01*
X644774Y278469D01*
X644877Y278421D01*
X644978Y278370D01*
X645077Y278315D01*
X645174Y278257D01*
X645269Y278195D01*
X645362Y278130D01*
X645452Y278062D01*
X645540Y277991D01*
X645626Y277916D01*
X645709Y277839D01*
X645789Y277759D01*
X645866Y277676D01*
X645941Y277590D01*
X646012Y277502D01*
X646080Y277412D01*
X646145Y277319D01*
X646207Y277224D01*
X646265Y277127D01*
X646320Y277028D01*
X646371Y276927D01*
X646419Y276824D01*
X646464Y276720D01*
X646504Y276614D01*
X646541Y276507D01*
X646574Y276399D01*
X646604Y276289D01*
X646629Y276179D01*
X646651Y276068D01*
X646668Y275956D01*
X646682Y275843D01*
X646692Y275730D01*
X646698Y275617D01*
X646700Y275504D01*
X646698Y275391D01*
X646692Y275278D01*
X646682Y275165D01*
X646668Y275052D01*
X646651Y274940D01*
X646629Y274829D01*
X646604Y274719D01*
X646574Y274609D01*
X646541Y274501D01*
X646504Y274394D01*
X646464Y274288D01*
X646419Y274184D01*
X646371Y274081D01*
X646320Y273980D01*
X646265Y273881D01*
X646207Y273784D01*
X646145Y273689D01*
X646080Y273596D01*
X646012Y273506D01*
X645941Y273418D01*
X645866Y273332D01*
X645789Y273249D01*
X645709Y273169D01*
X645626Y273092D01*
X645540Y273017D01*
X645452Y272946D01*
X645362Y272878D01*
X645269Y272813D01*
X645174Y272751D01*
X645077Y272693D01*
X644978Y272638D01*
X644877Y272587D01*
X644774Y272539D01*
X644670Y272494D01*
X644564Y272454D01*
X644457Y272417D01*
X644349Y272384D01*
X644239Y272354D01*
X644129Y272329D01*
X644018Y272307D01*
X643906Y272290D01*
X643793Y272276D01*
X643680Y272266D01*
X643567Y272260D01*
X643454Y272258D01*
X640208Y272258D01*
X640208Y283942D01*
X643454Y283942D01*
X643555Y283940D01*
X643655Y283934D01*
X643755Y283924D01*
X643855Y283911D01*
X643954Y283893D01*
X644053Y283872D01*
X644150Y283847D01*
X644247Y283818D01*
X644342Y283785D01*
X644436Y283749D01*
X644528Y283709D01*
X644619Y283666D01*
X644708Y283619D01*
X644795Y283569D01*
X644881Y283515D01*
X644964Y283458D01*
X645044Y283398D01*
X645123Y283335D01*
X645199Y283268D01*
X645272Y283199D01*
X645342Y283127D01*
X645410Y283053D01*
X645475Y282976D01*
X645536Y282896D01*
X645595Y282814D01*
X645650Y282730D01*
X645702Y282644D01*
X645751Y282556D01*
X645796Y282466D01*
X645838Y282374D01*
X645876Y282281D01*
X645910Y282186D01*
X645941Y282091D01*
X645968Y281994D01*
X645991Y281896D01*
X646011Y281797D01*
X646026Y281697D01*
X646038Y281597D01*
X646046Y281497D01*
X646050Y281396D01*
X646050Y281296D01*
X646046Y281195D01*
X646038Y281095D01*
X646026Y280995D01*
X646011Y280895D01*
X645991Y280796D01*
X645968Y280698D01*
X645941Y280601D01*
X645910Y280506D01*
X645876Y280411D01*
X645838Y280318D01*
X645796Y280226D01*
X645751Y280136D01*
X645702Y280048D01*
X645650Y279962D01*
X645595Y279878D01*
X645536Y279796D01*
X645475Y279716D01*
X645410Y279639D01*
X645342Y279565D01*
X645272Y279493D01*
X645199Y279424D01*
X645123Y279357D01*
X645044Y279294D01*
X644964Y279234D01*
X644881Y279177D01*
X644795Y279123D01*
X644708Y279073D01*
X644619Y279026D01*
X644528Y278983D01*
X644436Y278943D01*
X644342Y278907D01*
X644247Y278874D01*
X644150Y278845D01*
X644053Y278820D01*
X643954Y278799D01*
X643855Y278781D01*
X643755Y278768D01*
X643655Y278758D01*
X643555Y278752D01*
X643454Y278750D01*
X651542Y283942D02*
X651542Y272258D01*
X651542Y283942D02*
X654788Y283942D01*
X654901Y283940D01*
X655014Y283934D01*
X655127Y283924D01*
X655240Y283910D01*
X655352Y283893D01*
X655463Y283871D01*
X655573Y283846D01*
X655683Y283816D01*
X655791Y283783D01*
X655898Y283746D01*
X656004Y283706D01*
X656108Y283661D01*
X656211Y283613D01*
X656312Y283562D01*
X656411Y283507D01*
X656508Y283449D01*
X656603Y283387D01*
X656696Y283322D01*
X656786Y283254D01*
X656874Y283183D01*
X656960Y283108D01*
X657043Y283031D01*
X657123Y282951D01*
X657200Y282868D01*
X657275Y282782D01*
X657346Y282694D01*
X657414Y282604D01*
X657479Y282511D01*
X657541Y282416D01*
X657599Y282319D01*
X657654Y282220D01*
X657705Y282119D01*
X657753Y282016D01*
X657798Y281912D01*
X657838Y281806D01*
X657875Y281699D01*
X657908Y281591D01*
X657938Y281481D01*
X657963Y281371D01*
X657985Y281260D01*
X658002Y281148D01*
X658016Y281035D01*
X658026Y280922D01*
X658032Y280809D01*
X658034Y280696D01*
X658032Y280583D01*
X658026Y280470D01*
X658016Y280357D01*
X658002Y280244D01*
X657985Y280132D01*
X657963Y280021D01*
X657938Y279911D01*
X657908Y279801D01*
X657875Y279693D01*
X657838Y279586D01*
X657798Y279480D01*
X657753Y279376D01*
X657705Y279273D01*
X657654Y279172D01*
X657599Y279073D01*
X657541Y278976D01*
X657479Y278881D01*
X657414Y278788D01*
X657346Y278698D01*
X657275Y278610D01*
X657200Y278524D01*
X657123Y278441D01*
X657043Y278361D01*
X656960Y278284D01*
X656874Y278209D01*
X656786Y278138D01*
X656696Y278070D01*
X656603Y278005D01*
X656508Y277943D01*
X656411Y277885D01*
X656312Y277830D01*
X656211Y277779D01*
X656108Y277731D01*
X656004Y277686D01*
X655898Y277646D01*
X655791Y277609D01*
X655683Y277576D01*
X655573Y277546D01*
X655463Y277521D01*
X655352Y277499D01*
X655240Y277482D01*
X655127Y277468D01*
X655014Y277458D01*
X654901Y277452D01*
X654788Y277450D01*
X654788Y277451D02*
X651542Y277451D01*
X655437Y277451D02*
X658033Y272258D01*
X662250Y272258D02*
X666144Y283942D01*
X670039Y272258D01*
X669065Y275179D02*
X663223Y275179D01*
X675288Y272258D02*
X675288Y283942D01*
X673990Y272258D02*
X676586Y272258D01*
X676586Y283942D02*
X673990Y283942D01*
X681568Y283942D02*
X681568Y272258D01*
X688059Y272258D02*
X681568Y283942D01*
X688059Y283942D02*
X688059Y272258D01*
D14*
X690207Y160107D02*
X692296Y160107D01*
X690207Y160107D02*
X690118Y160109D01*
X690030Y160115D01*
X689942Y160124D01*
X689854Y160137D01*
X689767Y160154D01*
X689681Y160174D01*
X689596Y160199D01*
X689511Y160226D01*
X689428Y160258D01*
X689347Y160292D01*
X689267Y160331D01*
X689189Y160372D01*
X689112Y160417D01*
X689038Y160465D01*
X688965Y160516D01*
X688895Y160570D01*
X688828Y160628D01*
X688762Y160688D01*
X688700Y160750D01*
X688640Y160816D01*
X688582Y160883D01*
X688528Y160953D01*
X688477Y161026D01*
X688429Y161100D01*
X688384Y161177D01*
X688343Y161255D01*
X688304Y161335D01*
X688270Y161416D01*
X688238Y161499D01*
X688211Y161584D01*
X688186Y161669D01*
X688166Y161755D01*
X688149Y161842D01*
X688136Y161930D01*
X688127Y162018D01*
X688121Y162106D01*
X688119Y162195D01*
X688119Y167417D01*
X688121Y167508D01*
X688127Y167599D01*
X688137Y167690D01*
X688151Y167780D01*
X688168Y167869D01*
X688190Y167957D01*
X688216Y168045D01*
X688245Y168131D01*
X688278Y168216D01*
X688315Y168299D01*
X688355Y168381D01*
X688399Y168461D01*
X688446Y168539D01*
X688497Y168615D01*
X688550Y168688D01*
X688607Y168759D01*
X688668Y168828D01*
X688731Y168893D01*
X688796Y168956D01*
X688865Y169016D01*
X688936Y169074D01*
X689009Y169127D01*
X689085Y169178D01*
X689163Y169225D01*
X689243Y169269D01*
X689325Y169309D01*
X689408Y169346D01*
X689493Y169379D01*
X689579Y169408D01*
X689667Y169434D01*
X689755Y169456D01*
X689844Y169473D01*
X689934Y169487D01*
X690025Y169497D01*
X690116Y169503D01*
X690207Y169505D01*
X692296Y169505D01*
X695764Y167417D02*
X698375Y169505D01*
X698375Y160107D01*
X700985Y160107D02*
X695764Y160107D01*
D15*
X621883Y150755D03*
D16*
X615310Y151780D02*
X615310Y153255D01*
X615310Y151780D02*
X584310Y151780D01*
X584310Y153255D01*
X615310Y181305D02*
X615310Y182780D01*
X584310Y182780D01*
X584310Y181305D01*
D14*
X589398Y171524D02*
X589398Y162286D01*
X589398Y171524D02*
X591964Y171524D01*
X592063Y171522D01*
X592163Y171516D01*
X592262Y171507D01*
X592360Y171493D01*
X592458Y171476D01*
X592556Y171455D01*
X592652Y171430D01*
X592747Y171401D01*
X592842Y171369D01*
X592934Y171333D01*
X593026Y171294D01*
X593116Y171251D01*
X593204Y171205D01*
X593290Y171155D01*
X593374Y171102D01*
X593456Y171046D01*
X593536Y170986D01*
X593613Y170924D01*
X593688Y170858D01*
X593761Y170790D01*
X593830Y170719D01*
X593897Y170645D01*
X593961Y170569D01*
X594022Y170490D01*
X594080Y170409D01*
X594135Y170326D01*
X594186Y170241D01*
X594234Y170154D01*
X594279Y170065D01*
X594320Y169974D01*
X594358Y169882D01*
X594392Y169789D01*
X594422Y169694D01*
X594449Y169598D01*
X594472Y169501D01*
X594491Y169404D01*
X594506Y169305D01*
X594518Y169206D01*
X594526Y169107D01*
X594530Y169008D01*
X594530Y168908D01*
X594526Y168809D01*
X594518Y168710D01*
X594506Y168611D01*
X594491Y168512D01*
X594472Y168415D01*
X594449Y168318D01*
X594422Y168222D01*
X594392Y168127D01*
X594358Y168034D01*
X594320Y167942D01*
X594279Y167851D01*
X594234Y167762D01*
X594186Y167675D01*
X594135Y167590D01*
X594080Y167507D01*
X594022Y167426D01*
X593961Y167347D01*
X593897Y167271D01*
X593830Y167197D01*
X593761Y167126D01*
X593688Y167058D01*
X593613Y166992D01*
X593536Y166930D01*
X593456Y166870D01*
X593374Y166814D01*
X593290Y166761D01*
X593204Y166711D01*
X593116Y166665D01*
X593026Y166622D01*
X592934Y166583D01*
X592842Y166547D01*
X592747Y166515D01*
X592652Y166486D01*
X592556Y166461D01*
X592458Y166440D01*
X592360Y166423D01*
X592262Y166409D01*
X592163Y166400D01*
X592063Y166394D01*
X591964Y166392D01*
X589398Y166392D01*
X592478Y166392D02*
X594530Y162286D01*
X600308Y162286D02*
X600308Y171524D01*
X597742Y171524D02*
X602874Y171524D01*
X608169Y162286D02*
X610222Y162286D01*
X608169Y162286D02*
X608079Y162288D01*
X607990Y162294D01*
X607901Y162304D01*
X607813Y162317D01*
X607725Y162335D01*
X607638Y162356D01*
X607552Y162381D01*
X607467Y162410D01*
X607383Y162442D01*
X607301Y162478D01*
X607221Y162518D01*
X607143Y162561D01*
X607066Y162608D01*
X606991Y162657D01*
X606919Y162710D01*
X606849Y162766D01*
X606782Y162825D01*
X606717Y162887D01*
X606655Y162952D01*
X606596Y163019D01*
X606540Y163089D01*
X606487Y163161D01*
X606438Y163236D01*
X606391Y163313D01*
X606348Y163391D01*
X606308Y163471D01*
X606272Y163553D01*
X606240Y163637D01*
X606211Y163722D01*
X606186Y163808D01*
X606165Y163895D01*
X606147Y163983D01*
X606134Y164071D01*
X606124Y164160D01*
X606118Y164249D01*
X606116Y164339D01*
X606116Y169471D01*
X606118Y169561D01*
X606124Y169650D01*
X606134Y169739D01*
X606147Y169827D01*
X606165Y169915D01*
X606186Y170002D01*
X606211Y170088D01*
X606240Y170173D01*
X606272Y170257D01*
X606308Y170339D01*
X606348Y170419D01*
X606391Y170497D01*
X606438Y170574D01*
X606487Y170649D01*
X606540Y170721D01*
X606596Y170791D01*
X606655Y170858D01*
X606717Y170923D01*
X606782Y170985D01*
X606849Y171044D01*
X606919Y171100D01*
X606991Y171153D01*
X607066Y171202D01*
X607142Y171249D01*
X607221Y171292D01*
X607301Y171332D01*
X607383Y171368D01*
X607467Y171400D01*
X607552Y171429D01*
X607638Y171454D01*
X607725Y171475D01*
X607812Y171493D01*
X607901Y171506D01*
X607990Y171516D01*
X608079Y171522D01*
X608169Y171524D01*
X610222Y171524D01*
D17*
X877252Y166380D02*
X882252Y166380D01*
X827252Y166380D02*
X822252Y166380D01*
X822252Y246380D01*
X827252Y246380D01*
X877252Y246380D02*
X882252Y246380D01*
X882252Y166380D01*
X953452Y166380D02*
X958452Y166380D01*
X903452Y166380D02*
X898452Y166380D01*
X898452Y246380D01*
X903452Y246380D01*
X953452Y246380D02*
X958452Y246380D01*
X958452Y166380D01*
X954642Y301000D02*
X949642Y301000D01*
X899642Y301000D02*
X894642Y301000D01*
X894642Y381000D01*
X899642Y381000D01*
X949642Y381000D02*
X954642Y381000D01*
X954642Y301000D01*
X878442Y301000D02*
X873442Y301000D01*
X823442Y301000D02*
X818442Y301000D01*
X818442Y381000D01*
X823442Y381000D01*
X873442Y381000D02*
X878442Y381000D01*
X878442Y301000D01*
D10*
X489926Y142720D02*
X444714Y142720D01*
X444714Y180820D02*
X489926Y180820D01*
D13*
X475620Y161770D02*
X465390Y151770D01*
X475620Y161770D02*
X465390Y171770D01*
X465390Y151770D01*
D10*
X414510Y155928D02*
X414510Y167612D01*
X417755Y167612D01*
X417868Y167610D01*
X417981Y167604D01*
X418094Y167594D01*
X418207Y167580D01*
X418319Y167563D01*
X418430Y167541D01*
X418540Y167516D01*
X418650Y167486D01*
X418758Y167453D01*
X418865Y167416D01*
X418971Y167376D01*
X419075Y167331D01*
X419178Y167283D01*
X419279Y167232D01*
X419378Y167177D01*
X419475Y167119D01*
X419570Y167057D01*
X419663Y166992D01*
X419753Y166924D01*
X419841Y166853D01*
X419927Y166778D01*
X420010Y166701D01*
X420090Y166621D01*
X420167Y166538D01*
X420242Y166452D01*
X420313Y166364D01*
X420381Y166274D01*
X420446Y166181D01*
X420508Y166086D01*
X420566Y165989D01*
X420621Y165890D01*
X420672Y165789D01*
X420720Y165686D01*
X420765Y165582D01*
X420805Y165476D01*
X420842Y165369D01*
X420875Y165261D01*
X420905Y165151D01*
X420930Y165041D01*
X420952Y164930D01*
X420969Y164818D01*
X420983Y164705D01*
X420993Y164592D01*
X420999Y164479D01*
X421001Y164366D01*
X421001Y159174D01*
X421002Y159174D02*
X421000Y159061D01*
X420994Y158948D01*
X420984Y158835D01*
X420970Y158722D01*
X420953Y158610D01*
X420931Y158499D01*
X420906Y158389D01*
X420876Y158279D01*
X420843Y158171D01*
X420806Y158064D01*
X420766Y157958D01*
X420721Y157854D01*
X420673Y157751D01*
X420622Y157650D01*
X420567Y157551D01*
X420509Y157454D01*
X420447Y157359D01*
X420382Y157266D01*
X420314Y157176D01*
X420243Y157088D01*
X420168Y157002D01*
X420091Y156919D01*
X420011Y156839D01*
X419928Y156762D01*
X419842Y156687D01*
X419754Y156616D01*
X419664Y156548D01*
X419571Y156483D01*
X419476Y156421D01*
X419379Y156363D01*
X419280Y156308D01*
X419179Y156257D01*
X419076Y156209D01*
X418972Y156164D01*
X418866Y156124D01*
X418759Y156087D01*
X418651Y156054D01*
X418541Y156024D01*
X418431Y155999D01*
X418320Y155977D01*
X418208Y155960D01*
X418095Y155946D01*
X417982Y155936D01*
X417869Y155930D01*
X417756Y155928D01*
X417755Y155928D02*
X414510Y155928D01*
X426321Y165016D02*
X429566Y167612D01*
X429566Y155928D01*
X426321Y155928D02*
X432812Y155928D01*
X416661Y194158D02*
X416661Y205842D01*
X419906Y205842D01*
X420019Y205840D01*
X420132Y205834D01*
X420245Y205824D01*
X420358Y205810D01*
X420470Y205793D01*
X420581Y205771D01*
X420691Y205746D01*
X420801Y205716D01*
X420909Y205683D01*
X421016Y205646D01*
X421122Y205606D01*
X421226Y205561D01*
X421329Y205513D01*
X421430Y205462D01*
X421529Y205407D01*
X421626Y205349D01*
X421721Y205287D01*
X421814Y205222D01*
X421904Y205154D01*
X421992Y205083D01*
X422078Y205008D01*
X422161Y204931D01*
X422241Y204851D01*
X422318Y204768D01*
X422393Y204682D01*
X422464Y204594D01*
X422532Y204504D01*
X422597Y204411D01*
X422659Y204316D01*
X422717Y204219D01*
X422772Y204120D01*
X422823Y204019D01*
X422871Y203916D01*
X422916Y203812D01*
X422956Y203706D01*
X422993Y203599D01*
X423026Y203491D01*
X423056Y203381D01*
X423081Y203271D01*
X423103Y203160D01*
X423120Y203048D01*
X423134Y202935D01*
X423144Y202822D01*
X423150Y202709D01*
X423152Y202596D01*
X423150Y202483D01*
X423144Y202370D01*
X423134Y202257D01*
X423120Y202144D01*
X423103Y202032D01*
X423081Y201921D01*
X423056Y201811D01*
X423026Y201701D01*
X422993Y201593D01*
X422956Y201486D01*
X422916Y201380D01*
X422871Y201276D01*
X422823Y201173D01*
X422772Y201072D01*
X422717Y200973D01*
X422659Y200876D01*
X422597Y200781D01*
X422532Y200688D01*
X422464Y200598D01*
X422393Y200510D01*
X422318Y200424D01*
X422241Y200341D01*
X422161Y200261D01*
X422078Y200184D01*
X421992Y200109D01*
X421904Y200038D01*
X421814Y199970D01*
X421721Y199905D01*
X421626Y199843D01*
X421529Y199785D01*
X421430Y199730D01*
X421329Y199679D01*
X421226Y199631D01*
X421122Y199586D01*
X421016Y199546D01*
X420909Y199509D01*
X420801Y199476D01*
X420691Y199446D01*
X420581Y199421D01*
X420470Y199399D01*
X420358Y199382D01*
X420245Y199368D01*
X420132Y199358D01*
X420019Y199352D01*
X419906Y199350D01*
X419906Y199351D02*
X416661Y199351D01*
X420555Y199351D02*
X423152Y194158D01*
X428017Y203246D02*
X431262Y205842D01*
X431262Y194158D01*
X428017Y194158D02*
X434508Y194158D01*
D13*
X763860Y177170D02*
X763862Y177270D01*
X763868Y177371D01*
X763878Y177470D01*
X763892Y177570D01*
X763909Y177669D01*
X763931Y177767D01*
X763957Y177864D01*
X763986Y177960D01*
X764019Y178054D01*
X764056Y178148D01*
X764096Y178240D01*
X764140Y178330D01*
X764188Y178418D01*
X764239Y178505D01*
X764293Y178589D01*
X764351Y178671D01*
X764412Y178751D01*
X764476Y178828D01*
X764543Y178903D01*
X764613Y178975D01*
X764686Y179044D01*
X764761Y179110D01*
X764839Y179174D01*
X764919Y179234D01*
X765002Y179291D01*
X765087Y179344D01*
X765174Y179394D01*
X765263Y179441D01*
X765353Y179484D01*
X765445Y179524D01*
X765539Y179560D01*
X765634Y179592D01*
X765730Y179620D01*
X765828Y179645D01*
X765926Y179665D01*
X766025Y179682D01*
X766125Y179695D01*
X766224Y179704D01*
X766325Y179709D01*
X766425Y179710D01*
X766525Y179707D01*
X766626Y179700D01*
X766725Y179689D01*
X766825Y179674D01*
X766923Y179656D01*
X767021Y179633D01*
X767118Y179606D01*
X767213Y179576D01*
X767308Y179542D01*
X767401Y179504D01*
X767492Y179463D01*
X767582Y179418D01*
X767670Y179370D01*
X767756Y179318D01*
X767840Y179263D01*
X767921Y179204D01*
X768000Y179142D01*
X768077Y179078D01*
X768151Y179010D01*
X768222Y178939D01*
X768291Y178866D01*
X768356Y178790D01*
X768419Y178711D01*
X768478Y178630D01*
X768534Y178547D01*
X768587Y178462D01*
X768636Y178374D01*
X768682Y178285D01*
X768724Y178194D01*
X768763Y178101D01*
X768798Y178007D01*
X768829Y177912D01*
X768857Y177815D01*
X768880Y177718D01*
X768900Y177619D01*
X768916Y177520D01*
X768928Y177421D01*
X768936Y177320D01*
X768940Y177220D01*
X768940Y177120D01*
X768936Y177020D01*
X768928Y176919D01*
X768916Y176820D01*
X768900Y176721D01*
X768880Y176622D01*
X768857Y176525D01*
X768829Y176428D01*
X768798Y176333D01*
X768763Y176239D01*
X768724Y176146D01*
X768682Y176055D01*
X768636Y175966D01*
X768587Y175878D01*
X768534Y175793D01*
X768478Y175710D01*
X768419Y175629D01*
X768356Y175550D01*
X768291Y175474D01*
X768222Y175401D01*
X768151Y175330D01*
X768077Y175262D01*
X768000Y175198D01*
X767921Y175136D01*
X767840Y175077D01*
X767756Y175022D01*
X767670Y174970D01*
X767582Y174922D01*
X767492Y174877D01*
X767401Y174836D01*
X767308Y174798D01*
X767213Y174764D01*
X767118Y174734D01*
X767021Y174707D01*
X766923Y174684D01*
X766825Y174666D01*
X766725Y174651D01*
X766626Y174640D01*
X766525Y174633D01*
X766425Y174630D01*
X766325Y174631D01*
X766224Y174636D01*
X766125Y174645D01*
X766025Y174658D01*
X765926Y174675D01*
X765828Y174695D01*
X765730Y174720D01*
X765634Y174748D01*
X765539Y174780D01*
X765445Y174816D01*
X765353Y174856D01*
X765263Y174899D01*
X765174Y174946D01*
X765087Y174996D01*
X765002Y175049D01*
X764919Y175106D01*
X764839Y175166D01*
X764761Y175230D01*
X764686Y175296D01*
X764613Y175365D01*
X764543Y175437D01*
X764476Y175512D01*
X764412Y175589D01*
X764351Y175669D01*
X764293Y175751D01*
X764239Y175835D01*
X764188Y175922D01*
X764140Y176010D01*
X764096Y176100D01*
X764056Y176192D01*
X764019Y176286D01*
X763986Y176380D01*
X763957Y176476D01*
X763931Y176573D01*
X763909Y176671D01*
X763892Y176770D01*
X763878Y176870D01*
X763868Y176969D01*
X763862Y177070D01*
X763860Y177170D01*
X761704Y167060D02*
X761704Y205060D01*
X809704Y205060D02*
X809704Y167060D01*
D11*
X770416Y182172D02*
X770416Y188776D01*
X773351Y188776D01*
X773351Y185841D02*
X770416Y185841D01*
X776756Y188776D02*
X776756Y182172D01*
X779691Y182172D01*
X782461Y182172D02*
X784662Y188776D01*
X786863Y182172D01*
X786313Y183823D02*
X783011Y183823D01*
X792100Y182172D02*
X792174Y182174D01*
X792248Y182180D01*
X792322Y182189D01*
X792395Y182202D01*
X792468Y182219D01*
X792539Y182239D01*
X792610Y182263D01*
X792679Y182291D01*
X792746Y182322D01*
X792812Y182356D01*
X792877Y182394D01*
X792939Y182435D01*
X792999Y182479D01*
X793056Y182526D01*
X793111Y182576D01*
X793164Y182629D01*
X793214Y182684D01*
X793261Y182741D01*
X793305Y182801D01*
X793346Y182863D01*
X793384Y182928D01*
X793418Y182993D01*
X793449Y183061D01*
X793477Y183130D01*
X793501Y183201D01*
X793521Y183272D01*
X793538Y183344D01*
X793551Y183418D01*
X793560Y183491D01*
X793566Y183566D01*
X793568Y183640D01*
X792100Y182172D02*
X791989Y182174D01*
X791878Y182180D01*
X791767Y182190D01*
X791656Y182204D01*
X791547Y182222D01*
X791438Y182244D01*
X791329Y182269D01*
X791222Y182299D01*
X791116Y182332D01*
X791011Y182370D01*
X790908Y182410D01*
X790806Y182455D01*
X790706Y182503D01*
X790607Y182555D01*
X790511Y182610D01*
X790416Y182669D01*
X790324Y182731D01*
X790234Y182797D01*
X790146Y182865D01*
X790061Y182937D01*
X789979Y183012D01*
X789899Y183089D01*
X790082Y187308D02*
X790084Y187382D01*
X790090Y187457D01*
X790099Y187530D01*
X790112Y187604D01*
X790129Y187676D01*
X790149Y187747D01*
X790173Y187818D01*
X790201Y187887D01*
X790232Y187954D01*
X790266Y188020D01*
X790304Y188085D01*
X790345Y188147D01*
X790389Y188207D01*
X790436Y188264D01*
X790486Y188319D01*
X790539Y188372D01*
X790594Y188422D01*
X790651Y188469D01*
X790711Y188513D01*
X790773Y188554D01*
X790838Y188592D01*
X790904Y188626D01*
X790971Y188657D01*
X791040Y188685D01*
X791111Y188709D01*
X791182Y188729D01*
X791254Y188746D01*
X791328Y188759D01*
X791401Y188768D01*
X791476Y188774D01*
X791550Y188776D01*
X791654Y188774D01*
X791758Y188768D01*
X791862Y188758D01*
X791965Y188745D01*
X792068Y188727D01*
X792170Y188705D01*
X792271Y188680D01*
X792371Y188651D01*
X792470Y188618D01*
X792567Y188581D01*
X792663Y188541D01*
X792758Y188497D01*
X792850Y188449D01*
X792941Y188399D01*
X793030Y188344D01*
X793117Y188287D01*
X793201Y188226D01*
X790816Y186023D02*
X790753Y186062D01*
X790693Y186104D01*
X790635Y186149D01*
X790578Y186197D01*
X790525Y186248D01*
X790474Y186301D01*
X790425Y186356D01*
X790380Y186414D01*
X790337Y186474D01*
X790297Y186536D01*
X790261Y186600D01*
X790227Y186666D01*
X790197Y186734D01*
X790170Y186802D01*
X790147Y186872D01*
X790127Y186943D01*
X790111Y187015D01*
X790098Y187088D01*
X790089Y187161D01*
X790084Y187234D01*
X790082Y187308D01*
X792834Y184925D02*
X792897Y184886D01*
X792957Y184844D01*
X793016Y184799D01*
X793072Y184751D01*
X793125Y184700D01*
X793176Y184647D01*
X793225Y184592D01*
X793270Y184534D01*
X793313Y184474D01*
X793353Y184412D01*
X793389Y184348D01*
X793423Y184282D01*
X793453Y184214D01*
X793480Y184146D01*
X793503Y184076D01*
X793523Y184005D01*
X793539Y183933D01*
X793552Y183860D01*
X793561Y183787D01*
X793566Y183714D01*
X793568Y183640D01*
X792834Y184924D02*
X790816Y186024D01*
X797214Y188776D02*
X797214Y182172D01*
X797214Y185841D02*
X800883Y185841D01*
X800883Y188776D02*
X800883Y182172D01*
D14*
X525879Y264543D02*
X523791Y264543D01*
X523702Y264545D01*
X523614Y264551D01*
X523526Y264560D01*
X523438Y264573D01*
X523351Y264590D01*
X523265Y264610D01*
X523180Y264635D01*
X523095Y264662D01*
X523012Y264694D01*
X522931Y264728D01*
X522851Y264767D01*
X522773Y264808D01*
X522696Y264853D01*
X522622Y264901D01*
X522549Y264952D01*
X522479Y265006D01*
X522412Y265064D01*
X522346Y265124D01*
X522284Y265186D01*
X522224Y265252D01*
X522166Y265319D01*
X522112Y265389D01*
X522061Y265462D01*
X522013Y265536D01*
X521968Y265613D01*
X521927Y265691D01*
X521888Y265771D01*
X521854Y265852D01*
X521822Y265935D01*
X521795Y266020D01*
X521770Y266105D01*
X521750Y266191D01*
X521733Y266278D01*
X521720Y266366D01*
X521711Y266454D01*
X521705Y266542D01*
X521703Y266631D01*
X521702Y266631D02*
X521702Y271853D01*
X521703Y271853D02*
X521705Y271944D01*
X521711Y272035D01*
X521721Y272126D01*
X521735Y272216D01*
X521752Y272305D01*
X521774Y272393D01*
X521800Y272481D01*
X521829Y272567D01*
X521862Y272652D01*
X521899Y272735D01*
X521939Y272817D01*
X521983Y272897D01*
X522030Y272975D01*
X522081Y273051D01*
X522134Y273124D01*
X522191Y273195D01*
X522252Y273264D01*
X522315Y273329D01*
X522380Y273392D01*
X522449Y273452D01*
X522520Y273510D01*
X522593Y273563D01*
X522669Y273614D01*
X522747Y273661D01*
X522827Y273705D01*
X522909Y273745D01*
X522992Y273782D01*
X523077Y273815D01*
X523163Y273844D01*
X523251Y273870D01*
X523339Y273892D01*
X523428Y273909D01*
X523518Y273923D01*
X523609Y273933D01*
X523700Y273939D01*
X523791Y273941D01*
X525879Y273941D01*
X532220Y273942D02*
X532315Y273940D01*
X532409Y273934D01*
X532503Y273925D01*
X532597Y273912D01*
X532690Y273895D01*
X532782Y273874D01*
X532874Y273849D01*
X532964Y273821D01*
X533053Y273789D01*
X533141Y273754D01*
X533227Y273715D01*
X533312Y273673D01*
X533395Y273627D01*
X533476Y273578D01*
X533555Y273526D01*
X533632Y273471D01*
X533706Y273412D01*
X533778Y273351D01*
X533848Y273287D01*
X533915Y273220D01*
X533979Y273150D01*
X534040Y273078D01*
X534099Y273004D01*
X534154Y272927D01*
X534206Y272848D01*
X534255Y272767D01*
X534301Y272684D01*
X534343Y272599D01*
X534382Y272513D01*
X534417Y272425D01*
X534449Y272336D01*
X534477Y272246D01*
X534502Y272154D01*
X534523Y272062D01*
X534540Y271969D01*
X534553Y271875D01*
X534562Y271781D01*
X534568Y271687D01*
X534570Y271592D01*
X532220Y273941D02*
X532112Y273939D01*
X532003Y273933D01*
X531895Y273923D01*
X531788Y273910D01*
X531681Y273892D01*
X531574Y273871D01*
X531469Y273846D01*
X531364Y273817D01*
X531261Y273785D01*
X531159Y273748D01*
X531058Y273708D01*
X530959Y273665D01*
X530861Y273618D01*
X530765Y273567D01*
X530671Y273513D01*
X530579Y273456D01*
X530489Y273395D01*
X530401Y273331D01*
X530316Y273265D01*
X530233Y273195D01*
X530153Y273122D01*
X530075Y273046D01*
X530000Y272968D01*
X529928Y272887D01*
X529859Y272803D01*
X529793Y272717D01*
X529730Y272629D01*
X529671Y272538D01*
X529614Y272446D01*
X529561Y272351D01*
X529512Y272255D01*
X529466Y272156D01*
X529423Y272057D01*
X529384Y271955D01*
X529349Y271853D01*
X533786Y269764D02*
X533855Y269833D01*
X533921Y269904D01*
X533985Y269977D01*
X534046Y270053D01*
X534104Y270132D01*
X534158Y270212D01*
X534210Y270295D01*
X534258Y270379D01*
X534304Y270465D01*
X534345Y270553D01*
X534384Y270643D01*
X534419Y270734D01*
X534450Y270826D01*
X534478Y270919D01*
X534502Y271013D01*
X534522Y271108D01*
X534539Y271204D01*
X534552Y271301D01*
X534561Y271398D01*
X534567Y271495D01*
X534569Y271592D01*
X533786Y269764D02*
X529348Y264543D01*
X534569Y264543D01*
X628537Y481699D02*
X630625Y481699D01*
X628537Y481699D02*
X628448Y481701D01*
X628360Y481707D01*
X628272Y481716D01*
X628184Y481729D01*
X628097Y481746D01*
X628011Y481766D01*
X627926Y481791D01*
X627841Y481818D01*
X627758Y481850D01*
X627677Y481884D01*
X627597Y481923D01*
X627519Y481964D01*
X627442Y482009D01*
X627368Y482057D01*
X627295Y482108D01*
X627225Y482162D01*
X627158Y482220D01*
X627092Y482280D01*
X627030Y482342D01*
X626970Y482408D01*
X626912Y482475D01*
X626858Y482545D01*
X626807Y482618D01*
X626759Y482692D01*
X626714Y482769D01*
X626673Y482847D01*
X626634Y482927D01*
X626600Y483008D01*
X626568Y483091D01*
X626541Y483176D01*
X626516Y483261D01*
X626496Y483347D01*
X626479Y483434D01*
X626466Y483522D01*
X626457Y483610D01*
X626451Y483698D01*
X626449Y483787D01*
X626448Y483787D02*
X626448Y489009D01*
X626449Y489009D02*
X626451Y489100D01*
X626457Y489191D01*
X626467Y489282D01*
X626481Y489372D01*
X626498Y489461D01*
X626520Y489549D01*
X626546Y489637D01*
X626575Y489723D01*
X626608Y489808D01*
X626645Y489891D01*
X626685Y489973D01*
X626729Y490053D01*
X626776Y490131D01*
X626827Y490207D01*
X626880Y490280D01*
X626937Y490351D01*
X626998Y490420D01*
X627061Y490485D01*
X627126Y490548D01*
X627195Y490608D01*
X627266Y490666D01*
X627339Y490719D01*
X627415Y490770D01*
X627493Y490817D01*
X627573Y490861D01*
X627655Y490901D01*
X627738Y490938D01*
X627823Y490971D01*
X627909Y491000D01*
X627997Y491026D01*
X628085Y491048D01*
X628174Y491065D01*
X628264Y491079D01*
X628355Y491089D01*
X628446Y491095D01*
X628537Y491097D01*
X630625Y491097D01*
X634094Y481699D02*
X636704Y481699D01*
X636805Y481701D01*
X636906Y481707D01*
X637007Y481717D01*
X637107Y481730D01*
X637207Y481748D01*
X637306Y481769D01*
X637404Y481795D01*
X637501Y481824D01*
X637597Y481856D01*
X637691Y481893D01*
X637784Y481933D01*
X637876Y481977D01*
X637965Y482024D01*
X638053Y482075D01*
X638139Y482129D01*
X638222Y482186D01*
X638304Y482246D01*
X638382Y482310D01*
X638459Y482376D01*
X638532Y482446D01*
X638603Y482518D01*
X638671Y482593D01*
X638736Y482671D01*
X638798Y482751D01*
X638857Y482833D01*
X638913Y482918D01*
X638965Y483005D01*
X639014Y483093D01*
X639060Y483184D01*
X639101Y483276D01*
X639140Y483370D01*
X639174Y483465D01*
X639205Y483561D01*
X639232Y483659D01*
X639256Y483757D01*
X639275Y483857D01*
X639291Y483957D01*
X639303Y484057D01*
X639311Y484158D01*
X639315Y484259D01*
X639315Y484361D01*
X639311Y484462D01*
X639303Y484563D01*
X639291Y484663D01*
X639275Y484763D01*
X639256Y484863D01*
X639232Y484961D01*
X639205Y485059D01*
X639174Y485155D01*
X639140Y485250D01*
X639101Y485344D01*
X639060Y485436D01*
X639014Y485527D01*
X638965Y485615D01*
X638913Y485702D01*
X638857Y485787D01*
X638798Y485869D01*
X638736Y485949D01*
X638671Y486027D01*
X638603Y486102D01*
X638532Y486174D01*
X638459Y486244D01*
X638382Y486310D01*
X638304Y486374D01*
X638222Y486434D01*
X638139Y486491D01*
X638053Y486545D01*
X637965Y486596D01*
X637876Y486643D01*
X637784Y486687D01*
X637691Y486727D01*
X637597Y486764D01*
X637501Y486796D01*
X637404Y486825D01*
X637306Y486851D01*
X637207Y486872D01*
X637107Y486890D01*
X637007Y486903D01*
X636906Y486913D01*
X636805Y486919D01*
X636704Y486921D01*
X637227Y491097D02*
X634094Y491097D01*
X637227Y491097D02*
X637317Y491095D01*
X637406Y491089D01*
X637496Y491080D01*
X637585Y491066D01*
X637673Y491049D01*
X637760Y491028D01*
X637847Y491003D01*
X637932Y490974D01*
X638016Y490942D01*
X638098Y490907D01*
X638179Y490867D01*
X638258Y490825D01*
X638335Y490779D01*
X638410Y490729D01*
X638483Y490677D01*
X638554Y490621D01*
X638622Y490563D01*
X638687Y490501D01*
X638750Y490437D01*
X638810Y490370D01*
X638867Y490301D01*
X638921Y490229D01*
X638972Y490155D01*
X639020Y490079D01*
X639064Y490001D01*
X639105Y489921D01*
X639143Y489839D01*
X639177Y489756D01*
X639207Y489671D01*
X639234Y489585D01*
X639257Y489499D01*
X639276Y489411D01*
X639291Y489322D01*
X639303Y489233D01*
X639311Y489144D01*
X639315Y489054D01*
X639315Y488964D01*
X639311Y488874D01*
X639303Y488785D01*
X639291Y488696D01*
X639276Y488607D01*
X639257Y488519D01*
X639234Y488433D01*
X639207Y488347D01*
X639177Y488262D01*
X639143Y488179D01*
X639105Y488097D01*
X639064Y488017D01*
X639020Y487939D01*
X638972Y487863D01*
X638921Y487789D01*
X638867Y487717D01*
X638810Y487648D01*
X638750Y487581D01*
X638687Y487517D01*
X638622Y487455D01*
X638554Y487397D01*
X638483Y487341D01*
X638410Y487289D01*
X638335Y487239D01*
X638258Y487193D01*
X638179Y487151D01*
X638098Y487111D01*
X638016Y487076D01*
X637932Y487044D01*
X637847Y487015D01*
X637760Y486990D01*
X637673Y486969D01*
X637585Y486952D01*
X637496Y486938D01*
X637406Y486929D01*
X637317Y486923D01*
X637227Y486921D01*
X637227Y486920D02*
X635138Y486920D01*
X916765Y129581D02*
X918854Y129581D01*
X916765Y129581D02*
X916676Y129583D01*
X916588Y129589D01*
X916500Y129598D01*
X916412Y129611D01*
X916325Y129628D01*
X916239Y129648D01*
X916154Y129673D01*
X916069Y129700D01*
X915986Y129732D01*
X915905Y129766D01*
X915825Y129805D01*
X915747Y129846D01*
X915670Y129891D01*
X915596Y129939D01*
X915523Y129990D01*
X915453Y130044D01*
X915386Y130102D01*
X915320Y130162D01*
X915258Y130224D01*
X915198Y130290D01*
X915140Y130357D01*
X915086Y130427D01*
X915035Y130500D01*
X914987Y130574D01*
X914942Y130651D01*
X914901Y130729D01*
X914862Y130809D01*
X914828Y130890D01*
X914796Y130973D01*
X914769Y131058D01*
X914744Y131143D01*
X914724Y131229D01*
X914707Y131316D01*
X914694Y131404D01*
X914685Y131492D01*
X914679Y131580D01*
X914677Y131669D01*
X914677Y136891D01*
X914679Y136982D01*
X914685Y137073D01*
X914695Y137164D01*
X914709Y137254D01*
X914726Y137343D01*
X914748Y137431D01*
X914774Y137519D01*
X914803Y137605D01*
X914836Y137690D01*
X914873Y137773D01*
X914913Y137855D01*
X914957Y137935D01*
X915004Y138013D01*
X915055Y138089D01*
X915108Y138162D01*
X915165Y138233D01*
X915226Y138302D01*
X915289Y138367D01*
X915354Y138430D01*
X915423Y138490D01*
X915494Y138548D01*
X915567Y138601D01*
X915643Y138652D01*
X915721Y138699D01*
X915801Y138743D01*
X915883Y138783D01*
X915966Y138820D01*
X916051Y138853D01*
X916137Y138882D01*
X916225Y138908D01*
X916313Y138930D01*
X916402Y138947D01*
X916492Y138961D01*
X916583Y138971D01*
X916674Y138977D01*
X916765Y138979D01*
X918854Y138979D01*
X924411Y138979D02*
X922322Y131669D01*
X927543Y131669D01*
X925977Y133758D02*
X925977Y129581D01*
X842664Y129581D02*
X840575Y129581D01*
X840486Y129583D01*
X840398Y129589D01*
X840310Y129598D01*
X840222Y129611D01*
X840135Y129628D01*
X840049Y129648D01*
X839964Y129673D01*
X839879Y129700D01*
X839796Y129732D01*
X839715Y129766D01*
X839635Y129805D01*
X839557Y129846D01*
X839480Y129891D01*
X839406Y129939D01*
X839333Y129990D01*
X839263Y130044D01*
X839196Y130102D01*
X839130Y130162D01*
X839068Y130224D01*
X839008Y130290D01*
X838950Y130357D01*
X838896Y130427D01*
X838845Y130500D01*
X838797Y130574D01*
X838752Y130651D01*
X838711Y130729D01*
X838672Y130809D01*
X838638Y130890D01*
X838606Y130973D01*
X838579Y131058D01*
X838554Y131143D01*
X838534Y131229D01*
X838517Y131316D01*
X838504Y131404D01*
X838495Y131492D01*
X838489Y131580D01*
X838487Y131669D01*
X838487Y136891D01*
X838489Y136982D01*
X838495Y137073D01*
X838505Y137164D01*
X838519Y137254D01*
X838536Y137343D01*
X838558Y137431D01*
X838584Y137519D01*
X838613Y137605D01*
X838646Y137690D01*
X838683Y137773D01*
X838723Y137855D01*
X838767Y137935D01*
X838814Y138013D01*
X838865Y138089D01*
X838918Y138162D01*
X838975Y138233D01*
X839036Y138302D01*
X839099Y138367D01*
X839164Y138430D01*
X839233Y138490D01*
X839304Y138548D01*
X839377Y138601D01*
X839453Y138652D01*
X839531Y138699D01*
X839611Y138743D01*
X839693Y138783D01*
X839776Y138820D01*
X839861Y138853D01*
X839947Y138882D01*
X840035Y138908D01*
X840123Y138930D01*
X840212Y138947D01*
X840302Y138961D01*
X840393Y138971D01*
X840484Y138977D01*
X840575Y138979D01*
X842664Y138979D01*
X846132Y129581D02*
X849265Y129581D01*
X849354Y129583D01*
X849442Y129589D01*
X849530Y129598D01*
X849618Y129611D01*
X849705Y129628D01*
X849791Y129648D01*
X849876Y129673D01*
X849961Y129700D01*
X850044Y129732D01*
X850125Y129766D01*
X850205Y129805D01*
X850283Y129846D01*
X850360Y129891D01*
X850434Y129939D01*
X850507Y129990D01*
X850577Y130044D01*
X850644Y130102D01*
X850710Y130162D01*
X850772Y130224D01*
X850832Y130290D01*
X850890Y130357D01*
X850944Y130427D01*
X850995Y130500D01*
X851043Y130574D01*
X851088Y130651D01*
X851129Y130729D01*
X851168Y130809D01*
X851202Y130890D01*
X851234Y130973D01*
X851261Y131058D01*
X851286Y131143D01*
X851306Y131229D01*
X851323Y131316D01*
X851336Y131404D01*
X851345Y131492D01*
X851351Y131580D01*
X851353Y131669D01*
X851353Y132714D01*
X851351Y132803D01*
X851345Y132891D01*
X851336Y132979D01*
X851323Y133067D01*
X851306Y133154D01*
X851286Y133240D01*
X851261Y133325D01*
X851234Y133410D01*
X851202Y133493D01*
X851168Y133574D01*
X851129Y133654D01*
X851088Y133732D01*
X851043Y133809D01*
X850995Y133883D01*
X850944Y133956D01*
X850890Y134026D01*
X850832Y134093D01*
X850772Y134159D01*
X850710Y134221D01*
X850644Y134281D01*
X850577Y134339D01*
X850507Y134393D01*
X850434Y134444D01*
X850360Y134492D01*
X850283Y134537D01*
X850205Y134578D01*
X850125Y134617D01*
X850044Y134651D01*
X849961Y134683D01*
X849876Y134710D01*
X849791Y134735D01*
X849705Y134755D01*
X849618Y134772D01*
X849530Y134785D01*
X849442Y134794D01*
X849354Y134800D01*
X849265Y134802D01*
X846132Y134802D01*
X846132Y138979D01*
X851353Y138979D01*
X904733Y263391D02*
X906822Y263391D01*
X904733Y263391D02*
X904644Y263393D01*
X904556Y263399D01*
X904468Y263408D01*
X904380Y263421D01*
X904293Y263438D01*
X904207Y263458D01*
X904122Y263483D01*
X904037Y263510D01*
X903954Y263542D01*
X903873Y263576D01*
X903793Y263615D01*
X903715Y263656D01*
X903638Y263701D01*
X903564Y263749D01*
X903491Y263800D01*
X903421Y263854D01*
X903354Y263912D01*
X903288Y263972D01*
X903226Y264034D01*
X903166Y264100D01*
X903108Y264167D01*
X903054Y264237D01*
X903003Y264310D01*
X902955Y264384D01*
X902910Y264461D01*
X902869Y264539D01*
X902830Y264619D01*
X902796Y264700D01*
X902764Y264783D01*
X902737Y264868D01*
X902712Y264953D01*
X902692Y265039D01*
X902675Y265126D01*
X902662Y265214D01*
X902653Y265302D01*
X902647Y265390D01*
X902645Y265479D01*
X902645Y270701D01*
X902647Y270792D01*
X902653Y270883D01*
X902663Y270974D01*
X902677Y271064D01*
X902694Y271153D01*
X902716Y271241D01*
X902742Y271329D01*
X902771Y271415D01*
X902804Y271500D01*
X902841Y271583D01*
X902881Y271665D01*
X902925Y271745D01*
X902972Y271823D01*
X903023Y271899D01*
X903076Y271972D01*
X903133Y272043D01*
X903194Y272112D01*
X903257Y272177D01*
X903322Y272240D01*
X903391Y272300D01*
X903462Y272358D01*
X903535Y272411D01*
X903611Y272462D01*
X903689Y272509D01*
X903769Y272553D01*
X903851Y272593D01*
X903934Y272630D01*
X904019Y272663D01*
X904105Y272692D01*
X904193Y272718D01*
X904281Y272740D01*
X904370Y272757D01*
X904460Y272771D01*
X904551Y272781D01*
X904642Y272787D01*
X904733Y272789D01*
X906822Y272789D01*
X910290Y270701D02*
X912901Y272789D01*
X912901Y263391D01*
X915511Y263391D02*
X910290Y263391D01*
X919434Y268090D02*
X919436Y268275D01*
X919443Y268460D01*
X919454Y268644D01*
X919469Y268828D01*
X919489Y269012D01*
X919513Y269196D01*
X919542Y269378D01*
X919575Y269560D01*
X919612Y269741D01*
X919654Y269921D01*
X919700Y270101D01*
X919750Y270279D01*
X919804Y270455D01*
X919863Y270631D01*
X919925Y270805D01*
X919992Y270977D01*
X920063Y271148D01*
X920138Y271317D01*
X920217Y271484D01*
X920247Y271564D01*
X920280Y271643D01*
X920317Y271720D01*
X920357Y271796D01*
X920400Y271870D01*
X920446Y271942D01*
X920496Y272011D01*
X920548Y272079D01*
X920604Y272144D01*
X920662Y272207D01*
X920724Y272266D01*
X920787Y272324D01*
X920854Y272378D01*
X920922Y272429D01*
X920993Y272477D01*
X921066Y272522D01*
X921140Y272564D01*
X921217Y272602D01*
X921295Y272637D01*
X921374Y272669D01*
X921455Y272697D01*
X921537Y272721D01*
X921621Y272742D01*
X921704Y272759D01*
X921789Y272772D01*
X921874Y272781D01*
X921959Y272787D01*
X922045Y272789D01*
X922131Y272787D01*
X922216Y272781D01*
X922301Y272772D01*
X922386Y272759D01*
X922469Y272742D01*
X922553Y272721D01*
X922635Y272697D01*
X922716Y272669D01*
X922795Y272637D01*
X922873Y272602D01*
X922950Y272564D01*
X923024Y272522D01*
X923097Y272477D01*
X923168Y272429D01*
X923236Y272378D01*
X923303Y272324D01*
X923366Y272266D01*
X923428Y272207D01*
X923486Y272144D01*
X923542Y272079D01*
X923594Y272011D01*
X923644Y271942D01*
X923690Y271870D01*
X923733Y271796D01*
X923773Y271720D01*
X923810Y271643D01*
X923843Y271564D01*
X923873Y271484D01*
X923952Y271317D01*
X924027Y271148D01*
X924098Y270977D01*
X924165Y270805D01*
X924227Y270631D01*
X924286Y270455D01*
X924340Y270279D01*
X924390Y270101D01*
X924436Y269921D01*
X924478Y269741D01*
X924515Y269560D01*
X924548Y269378D01*
X924577Y269196D01*
X924601Y269012D01*
X924621Y268828D01*
X924636Y268644D01*
X924647Y268460D01*
X924654Y268275D01*
X924656Y268090D01*
X919434Y268090D02*
X919436Y267905D01*
X919443Y267720D01*
X919454Y267536D01*
X919469Y267352D01*
X919489Y267168D01*
X919513Y266984D01*
X919542Y266802D01*
X919575Y266620D01*
X919612Y266439D01*
X919654Y266259D01*
X919700Y266079D01*
X919750Y265901D01*
X919804Y265725D01*
X919863Y265549D01*
X919925Y265375D01*
X919992Y265203D01*
X920063Y265032D01*
X920138Y264863D01*
X920217Y264696D01*
X920247Y264616D01*
X920280Y264537D01*
X920317Y264460D01*
X920357Y264384D01*
X920400Y264310D01*
X920446Y264238D01*
X920496Y264169D01*
X920549Y264101D01*
X920604Y264036D01*
X920663Y263973D01*
X920724Y263914D01*
X920787Y263856D01*
X920854Y263802D01*
X920922Y263751D01*
X920993Y263703D01*
X921066Y263658D01*
X921140Y263616D01*
X921217Y263578D01*
X921295Y263543D01*
X921374Y263511D01*
X921455Y263483D01*
X921537Y263459D01*
X921621Y263438D01*
X921704Y263421D01*
X921789Y263408D01*
X921874Y263399D01*
X921959Y263393D01*
X922045Y263391D01*
X923873Y264696D02*
X923952Y264863D01*
X924027Y265032D01*
X924098Y265203D01*
X924165Y265375D01*
X924227Y265549D01*
X924286Y265725D01*
X924340Y265901D01*
X924390Y266079D01*
X924436Y266259D01*
X924478Y266439D01*
X924515Y266620D01*
X924548Y266802D01*
X924577Y266984D01*
X924601Y267168D01*
X924621Y267352D01*
X924636Y267536D01*
X924647Y267720D01*
X924654Y267905D01*
X924656Y268090D01*
X923873Y264696D02*
X923843Y264616D01*
X923810Y264537D01*
X923773Y264460D01*
X923733Y264384D01*
X923690Y264310D01*
X923644Y264238D01*
X923594Y264169D01*
X923542Y264101D01*
X923486Y264036D01*
X923428Y263973D01*
X923366Y263914D01*
X923303Y263856D01*
X923236Y263802D01*
X923168Y263751D01*
X923097Y263703D01*
X923024Y263658D01*
X922950Y263616D01*
X922873Y263578D01*
X922795Y263543D01*
X922716Y263511D01*
X922635Y263483D01*
X922553Y263459D01*
X922469Y263438D01*
X922386Y263421D01*
X922301Y263408D01*
X922216Y263399D01*
X922131Y263393D01*
X922045Y263391D01*
X919956Y265479D02*
X924133Y270701D01*
X843172Y259741D02*
X841083Y259741D01*
X840994Y259743D01*
X840906Y259749D01*
X840818Y259758D01*
X840730Y259771D01*
X840643Y259788D01*
X840557Y259808D01*
X840472Y259833D01*
X840387Y259860D01*
X840304Y259892D01*
X840223Y259926D01*
X840143Y259965D01*
X840065Y260006D01*
X839988Y260051D01*
X839914Y260099D01*
X839841Y260150D01*
X839771Y260204D01*
X839704Y260262D01*
X839638Y260322D01*
X839576Y260384D01*
X839516Y260450D01*
X839458Y260517D01*
X839404Y260587D01*
X839353Y260660D01*
X839305Y260734D01*
X839260Y260811D01*
X839219Y260889D01*
X839180Y260969D01*
X839146Y261050D01*
X839114Y261133D01*
X839087Y261218D01*
X839062Y261303D01*
X839042Y261389D01*
X839025Y261476D01*
X839012Y261564D01*
X839003Y261652D01*
X838997Y261740D01*
X838995Y261829D01*
X838995Y267051D01*
X838997Y267142D01*
X839003Y267233D01*
X839013Y267324D01*
X839027Y267414D01*
X839044Y267503D01*
X839066Y267591D01*
X839092Y267679D01*
X839121Y267765D01*
X839154Y267850D01*
X839191Y267933D01*
X839231Y268015D01*
X839275Y268095D01*
X839322Y268173D01*
X839373Y268249D01*
X839426Y268322D01*
X839483Y268393D01*
X839544Y268462D01*
X839607Y268527D01*
X839672Y268590D01*
X839741Y268650D01*
X839812Y268708D01*
X839885Y268761D01*
X839961Y268812D01*
X840039Y268859D01*
X840119Y268903D01*
X840201Y268943D01*
X840284Y268980D01*
X840369Y269013D01*
X840455Y269042D01*
X840543Y269068D01*
X840631Y269090D01*
X840720Y269107D01*
X840810Y269121D01*
X840901Y269131D01*
X840992Y269137D01*
X841083Y269139D01*
X843172Y269139D01*
X846640Y267051D02*
X849251Y269139D01*
X849251Y259741D01*
X851861Y259741D02*
X846640Y259741D01*
X855784Y267051D02*
X858395Y269139D01*
X858395Y259741D01*
X861005Y259741D02*
X855784Y259741D01*
X795572Y263109D02*
X793483Y263109D01*
X793394Y263111D01*
X793306Y263117D01*
X793218Y263126D01*
X793130Y263139D01*
X793043Y263156D01*
X792957Y263176D01*
X792872Y263201D01*
X792787Y263228D01*
X792704Y263260D01*
X792623Y263294D01*
X792543Y263333D01*
X792465Y263374D01*
X792388Y263419D01*
X792314Y263467D01*
X792241Y263518D01*
X792171Y263572D01*
X792104Y263630D01*
X792038Y263690D01*
X791976Y263752D01*
X791916Y263818D01*
X791858Y263885D01*
X791804Y263955D01*
X791753Y264028D01*
X791705Y264102D01*
X791660Y264179D01*
X791619Y264257D01*
X791580Y264337D01*
X791546Y264418D01*
X791514Y264501D01*
X791487Y264586D01*
X791462Y264671D01*
X791442Y264757D01*
X791425Y264844D01*
X791412Y264932D01*
X791403Y265020D01*
X791397Y265108D01*
X791395Y265197D01*
X791395Y270419D01*
X791397Y270510D01*
X791403Y270601D01*
X791413Y270692D01*
X791427Y270782D01*
X791444Y270871D01*
X791466Y270959D01*
X791492Y271047D01*
X791521Y271133D01*
X791554Y271218D01*
X791591Y271301D01*
X791631Y271383D01*
X791675Y271463D01*
X791722Y271541D01*
X791773Y271617D01*
X791826Y271690D01*
X791883Y271761D01*
X791944Y271830D01*
X792007Y271895D01*
X792072Y271958D01*
X792141Y272018D01*
X792212Y272076D01*
X792285Y272129D01*
X792361Y272180D01*
X792439Y272227D01*
X792519Y272271D01*
X792601Y272311D01*
X792684Y272348D01*
X792769Y272381D01*
X792855Y272410D01*
X792943Y272436D01*
X793031Y272458D01*
X793120Y272475D01*
X793210Y272489D01*
X793301Y272499D01*
X793392Y272505D01*
X793483Y272507D01*
X795572Y272507D01*
X799041Y270419D02*
X801651Y272507D01*
X801651Y263109D01*
X799041Y263109D02*
X804262Y263109D01*
X813406Y270158D02*
X813404Y270253D01*
X813398Y270347D01*
X813389Y270441D01*
X813376Y270535D01*
X813359Y270628D01*
X813338Y270720D01*
X813313Y270812D01*
X813285Y270902D01*
X813253Y270991D01*
X813218Y271079D01*
X813179Y271165D01*
X813137Y271250D01*
X813091Y271333D01*
X813042Y271414D01*
X812990Y271493D01*
X812935Y271570D01*
X812876Y271644D01*
X812815Y271716D01*
X812751Y271786D01*
X812684Y271853D01*
X812614Y271917D01*
X812542Y271978D01*
X812468Y272037D01*
X812391Y272092D01*
X812312Y272144D01*
X812231Y272193D01*
X812148Y272239D01*
X812063Y272281D01*
X811977Y272320D01*
X811889Y272355D01*
X811800Y272387D01*
X811710Y272415D01*
X811618Y272440D01*
X811526Y272461D01*
X811433Y272478D01*
X811339Y272491D01*
X811245Y272500D01*
X811151Y272506D01*
X811056Y272508D01*
X811056Y272507D02*
X810948Y272505D01*
X810839Y272499D01*
X810731Y272489D01*
X810624Y272476D01*
X810517Y272458D01*
X810410Y272437D01*
X810305Y272412D01*
X810200Y272383D01*
X810097Y272351D01*
X809995Y272314D01*
X809894Y272274D01*
X809795Y272231D01*
X809697Y272184D01*
X809601Y272133D01*
X809507Y272079D01*
X809415Y272022D01*
X809325Y271961D01*
X809237Y271897D01*
X809152Y271831D01*
X809069Y271761D01*
X808989Y271688D01*
X808911Y271612D01*
X808836Y271534D01*
X808764Y271453D01*
X808695Y271369D01*
X808629Y271283D01*
X808566Y271195D01*
X808507Y271104D01*
X808450Y271012D01*
X808397Y270917D01*
X808348Y270821D01*
X808302Y270722D01*
X808259Y270623D01*
X808220Y270521D01*
X808185Y270419D01*
X812623Y268330D02*
X812692Y268399D01*
X812758Y268470D01*
X812822Y268543D01*
X812883Y268619D01*
X812941Y268698D01*
X812995Y268778D01*
X813047Y268861D01*
X813095Y268945D01*
X813141Y269031D01*
X813182Y269119D01*
X813221Y269209D01*
X813256Y269300D01*
X813287Y269392D01*
X813315Y269485D01*
X813339Y269579D01*
X813359Y269674D01*
X813376Y269770D01*
X813389Y269867D01*
X813398Y269964D01*
X813404Y270061D01*
X813406Y270158D01*
X812623Y268330D02*
X808185Y263109D01*
X813406Y263109D01*
X549776Y188979D02*
X547687Y188979D01*
X547598Y188981D01*
X547510Y188987D01*
X547422Y188996D01*
X547334Y189009D01*
X547247Y189026D01*
X547161Y189046D01*
X547076Y189071D01*
X546991Y189098D01*
X546908Y189130D01*
X546827Y189164D01*
X546747Y189203D01*
X546669Y189244D01*
X546592Y189289D01*
X546518Y189337D01*
X546445Y189388D01*
X546375Y189442D01*
X546308Y189500D01*
X546242Y189560D01*
X546180Y189622D01*
X546120Y189688D01*
X546062Y189755D01*
X546008Y189825D01*
X545957Y189898D01*
X545909Y189972D01*
X545864Y190049D01*
X545823Y190127D01*
X545784Y190207D01*
X545750Y190288D01*
X545718Y190371D01*
X545691Y190456D01*
X545666Y190541D01*
X545646Y190627D01*
X545629Y190714D01*
X545616Y190802D01*
X545607Y190890D01*
X545601Y190978D01*
X545599Y191067D01*
X545599Y196289D01*
X545601Y196380D01*
X545607Y196471D01*
X545617Y196562D01*
X545631Y196652D01*
X545648Y196741D01*
X545670Y196829D01*
X545696Y196917D01*
X545725Y197003D01*
X545758Y197088D01*
X545795Y197171D01*
X545835Y197253D01*
X545879Y197333D01*
X545926Y197411D01*
X545977Y197487D01*
X546030Y197560D01*
X546087Y197631D01*
X546148Y197700D01*
X546211Y197765D01*
X546276Y197828D01*
X546345Y197888D01*
X546416Y197946D01*
X546489Y197999D01*
X546565Y198050D01*
X546643Y198097D01*
X546723Y198141D01*
X546805Y198181D01*
X546888Y198218D01*
X546973Y198251D01*
X547059Y198280D01*
X547147Y198306D01*
X547235Y198328D01*
X547324Y198345D01*
X547414Y198359D01*
X547505Y198369D01*
X547596Y198375D01*
X547687Y198377D01*
X549776Y198377D01*
X553244Y196289D02*
X555855Y198377D01*
X555855Y188979D01*
X558465Y188979D02*
X553244Y188979D01*
X562388Y188979D02*
X564999Y188979D01*
X565100Y188981D01*
X565201Y188987D01*
X565302Y188997D01*
X565402Y189010D01*
X565502Y189028D01*
X565601Y189049D01*
X565699Y189075D01*
X565796Y189104D01*
X565892Y189136D01*
X565986Y189173D01*
X566079Y189213D01*
X566171Y189257D01*
X566260Y189304D01*
X566348Y189355D01*
X566434Y189409D01*
X566517Y189466D01*
X566599Y189526D01*
X566677Y189590D01*
X566754Y189656D01*
X566827Y189726D01*
X566898Y189798D01*
X566966Y189873D01*
X567031Y189951D01*
X567093Y190031D01*
X567152Y190113D01*
X567208Y190198D01*
X567260Y190284D01*
X567309Y190373D01*
X567355Y190464D01*
X567396Y190556D01*
X567435Y190650D01*
X567469Y190745D01*
X567500Y190841D01*
X567527Y190939D01*
X567551Y191037D01*
X567570Y191137D01*
X567586Y191237D01*
X567598Y191337D01*
X567606Y191438D01*
X567610Y191539D01*
X567610Y191641D01*
X567606Y191742D01*
X567598Y191843D01*
X567586Y191943D01*
X567570Y192043D01*
X567551Y192143D01*
X567527Y192241D01*
X567500Y192339D01*
X567469Y192435D01*
X567435Y192530D01*
X567396Y192624D01*
X567355Y192716D01*
X567309Y192807D01*
X567260Y192895D01*
X567208Y192982D01*
X567152Y193067D01*
X567093Y193149D01*
X567031Y193229D01*
X566966Y193307D01*
X566898Y193382D01*
X566827Y193454D01*
X566754Y193524D01*
X566677Y193590D01*
X566599Y193654D01*
X566517Y193714D01*
X566434Y193771D01*
X566348Y193825D01*
X566260Y193876D01*
X566171Y193923D01*
X566079Y193967D01*
X565986Y194007D01*
X565892Y194044D01*
X565796Y194076D01*
X565699Y194105D01*
X565601Y194131D01*
X565502Y194152D01*
X565402Y194170D01*
X565302Y194183D01*
X565201Y194193D01*
X565100Y194199D01*
X564999Y194201D01*
X565521Y198377D02*
X562388Y198377D01*
X565521Y198377D02*
X565611Y198375D01*
X565700Y198369D01*
X565790Y198360D01*
X565879Y198346D01*
X565967Y198329D01*
X566054Y198308D01*
X566141Y198283D01*
X566226Y198254D01*
X566310Y198222D01*
X566392Y198187D01*
X566473Y198147D01*
X566552Y198105D01*
X566629Y198059D01*
X566704Y198009D01*
X566777Y197957D01*
X566848Y197901D01*
X566916Y197843D01*
X566981Y197781D01*
X567044Y197717D01*
X567104Y197650D01*
X567161Y197581D01*
X567215Y197509D01*
X567266Y197435D01*
X567314Y197359D01*
X567358Y197281D01*
X567399Y197201D01*
X567437Y197119D01*
X567471Y197036D01*
X567501Y196951D01*
X567528Y196865D01*
X567551Y196779D01*
X567570Y196691D01*
X567585Y196602D01*
X567597Y196513D01*
X567605Y196424D01*
X567609Y196334D01*
X567609Y196244D01*
X567605Y196154D01*
X567597Y196065D01*
X567585Y195976D01*
X567570Y195887D01*
X567551Y195799D01*
X567528Y195713D01*
X567501Y195627D01*
X567471Y195542D01*
X567437Y195459D01*
X567399Y195377D01*
X567358Y195297D01*
X567314Y195219D01*
X567266Y195143D01*
X567215Y195069D01*
X567161Y194997D01*
X567104Y194928D01*
X567044Y194861D01*
X566981Y194797D01*
X566916Y194735D01*
X566848Y194677D01*
X566777Y194621D01*
X566704Y194569D01*
X566629Y194519D01*
X566552Y194473D01*
X566473Y194431D01*
X566392Y194391D01*
X566310Y194356D01*
X566226Y194324D01*
X566141Y194295D01*
X566054Y194270D01*
X565967Y194249D01*
X565879Y194232D01*
X565790Y194218D01*
X565700Y194209D01*
X565611Y194203D01*
X565521Y194201D01*
X565521Y194200D02*
X563433Y194200D01*
X788469Y323301D02*
X790558Y323301D01*
X788469Y323301D02*
X788380Y323303D01*
X788292Y323309D01*
X788204Y323318D01*
X788116Y323331D01*
X788029Y323348D01*
X787943Y323368D01*
X787858Y323393D01*
X787773Y323420D01*
X787690Y323452D01*
X787609Y323486D01*
X787529Y323525D01*
X787451Y323566D01*
X787374Y323611D01*
X787300Y323659D01*
X787227Y323710D01*
X787157Y323764D01*
X787090Y323822D01*
X787024Y323882D01*
X786962Y323944D01*
X786902Y324010D01*
X786844Y324077D01*
X786790Y324147D01*
X786739Y324220D01*
X786691Y324294D01*
X786646Y324371D01*
X786605Y324449D01*
X786566Y324529D01*
X786532Y324610D01*
X786500Y324693D01*
X786473Y324778D01*
X786448Y324863D01*
X786428Y324949D01*
X786411Y325036D01*
X786398Y325124D01*
X786389Y325212D01*
X786383Y325300D01*
X786381Y325389D01*
X786381Y330611D01*
X786383Y330702D01*
X786389Y330793D01*
X786399Y330884D01*
X786413Y330974D01*
X786430Y331063D01*
X786452Y331151D01*
X786478Y331239D01*
X786507Y331325D01*
X786540Y331410D01*
X786577Y331493D01*
X786617Y331575D01*
X786661Y331655D01*
X786708Y331733D01*
X786759Y331809D01*
X786812Y331882D01*
X786869Y331953D01*
X786930Y332022D01*
X786993Y332087D01*
X787058Y332150D01*
X787127Y332210D01*
X787198Y332268D01*
X787271Y332321D01*
X787347Y332372D01*
X787425Y332419D01*
X787505Y332463D01*
X787587Y332503D01*
X787670Y332540D01*
X787755Y332573D01*
X787841Y332602D01*
X787929Y332628D01*
X788017Y332650D01*
X788106Y332667D01*
X788196Y332681D01*
X788287Y332691D01*
X788378Y332697D01*
X788469Y332699D01*
X790558Y332699D01*
X794027Y330611D02*
X796637Y332699D01*
X796637Y323301D01*
X794027Y323301D02*
X799248Y323301D01*
X803171Y325389D02*
X805259Y332699D01*
X803171Y325389D02*
X808392Y325389D01*
X806825Y323301D02*
X806825Y327478D01*
X775158Y349271D02*
X773069Y349271D01*
X772980Y349273D01*
X772892Y349279D01*
X772804Y349288D01*
X772716Y349301D01*
X772629Y349318D01*
X772543Y349338D01*
X772458Y349363D01*
X772373Y349390D01*
X772290Y349422D01*
X772209Y349456D01*
X772129Y349495D01*
X772051Y349536D01*
X771974Y349581D01*
X771900Y349629D01*
X771827Y349680D01*
X771757Y349734D01*
X771690Y349792D01*
X771624Y349852D01*
X771562Y349914D01*
X771502Y349980D01*
X771444Y350047D01*
X771390Y350117D01*
X771339Y350190D01*
X771291Y350264D01*
X771246Y350341D01*
X771205Y350419D01*
X771166Y350499D01*
X771132Y350580D01*
X771100Y350663D01*
X771073Y350748D01*
X771048Y350833D01*
X771028Y350919D01*
X771011Y351006D01*
X770998Y351094D01*
X770989Y351182D01*
X770983Y351270D01*
X770981Y351359D01*
X770981Y356581D01*
X770983Y356672D01*
X770989Y356763D01*
X770999Y356854D01*
X771013Y356944D01*
X771030Y357033D01*
X771052Y357121D01*
X771078Y357209D01*
X771107Y357295D01*
X771140Y357380D01*
X771177Y357463D01*
X771217Y357545D01*
X771261Y357625D01*
X771308Y357703D01*
X771359Y357779D01*
X771412Y357852D01*
X771469Y357923D01*
X771530Y357992D01*
X771593Y358057D01*
X771658Y358120D01*
X771727Y358180D01*
X771798Y358238D01*
X771871Y358291D01*
X771947Y358342D01*
X772025Y358389D01*
X772105Y358433D01*
X772187Y358473D01*
X772270Y358510D01*
X772355Y358543D01*
X772441Y358572D01*
X772529Y358598D01*
X772617Y358620D01*
X772706Y358637D01*
X772796Y358651D01*
X772887Y358661D01*
X772978Y358667D01*
X773069Y358669D01*
X775158Y358669D01*
X778627Y356581D02*
X781237Y358669D01*
X781237Y349271D01*
X778627Y349271D02*
X783848Y349271D01*
X787771Y349271D02*
X790903Y349271D01*
X790992Y349273D01*
X791080Y349279D01*
X791168Y349288D01*
X791256Y349301D01*
X791343Y349318D01*
X791429Y349338D01*
X791514Y349363D01*
X791599Y349390D01*
X791682Y349422D01*
X791763Y349456D01*
X791843Y349495D01*
X791921Y349536D01*
X791998Y349581D01*
X792072Y349629D01*
X792145Y349680D01*
X792215Y349734D01*
X792282Y349792D01*
X792348Y349852D01*
X792410Y349914D01*
X792470Y349980D01*
X792528Y350047D01*
X792582Y350117D01*
X792633Y350190D01*
X792681Y350264D01*
X792726Y350341D01*
X792767Y350419D01*
X792806Y350499D01*
X792840Y350580D01*
X792872Y350663D01*
X792899Y350748D01*
X792924Y350833D01*
X792944Y350919D01*
X792961Y351006D01*
X792974Y351094D01*
X792983Y351182D01*
X792989Y351270D01*
X792991Y351359D01*
X792992Y351359D02*
X792992Y352404D01*
X792991Y352404D02*
X792989Y352493D01*
X792983Y352581D01*
X792974Y352669D01*
X792961Y352757D01*
X792944Y352844D01*
X792924Y352930D01*
X792899Y353015D01*
X792872Y353100D01*
X792840Y353183D01*
X792806Y353264D01*
X792767Y353344D01*
X792726Y353422D01*
X792681Y353499D01*
X792633Y353573D01*
X792582Y353646D01*
X792528Y353716D01*
X792470Y353783D01*
X792410Y353849D01*
X792348Y353911D01*
X792282Y353971D01*
X792215Y354029D01*
X792145Y354083D01*
X792072Y354134D01*
X791998Y354182D01*
X791921Y354227D01*
X791843Y354268D01*
X791763Y354307D01*
X791682Y354341D01*
X791599Y354373D01*
X791514Y354400D01*
X791429Y354425D01*
X791343Y354445D01*
X791256Y354462D01*
X791168Y354475D01*
X791080Y354484D01*
X790992Y354490D01*
X790903Y354492D01*
X787771Y354492D01*
X787771Y358669D01*
X792992Y358669D01*
X655785Y365301D02*
X653697Y365301D01*
X653608Y365303D01*
X653520Y365309D01*
X653432Y365318D01*
X653344Y365331D01*
X653257Y365348D01*
X653171Y365368D01*
X653086Y365393D01*
X653001Y365420D01*
X652918Y365452D01*
X652837Y365486D01*
X652757Y365525D01*
X652679Y365566D01*
X652602Y365611D01*
X652528Y365659D01*
X652455Y365710D01*
X652385Y365764D01*
X652318Y365822D01*
X652252Y365882D01*
X652190Y365944D01*
X652130Y366010D01*
X652072Y366077D01*
X652018Y366147D01*
X651967Y366220D01*
X651919Y366294D01*
X651874Y366371D01*
X651833Y366449D01*
X651794Y366529D01*
X651760Y366610D01*
X651728Y366693D01*
X651701Y366778D01*
X651676Y366863D01*
X651656Y366949D01*
X651639Y367036D01*
X651626Y367124D01*
X651617Y367212D01*
X651611Y367300D01*
X651609Y367389D01*
X651608Y367389D02*
X651608Y372611D01*
X651609Y372611D02*
X651611Y372702D01*
X651617Y372793D01*
X651627Y372884D01*
X651641Y372974D01*
X651658Y373063D01*
X651680Y373151D01*
X651706Y373239D01*
X651735Y373325D01*
X651768Y373410D01*
X651805Y373493D01*
X651845Y373575D01*
X651889Y373655D01*
X651936Y373733D01*
X651987Y373809D01*
X652040Y373882D01*
X652097Y373953D01*
X652158Y374022D01*
X652221Y374087D01*
X652286Y374150D01*
X652355Y374210D01*
X652426Y374268D01*
X652499Y374321D01*
X652575Y374372D01*
X652653Y374419D01*
X652733Y374463D01*
X652815Y374503D01*
X652898Y374540D01*
X652983Y374573D01*
X653069Y374602D01*
X653157Y374628D01*
X653245Y374650D01*
X653334Y374667D01*
X653424Y374681D01*
X653515Y374691D01*
X653606Y374697D01*
X653697Y374699D01*
X655785Y374699D01*
X659254Y372611D02*
X661864Y374699D01*
X661864Y365301D01*
X659254Y365301D02*
X664475Y365301D01*
X668398Y370522D02*
X671531Y370522D01*
X671620Y370520D01*
X671708Y370514D01*
X671796Y370505D01*
X671884Y370492D01*
X671971Y370475D01*
X672057Y370455D01*
X672142Y370430D01*
X672227Y370403D01*
X672310Y370371D01*
X672391Y370337D01*
X672471Y370298D01*
X672549Y370257D01*
X672626Y370212D01*
X672700Y370164D01*
X672773Y370113D01*
X672843Y370059D01*
X672910Y370001D01*
X672976Y369941D01*
X673038Y369879D01*
X673098Y369813D01*
X673156Y369746D01*
X673210Y369676D01*
X673261Y369603D01*
X673309Y369529D01*
X673354Y369452D01*
X673395Y369374D01*
X673434Y369294D01*
X673468Y369213D01*
X673500Y369130D01*
X673527Y369045D01*
X673552Y368960D01*
X673572Y368874D01*
X673589Y368787D01*
X673602Y368699D01*
X673611Y368611D01*
X673617Y368523D01*
X673619Y368434D01*
X673619Y367912D01*
X673617Y367811D01*
X673611Y367710D01*
X673601Y367609D01*
X673588Y367509D01*
X673570Y367409D01*
X673549Y367310D01*
X673523Y367212D01*
X673494Y367115D01*
X673462Y367019D01*
X673425Y366925D01*
X673385Y366832D01*
X673341Y366740D01*
X673294Y366651D01*
X673243Y366563D01*
X673189Y366477D01*
X673132Y366394D01*
X673072Y366312D01*
X673008Y366234D01*
X672942Y366157D01*
X672872Y366084D01*
X672800Y366013D01*
X672725Y365945D01*
X672647Y365880D01*
X672567Y365818D01*
X672485Y365759D01*
X672400Y365703D01*
X672314Y365651D01*
X672225Y365602D01*
X672134Y365556D01*
X672042Y365515D01*
X671948Y365476D01*
X671853Y365442D01*
X671757Y365411D01*
X671659Y365384D01*
X671561Y365360D01*
X671461Y365341D01*
X671361Y365325D01*
X671261Y365313D01*
X671160Y365305D01*
X671059Y365301D01*
X670957Y365301D01*
X670856Y365305D01*
X670755Y365313D01*
X670655Y365325D01*
X670555Y365341D01*
X670455Y365360D01*
X670357Y365384D01*
X670259Y365411D01*
X670163Y365442D01*
X670068Y365476D01*
X669974Y365515D01*
X669882Y365556D01*
X669791Y365602D01*
X669703Y365651D01*
X669616Y365703D01*
X669531Y365759D01*
X669449Y365818D01*
X669369Y365880D01*
X669291Y365945D01*
X669216Y366013D01*
X669144Y366084D01*
X669074Y366157D01*
X669008Y366234D01*
X668944Y366312D01*
X668884Y366394D01*
X668827Y366477D01*
X668773Y366563D01*
X668722Y366651D01*
X668675Y366740D01*
X668631Y366832D01*
X668591Y366925D01*
X668554Y367019D01*
X668522Y367115D01*
X668493Y367212D01*
X668467Y367310D01*
X668446Y367409D01*
X668428Y367509D01*
X668415Y367609D01*
X668405Y367710D01*
X668399Y367811D01*
X668397Y367912D01*
X668398Y367912D02*
X668398Y370522D01*
X668400Y370651D01*
X668406Y370779D01*
X668416Y370907D01*
X668430Y371035D01*
X668447Y371163D01*
X668469Y371290D01*
X668495Y371416D01*
X668524Y371541D01*
X668557Y371665D01*
X668595Y371788D01*
X668635Y371910D01*
X668680Y372031D01*
X668728Y372150D01*
X668780Y372268D01*
X668836Y372384D01*
X668895Y372498D01*
X668958Y372610D01*
X669024Y372721D01*
X669093Y372829D01*
X669166Y372935D01*
X669242Y373039D01*
X669321Y373141D01*
X669403Y373240D01*
X669488Y373336D01*
X669576Y373430D01*
X669667Y373521D01*
X669761Y373609D01*
X669857Y373694D01*
X669956Y373776D01*
X670058Y373855D01*
X670162Y373931D01*
X670268Y374004D01*
X670376Y374073D01*
X670486Y374139D01*
X670599Y374202D01*
X670713Y374261D01*
X670829Y374317D01*
X670947Y374369D01*
X671066Y374417D01*
X671187Y374462D01*
X671309Y374502D01*
X671432Y374540D01*
X671556Y374573D01*
X671681Y374602D01*
X671807Y374628D01*
X671934Y374650D01*
X672062Y374667D01*
X672190Y374681D01*
X672318Y374691D01*
X672446Y374697D01*
X672575Y374699D01*
X578965Y373141D02*
X576877Y373141D01*
X576788Y373143D01*
X576700Y373149D01*
X576612Y373158D01*
X576524Y373171D01*
X576437Y373188D01*
X576351Y373208D01*
X576266Y373233D01*
X576181Y373260D01*
X576098Y373292D01*
X576017Y373326D01*
X575937Y373365D01*
X575859Y373406D01*
X575782Y373451D01*
X575708Y373499D01*
X575635Y373550D01*
X575565Y373604D01*
X575498Y373662D01*
X575432Y373722D01*
X575370Y373784D01*
X575310Y373850D01*
X575252Y373917D01*
X575198Y373987D01*
X575147Y374060D01*
X575099Y374134D01*
X575054Y374211D01*
X575013Y374289D01*
X574974Y374369D01*
X574940Y374450D01*
X574908Y374533D01*
X574881Y374618D01*
X574856Y374703D01*
X574836Y374789D01*
X574819Y374876D01*
X574806Y374964D01*
X574797Y375052D01*
X574791Y375140D01*
X574789Y375229D01*
X574788Y375229D02*
X574788Y380451D01*
X574789Y380451D02*
X574791Y380542D01*
X574797Y380633D01*
X574807Y380724D01*
X574821Y380814D01*
X574838Y380903D01*
X574860Y380991D01*
X574886Y381079D01*
X574915Y381165D01*
X574948Y381250D01*
X574985Y381333D01*
X575025Y381415D01*
X575069Y381495D01*
X575116Y381573D01*
X575167Y381649D01*
X575220Y381722D01*
X575277Y381793D01*
X575338Y381862D01*
X575401Y381927D01*
X575466Y381990D01*
X575535Y382050D01*
X575606Y382108D01*
X575679Y382161D01*
X575755Y382212D01*
X575833Y382259D01*
X575913Y382303D01*
X575995Y382343D01*
X576078Y382380D01*
X576163Y382413D01*
X576249Y382442D01*
X576337Y382468D01*
X576425Y382490D01*
X576514Y382507D01*
X576604Y382521D01*
X576695Y382531D01*
X576786Y382537D01*
X576877Y382539D01*
X578965Y382539D01*
X582434Y380451D02*
X585044Y382539D01*
X585044Y373141D01*
X582434Y373141D02*
X587655Y373141D01*
X591578Y381495D02*
X591578Y382539D01*
X596799Y382539D01*
X594188Y373141D01*
X726003Y159901D02*
X728092Y159901D01*
X726003Y159901D02*
X725914Y159903D01*
X725826Y159909D01*
X725738Y159918D01*
X725650Y159931D01*
X725563Y159948D01*
X725477Y159968D01*
X725392Y159993D01*
X725307Y160020D01*
X725224Y160052D01*
X725143Y160086D01*
X725063Y160125D01*
X724985Y160166D01*
X724908Y160211D01*
X724834Y160259D01*
X724761Y160310D01*
X724691Y160364D01*
X724624Y160422D01*
X724558Y160482D01*
X724496Y160544D01*
X724436Y160610D01*
X724378Y160677D01*
X724324Y160747D01*
X724273Y160820D01*
X724225Y160894D01*
X724180Y160971D01*
X724139Y161049D01*
X724100Y161129D01*
X724066Y161210D01*
X724034Y161293D01*
X724007Y161378D01*
X723982Y161463D01*
X723962Y161549D01*
X723945Y161636D01*
X723932Y161724D01*
X723923Y161812D01*
X723917Y161900D01*
X723915Y161989D01*
X723915Y167211D01*
X723917Y167302D01*
X723923Y167393D01*
X723933Y167484D01*
X723947Y167574D01*
X723964Y167663D01*
X723986Y167751D01*
X724012Y167839D01*
X724041Y167925D01*
X724074Y168010D01*
X724111Y168093D01*
X724151Y168175D01*
X724195Y168255D01*
X724242Y168333D01*
X724293Y168409D01*
X724346Y168482D01*
X724403Y168553D01*
X724464Y168622D01*
X724527Y168687D01*
X724592Y168750D01*
X724661Y168810D01*
X724732Y168868D01*
X724805Y168921D01*
X724881Y168972D01*
X724959Y169019D01*
X725039Y169063D01*
X725121Y169103D01*
X725204Y169140D01*
X725289Y169173D01*
X725375Y169202D01*
X725463Y169228D01*
X725551Y169250D01*
X725640Y169267D01*
X725730Y169281D01*
X725821Y169291D01*
X725912Y169297D01*
X726003Y169299D01*
X728092Y169299D01*
X731560Y167211D02*
X734171Y169299D01*
X734171Y159901D01*
X736781Y159901D02*
X731560Y159901D01*
X740704Y162512D02*
X740706Y162613D01*
X740712Y162714D01*
X740722Y162815D01*
X740735Y162915D01*
X740753Y163015D01*
X740774Y163114D01*
X740800Y163212D01*
X740829Y163309D01*
X740861Y163405D01*
X740898Y163499D01*
X740938Y163592D01*
X740982Y163684D01*
X741029Y163773D01*
X741080Y163861D01*
X741134Y163947D01*
X741191Y164030D01*
X741251Y164112D01*
X741315Y164190D01*
X741381Y164267D01*
X741451Y164340D01*
X741523Y164411D01*
X741598Y164479D01*
X741676Y164544D01*
X741756Y164606D01*
X741838Y164665D01*
X741923Y164721D01*
X742010Y164773D01*
X742098Y164822D01*
X742189Y164868D01*
X742281Y164909D01*
X742375Y164948D01*
X742470Y164982D01*
X742566Y165013D01*
X742664Y165040D01*
X742762Y165064D01*
X742862Y165083D01*
X742962Y165099D01*
X743062Y165111D01*
X743163Y165119D01*
X743264Y165123D01*
X743366Y165123D01*
X743467Y165119D01*
X743568Y165111D01*
X743668Y165099D01*
X743768Y165083D01*
X743868Y165064D01*
X743966Y165040D01*
X744064Y165013D01*
X744160Y164982D01*
X744255Y164948D01*
X744349Y164909D01*
X744441Y164868D01*
X744532Y164822D01*
X744621Y164773D01*
X744707Y164721D01*
X744792Y164665D01*
X744874Y164606D01*
X744954Y164544D01*
X745032Y164479D01*
X745107Y164411D01*
X745179Y164340D01*
X745249Y164267D01*
X745315Y164190D01*
X745379Y164112D01*
X745439Y164030D01*
X745496Y163947D01*
X745550Y163861D01*
X745601Y163773D01*
X745648Y163684D01*
X745692Y163592D01*
X745732Y163499D01*
X745769Y163405D01*
X745801Y163309D01*
X745830Y163212D01*
X745856Y163114D01*
X745877Y163015D01*
X745895Y162915D01*
X745908Y162815D01*
X745918Y162714D01*
X745924Y162613D01*
X745926Y162512D01*
X745924Y162411D01*
X745918Y162310D01*
X745908Y162209D01*
X745895Y162109D01*
X745877Y162009D01*
X745856Y161910D01*
X745830Y161812D01*
X745801Y161715D01*
X745769Y161619D01*
X745732Y161525D01*
X745692Y161432D01*
X745648Y161340D01*
X745601Y161251D01*
X745550Y161163D01*
X745496Y161077D01*
X745439Y160994D01*
X745379Y160912D01*
X745315Y160834D01*
X745249Y160757D01*
X745179Y160684D01*
X745107Y160613D01*
X745032Y160545D01*
X744954Y160480D01*
X744874Y160418D01*
X744792Y160359D01*
X744707Y160303D01*
X744621Y160251D01*
X744532Y160202D01*
X744441Y160156D01*
X744349Y160115D01*
X744255Y160076D01*
X744160Y160042D01*
X744064Y160011D01*
X743966Y159984D01*
X743868Y159960D01*
X743768Y159941D01*
X743668Y159925D01*
X743568Y159913D01*
X743467Y159905D01*
X743366Y159901D01*
X743264Y159901D01*
X743163Y159905D01*
X743062Y159913D01*
X742962Y159925D01*
X742862Y159941D01*
X742762Y159960D01*
X742664Y159984D01*
X742566Y160011D01*
X742470Y160042D01*
X742375Y160076D01*
X742281Y160115D01*
X742189Y160156D01*
X742098Y160202D01*
X742010Y160251D01*
X741923Y160303D01*
X741838Y160359D01*
X741756Y160418D01*
X741676Y160480D01*
X741598Y160545D01*
X741523Y160613D01*
X741451Y160684D01*
X741381Y160757D01*
X741315Y160834D01*
X741251Y160912D01*
X741191Y160994D01*
X741134Y161077D01*
X741080Y161163D01*
X741029Y161251D01*
X740982Y161340D01*
X740938Y161432D01*
X740898Y161525D01*
X740861Y161619D01*
X740829Y161715D01*
X740800Y161812D01*
X740774Y161910D01*
X740753Y162009D01*
X740735Y162109D01*
X740722Y162209D01*
X740712Y162310D01*
X740706Y162411D01*
X740704Y162512D01*
X741227Y167211D02*
X741229Y167301D01*
X741235Y167390D01*
X741244Y167480D01*
X741258Y167569D01*
X741275Y167657D01*
X741296Y167744D01*
X741321Y167831D01*
X741350Y167916D01*
X741382Y168000D01*
X741417Y168082D01*
X741457Y168163D01*
X741499Y168242D01*
X741545Y168319D01*
X741595Y168394D01*
X741647Y168467D01*
X741703Y168538D01*
X741761Y168606D01*
X741823Y168671D01*
X741887Y168734D01*
X741954Y168794D01*
X742023Y168851D01*
X742095Y168905D01*
X742169Y168956D01*
X742245Y169004D01*
X742323Y169048D01*
X742403Y169089D01*
X742485Y169127D01*
X742568Y169161D01*
X742653Y169191D01*
X742739Y169218D01*
X742825Y169241D01*
X742913Y169260D01*
X743002Y169275D01*
X743091Y169287D01*
X743180Y169295D01*
X743270Y169299D01*
X743360Y169299D01*
X743450Y169295D01*
X743539Y169287D01*
X743628Y169275D01*
X743717Y169260D01*
X743805Y169241D01*
X743891Y169218D01*
X743977Y169191D01*
X744062Y169161D01*
X744145Y169127D01*
X744227Y169089D01*
X744307Y169048D01*
X744385Y169004D01*
X744461Y168956D01*
X744535Y168905D01*
X744607Y168851D01*
X744676Y168794D01*
X744743Y168734D01*
X744807Y168671D01*
X744869Y168606D01*
X744927Y168538D01*
X744983Y168467D01*
X745035Y168394D01*
X745085Y168319D01*
X745131Y168242D01*
X745173Y168163D01*
X745213Y168082D01*
X745248Y168000D01*
X745280Y167916D01*
X745309Y167831D01*
X745334Y167744D01*
X745355Y167657D01*
X745372Y167569D01*
X745386Y167480D01*
X745395Y167390D01*
X745401Y167301D01*
X745403Y167211D01*
X745401Y167121D01*
X745395Y167032D01*
X745386Y166942D01*
X745372Y166853D01*
X745355Y166765D01*
X745334Y166678D01*
X745309Y166591D01*
X745280Y166506D01*
X745248Y166422D01*
X745213Y166340D01*
X745173Y166259D01*
X745131Y166180D01*
X745085Y166103D01*
X745035Y166028D01*
X744983Y165955D01*
X744927Y165884D01*
X744869Y165816D01*
X744807Y165751D01*
X744743Y165688D01*
X744676Y165628D01*
X744607Y165571D01*
X744535Y165517D01*
X744461Y165466D01*
X744385Y165418D01*
X744307Y165374D01*
X744227Y165333D01*
X744145Y165295D01*
X744062Y165261D01*
X743977Y165231D01*
X743891Y165204D01*
X743805Y165181D01*
X743717Y165162D01*
X743628Y165147D01*
X743539Y165135D01*
X743450Y165127D01*
X743360Y165123D01*
X743270Y165123D01*
X743180Y165127D01*
X743091Y165135D01*
X743002Y165147D01*
X742913Y165162D01*
X742825Y165181D01*
X742739Y165204D01*
X742653Y165231D01*
X742568Y165261D01*
X742485Y165295D01*
X742403Y165333D01*
X742323Y165374D01*
X742245Y165418D01*
X742169Y165466D01*
X742095Y165517D01*
X742023Y165571D01*
X741954Y165628D01*
X741887Y165688D01*
X741823Y165751D01*
X741761Y165816D01*
X741703Y165884D01*
X741647Y165955D01*
X741595Y166028D01*
X741545Y166103D01*
X741499Y166180D01*
X741457Y166259D01*
X741417Y166340D01*
X741382Y166422D01*
X741350Y166506D01*
X741321Y166591D01*
X741296Y166678D01*
X741275Y166765D01*
X741258Y166853D01*
X741244Y166942D01*
X741235Y167032D01*
X741229Y167121D01*
X741227Y167211D01*
X664098Y160231D02*
X662009Y160231D01*
X661920Y160233D01*
X661832Y160239D01*
X661744Y160248D01*
X661656Y160261D01*
X661569Y160278D01*
X661483Y160298D01*
X661398Y160323D01*
X661313Y160350D01*
X661230Y160382D01*
X661149Y160416D01*
X661069Y160455D01*
X660991Y160496D01*
X660914Y160541D01*
X660840Y160589D01*
X660767Y160640D01*
X660697Y160694D01*
X660630Y160752D01*
X660564Y160812D01*
X660502Y160874D01*
X660442Y160940D01*
X660384Y161007D01*
X660330Y161077D01*
X660279Y161150D01*
X660231Y161224D01*
X660186Y161301D01*
X660145Y161379D01*
X660106Y161459D01*
X660072Y161540D01*
X660040Y161623D01*
X660013Y161708D01*
X659988Y161793D01*
X659968Y161879D01*
X659951Y161966D01*
X659938Y162054D01*
X659929Y162142D01*
X659923Y162230D01*
X659921Y162319D01*
X659921Y167541D01*
X659923Y167632D01*
X659929Y167723D01*
X659939Y167814D01*
X659953Y167904D01*
X659970Y167993D01*
X659992Y168081D01*
X660018Y168169D01*
X660047Y168255D01*
X660080Y168340D01*
X660117Y168423D01*
X660157Y168505D01*
X660201Y168585D01*
X660248Y168663D01*
X660299Y168739D01*
X660352Y168812D01*
X660409Y168883D01*
X660470Y168952D01*
X660533Y169017D01*
X660598Y169080D01*
X660667Y169140D01*
X660738Y169198D01*
X660811Y169251D01*
X660887Y169302D01*
X660965Y169349D01*
X661045Y169393D01*
X661127Y169433D01*
X661210Y169470D01*
X661295Y169503D01*
X661381Y169532D01*
X661469Y169558D01*
X661557Y169580D01*
X661646Y169597D01*
X661736Y169611D01*
X661827Y169621D01*
X661918Y169627D01*
X662009Y169629D01*
X664098Y169629D01*
X667567Y167541D02*
X670177Y169629D01*
X670177Y160231D01*
X667567Y160231D02*
X672788Y160231D01*
X678799Y164408D02*
X681932Y164408D01*
X678799Y164408D02*
X678710Y164410D01*
X678622Y164416D01*
X678534Y164425D01*
X678446Y164438D01*
X678359Y164455D01*
X678273Y164475D01*
X678188Y164500D01*
X678103Y164527D01*
X678020Y164559D01*
X677939Y164593D01*
X677859Y164632D01*
X677781Y164673D01*
X677704Y164718D01*
X677630Y164766D01*
X677557Y164817D01*
X677487Y164871D01*
X677420Y164929D01*
X677354Y164989D01*
X677292Y165051D01*
X677232Y165117D01*
X677174Y165184D01*
X677120Y165254D01*
X677069Y165327D01*
X677021Y165401D01*
X676976Y165478D01*
X676935Y165556D01*
X676896Y165636D01*
X676862Y165717D01*
X676830Y165800D01*
X676803Y165885D01*
X676778Y165970D01*
X676758Y166056D01*
X676741Y166143D01*
X676728Y166231D01*
X676719Y166319D01*
X676713Y166407D01*
X676711Y166496D01*
X676711Y167018D01*
X676710Y167018D02*
X676712Y167119D01*
X676718Y167220D01*
X676728Y167321D01*
X676741Y167421D01*
X676759Y167521D01*
X676780Y167620D01*
X676806Y167718D01*
X676835Y167815D01*
X676867Y167911D01*
X676904Y168005D01*
X676944Y168098D01*
X676988Y168190D01*
X677035Y168279D01*
X677086Y168367D01*
X677140Y168453D01*
X677197Y168536D01*
X677257Y168618D01*
X677321Y168696D01*
X677387Y168773D01*
X677457Y168846D01*
X677529Y168917D01*
X677604Y168985D01*
X677682Y169050D01*
X677762Y169112D01*
X677844Y169171D01*
X677929Y169227D01*
X678016Y169279D01*
X678104Y169328D01*
X678195Y169374D01*
X678287Y169415D01*
X678381Y169454D01*
X678476Y169488D01*
X678572Y169519D01*
X678670Y169546D01*
X678768Y169570D01*
X678868Y169589D01*
X678968Y169605D01*
X679068Y169617D01*
X679169Y169625D01*
X679270Y169629D01*
X679372Y169629D01*
X679473Y169625D01*
X679574Y169617D01*
X679674Y169605D01*
X679774Y169589D01*
X679874Y169570D01*
X679972Y169546D01*
X680070Y169519D01*
X680166Y169488D01*
X680261Y169454D01*
X680355Y169415D01*
X680447Y169374D01*
X680538Y169328D01*
X680627Y169279D01*
X680713Y169227D01*
X680798Y169171D01*
X680880Y169112D01*
X680960Y169050D01*
X681038Y168985D01*
X681113Y168917D01*
X681185Y168846D01*
X681255Y168773D01*
X681321Y168696D01*
X681385Y168618D01*
X681445Y168536D01*
X681502Y168453D01*
X681556Y168367D01*
X681607Y168279D01*
X681654Y168190D01*
X681698Y168098D01*
X681738Y168005D01*
X681775Y167911D01*
X681807Y167815D01*
X681836Y167718D01*
X681862Y167620D01*
X681883Y167521D01*
X681901Y167421D01*
X681914Y167321D01*
X681924Y167220D01*
X681930Y167119D01*
X681932Y167018D01*
X681932Y164408D01*
X681930Y164282D01*
X681924Y164156D01*
X681915Y164030D01*
X681902Y163905D01*
X681884Y163780D01*
X681864Y163655D01*
X681839Y163531D01*
X681811Y163408D01*
X681779Y163286D01*
X681743Y163165D01*
X681704Y163045D01*
X681661Y162927D01*
X681614Y162810D01*
X681564Y162694D01*
X681510Y162579D01*
X681454Y162467D01*
X681393Y162356D01*
X681330Y162247D01*
X681263Y162140D01*
X681193Y162035D01*
X681119Y161932D01*
X681043Y161832D01*
X680964Y161734D01*
X680882Y161638D01*
X680796Y161545D01*
X680709Y161454D01*
X680618Y161367D01*
X680525Y161281D01*
X680429Y161199D01*
X680331Y161120D01*
X680231Y161044D01*
X680128Y160970D01*
X680023Y160900D01*
X679916Y160833D01*
X679807Y160770D01*
X679696Y160709D01*
X679584Y160653D01*
X679469Y160599D01*
X679353Y160549D01*
X679236Y160502D01*
X679118Y160459D01*
X678998Y160420D01*
X678877Y160384D01*
X678755Y160352D01*
X678632Y160324D01*
X678508Y160299D01*
X678383Y160279D01*
X678258Y160261D01*
X678133Y160248D01*
X678007Y160239D01*
X677881Y160233D01*
X677755Y160231D01*
X516769Y250983D02*
X514681Y250983D01*
X514592Y250985D01*
X514504Y250991D01*
X514416Y251000D01*
X514328Y251013D01*
X514241Y251030D01*
X514155Y251050D01*
X514070Y251075D01*
X513985Y251102D01*
X513902Y251134D01*
X513821Y251168D01*
X513741Y251207D01*
X513663Y251248D01*
X513586Y251293D01*
X513512Y251341D01*
X513439Y251392D01*
X513369Y251446D01*
X513302Y251504D01*
X513236Y251564D01*
X513174Y251626D01*
X513114Y251692D01*
X513056Y251759D01*
X513002Y251829D01*
X512951Y251902D01*
X512903Y251976D01*
X512858Y252053D01*
X512817Y252131D01*
X512778Y252211D01*
X512744Y252292D01*
X512712Y252375D01*
X512685Y252460D01*
X512660Y252545D01*
X512640Y252631D01*
X512623Y252718D01*
X512610Y252806D01*
X512601Y252894D01*
X512595Y252982D01*
X512593Y253071D01*
X512592Y253071D02*
X512592Y258293D01*
X512593Y258293D02*
X512595Y258384D01*
X512601Y258475D01*
X512611Y258566D01*
X512625Y258656D01*
X512642Y258745D01*
X512664Y258833D01*
X512690Y258921D01*
X512719Y259007D01*
X512752Y259092D01*
X512789Y259175D01*
X512829Y259257D01*
X512873Y259337D01*
X512920Y259415D01*
X512971Y259491D01*
X513024Y259564D01*
X513081Y259635D01*
X513142Y259704D01*
X513205Y259769D01*
X513270Y259832D01*
X513339Y259892D01*
X513410Y259950D01*
X513483Y260003D01*
X513559Y260054D01*
X513637Y260101D01*
X513717Y260145D01*
X513799Y260185D01*
X513882Y260222D01*
X513967Y260255D01*
X514053Y260284D01*
X514141Y260310D01*
X514229Y260332D01*
X514318Y260349D01*
X514408Y260363D01*
X514499Y260373D01*
X514590Y260379D01*
X514681Y260381D01*
X516769Y260381D01*
X523110Y260382D02*
X523205Y260380D01*
X523299Y260374D01*
X523393Y260365D01*
X523487Y260352D01*
X523580Y260335D01*
X523672Y260314D01*
X523764Y260289D01*
X523854Y260261D01*
X523943Y260229D01*
X524031Y260194D01*
X524117Y260155D01*
X524202Y260113D01*
X524285Y260067D01*
X524366Y260018D01*
X524445Y259966D01*
X524522Y259911D01*
X524596Y259852D01*
X524668Y259791D01*
X524738Y259727D01*
X524805Y259660D01*
X524869Y259590D01*
X524930Y259518D01*
X524989Y259444D01*
X525044Y259367D01*
X525096Y259288D01*
X525145Y259207D01*
X525191Y259124D01*
X525233Y259039D01*
X525272Y258953D01*
X525307Y258865D01*
X525339Y258776D01*
X525367Y258686D01*
X525392Y258594D01*
X525413Y258502D01*
X525430Y258409D01*
X525443Y258315D01*
X525452Y258221D01*
X525458Y258127D01*
X525460Y258032D01*
X523110Y260381D02*
X523002Y260379D01*
X522893Y260373D01*
X522785Y260363D01*
X522678Y260350D01*
X522571Y260332D01*
X522464Y260311D01*
X522359Y260286D01*
X522254Y260257D01*
X522151Y260225D01*
X522049Y260188D01*
X521948Y260148D01*
X521849Y260105D01*
X521751Y260058D01*
X521655Y260007D01*
X521561Y259953D01*
X521469Y259896D01*
X521379Y259835D01*
X521291Y259771D01*
X521206Y259705D01*
X521123Y259635D01*
X521043Y259562D01*
X520965Y259486D01*
X520890Y259408D01*
X520818Y259327D01*
X520749Y259243D01*
X520683Y259157D01*
X520620Y259069D01*
X520561Y258978D01*
X520504Y258886D01*
X520451Y258791D01*
X520402Y258695D01*
X520356Y258596D01*
X520313Y258497D01*
X520274Y258395D01*
X520239Y258293D01*
X524676Y256204D02*
X524745Y256273D01*
X524811Y256344D01*
X524875Y256417D01*
X524936Y256493D01*
X524994Y256572D01*
X525048Y256652D01*
X525100Y256735D01*
X525148Y256819D01*
X525194Y256905D01*
X525235Y256993D01*
X525274Y257083D01*
X525309Y257174D01*
X525340Y257266D01*
X525368Y257359D01*
X525392Y257453D01*
X525412Y257548D01*
X525429Y257644D01*
X525442Y257741D01*
X525451Y257838D01*
X525457Y257935D01*
X525459Y258032D01*
X524676Y256204D02*
X520238Y250983D01*
X525459Y250983D01*
X529382Y255682D02*
X529384Y255867D01*
X529391Y256052D01*
X529402Y256236D01*
X529417Y256420D01*
X529437Y256604D01*
X529461Y256788D01*
X529490Y256970D01*
X529523Y257152D01*
X529560Y257333D01*
X529602Y257513D01*
X529648Y257693D01*
X529698Y257871D01*
X529752Y258047D01*
X529811Y258223D01*
X529873Y258397D01*
X529940Y258569D01*
X530011Y258740D01*
X530086Y258909D01*
X530165Y259076D01*
X530164Y259076D02*
X530194Y259156D01*
X530227Y259235D01*
X530264Y259312D01*
X530304Y259388D01*
X530347Y259462D01*
X530393Y259534D01*
X530443Y259603D01*
X530495Y259671D01*
X530551Y259736D01*
X530609Y259799D01*
X530671Y259858D01*
X530734Y259916D01*
X530801Y259970D01*
X530869Y260021D01*
X530940Y260069D01*
X531013Y260114D01*
X531087Y260156D01*
X531164Y260194D01*
X531242Y260229D01*
X531321Y260261D01*
X531402Y260289D01*
X531484Y260313D01*
X531568Y260334D01*
X531651Y260351D01*
X531736Y260364D01*
X531821Y260373D01*
X531906Y260379D01*
X531992Y260381D01*
X532078Y260379D01*
X532163Y260373D01*
X532248Y260364D01*
X532333Y260351D01*
X532416Y260334D01*
X532500Y260313D01*
X532582Y260289D01*
X532663Y260261D01*
X532742Y260229D01*
X532820Y260194D01*
X532897Y260156D01*
X532971Y260114D01*
X533044Y260069D01*
X533115Y260021D01*
X533183Y259970D01*
X533250Y259916D01*
X533313Y259858D01*
X533375Y259799D01*
X533433Y259736D01*
X533489Y259671D01*
X533541Y259603D01*
X533591Y259534D01*
X533637Y259462D01*
X533680Y259388D01*
X533720Y259312D01*
X533757Y259235D01*
X533790Y259156D01*
X533820Y259076D01*
X533899Y258909D01*
X533974Y258740D01*
X534045Y258569D01*
X534112Y258397D01*
X534174Y258223D01*
X534233Y258047D01*
X534287Y257871D01*
X534337Y257693D01*
X534383Y257513D01*
X534425Y257333D01*
X534462Y257152D01*
X534495Y256970D01*
X534524Y256788D01*
X534548Y256604D01*
X534568Y256420D01*
X534583Y256236D01*
X534594Y256052D01*
X534601Y255867D01*
X534603Y255682D01*
X529382Y255682D02*
X529384Y255497D01*
X529391Y255312D01*
X529402Y255128D01*
X529417Y254944D01*
X529437Y254760D01*
X529461Y254576D01*
X529490Y254394D01*
X529523Y254212D01*
X529560Y254031D01*
X529602Y253851D01*
X529648Y253671D01*
X529698Y253493D01*
X529752Y253317D01*
X529811Y253141D01*
X529873Y252967D01*
X529940Y252795D01*
X530011Y252624D01*
X530086Y252455D01*
X530165Y252288D01*
X530164Y252288D02*
X530194Y252208D01*
X530227Y252129D01*
X530264Y252052D01*
X530304Y251976D01*
X530347Y251902D01*
X530393Y251830D01*
X530443Y251761D01*
X530496Y251693D01*
X530551Y251628D01*
X530610Y251565D01*
X530671Y251506D01*
X530734Y251448D01*
X530801Y251394D01*
X530869Y251343D01*
X530940Y251295D01*
X531013Y251250D01*
X531087Y251208D01*
X531164Y251170D01*
X531242Y251135D01*
X531321Y251103D01*
X531402Y251075D01*
X531484Y251051D01*
X531568Y251030D01*
X531651Y251013D01*
X531736Y251000D01*
X531821Y250991D01*
X531906Y250985D01*
X531992Y250983D01*
X533820Y252288D02*
X533899Y252455D01*
X533974Y252624D01*
X534045Y252795D01*
X534112Y252967D01*
X534174Y253141D01*
X534233Y253317D01*
X534287Y253493D01*
X534337Y253671D01*
X534383Y253851D01*
X534425Y254031D01*
X534462Y254212D01*
X534495Y254394D01*
X534524Y254576D01*
X534548Y254760D01*
X534568Y254944D01*
X534583Y255128D01*
X534594Y255312D01*
X534601Y255497D01*
X534603Y255682D01*
X533820Y252288D02*
X533790Y252208D01*
X533757Y252129D01*
X533720Y252052D01*
X533680Y251976D01*
X533637Y251902D01*
X533591Y251830D01*
X533541Y251761D01*
X533489Y251693D01*
X533433Y251628D01*
X533375Y251565D01*
X533313Y251506D01*
X533250Y251448D01*
X533183Y251394D01*
X533115Y251343D01*
X533044Y251295D01*
X532971Y251250D01*
X532897Y251208D01*
X532820Y251170D01*
X532742Y251135D01*
X532663Y251103D01*
X532582Y251075D01*
X532500Y251051D01*
X532416Y251030D01*
X532333Y251013D01*
X532248Y251000D01*
X532163Y250991D01*
X532078Y250985D01*
X531992Y250983D01*
X529904Y253071D02*
X534081Y258293D01*
X519087Y298349D02*
X516999Y298349D01*
X516910Y298351D01*
X516822Y298357D01*
X516734Y298366D01*
X516646Y298379D01*
X516559Y298396D01*
X516473Y298416D01*
X516388Y298441D01*
X516303Y298468D01*
X516220Y298500D01*
X516139Y298534D01*
X516059Y298573D01*
X515981Y298614D01*
X515904Y298659D01*
X515830Y298707D01*
X515757Y298758D01*
X515687Y298812D01*
X515620Y298870D01*
X515554Y298930D01*
X515492Y298992D01*
X515432Y299058D01*
X515374Y299125D01*
X515320Y299195D01*
X515269Y299268D01*
X515221Y299342D01*
X515176Y299419D01*
X515135Y299497D01*
X515096Y299577D01*
X515062Y299658D01*
X515030Y299741D01*
X515003Y299826D01*
X514978Y299911D01*
X514958Y299997D01*
X514941Y300084D01*
X514928Y300172D01*
X514919Y300260D01*
X514913Y300348D01*
X514911Y300437D01*
X514910Y300437D02*
X514910Y305659D01*
X514911Y305659D02*
X514913Y305750D01*
X514919Y305841D01*
X514929Y305932D01*
X514943Y306022D01*
X514960Y306111D01*
X514982Y306199D01*
X515008Y306287D01*
X515037Y306373D01*
X515070Y306458D01*
X515107Y306541D01*
X515147Y306623D01*
X515191Y306703D01*
X515238Y306781D01*
X515289Y306857D01*
X515342Y306930D01*
X515399Y307001D01*
X515460Y307070D01*
X515523Y307135D01*
X515588Y307198D01*
X515657Y307258D01*
X515728Y307316D01*
X515801Y307369D01*
X515877Y307420D01*
X515955Y307467D01*
X516035Y307511D01*
X516117Y307551D01*
X516200Y307588D01*
X516285Y307621D01*
X516371Y307650D01*
X516459Y307676D01*
X516547Y307698D01*
X516636Y307715D01*
X516726Y307729D01*
X516817Y307739D01*
X516908Y307745D01*
X516999Y307747D01*
X519087Y307747D01*
X525428Y307748D02*
X525523Y307746D01*
X525617Y307740D01*
X525711Y307731D01*
X525805Y307718D01*
X525898Y307701D01*
X525990Y307680D01*
X526082Y307655D01*
X526172Y307627D01*
X526261Y307595D01*
X526349Y307560D01*
X526435Y307521D01*
X526520Y307479D01*
X526603Y307433D01*
X526684Y307384D01*
X526763Y307332D01*
X526840Y307277D01*
X526914Y307218D01*
X526986Y307157D01*
X527056Y307093D01*
X527123Y307026D01*
X527187Y306956D01*
X527248Y306884D01*
X527307Y306810D01*
X527362Y306733D01*
X527414Y306654D01*
X527463Y306573D01*
X527509Y306490D01*
X527551Y306405D01*
X527590Y306319D01*
X527625Y306231D01*
X527657Y306142D01*
X527685Y306052D01*
X527710Y305960D01*
X527731Y305868D01*
X527748Y305775D01*
X527761Y305681D01*
X527770Y305587D01*
X527776Y305493D01*
X527778Y305398D01*
X525428Y307747D02*
X525320Y307745D01*
X525211Y307739D01*
X525103Y307729D01*
X524996Y307716D01*
X524889Y307698D01*
X524782Y307677D01*
X524677Y307652D01*
X524572Y307623D01*
X524469Y307591D01*
X524367Y307554D01*
X524266Y307514D01*
X524167Y307471D01*
X524069Y307424D01*
X523973Y307373D01*
X523879Y307319D01*
X523787Y307262D01*
X523697Y307201D01*
X523609Y307137D01*
X523524Y307071D01*
X523441Y307001D01*
X523361Y306928D01*
X523283Y306852D01*
X523208Y306774D01*
X523136Y306693D01*
X523067Y306609D01*
X523001Y306523D01*
X522938Y306435D01*
X522879Y306344D01*
X522822Y306252D01*
X522769Y306157D01*
X522720Y306061D01*
X522674Y305962D01*
X522631Y305863D01*
X522592Y305761D01*
X522557Y305659D01*
X526994Y303570D02*
X527063Y303639D01*
X527129Y303710D01*
X527193Y303783D01*
X527254Y303859D01*
X527312Y303938D01*
X527366Y304018D01*
X527418Y304101D01*
X527466Y304185D01*
X527512Y304271D01*
X527553Y304359D01*
X527592Y304449D01*
X527627Y304540D01*
X527658Y304632D01*
X527686Y304725D01*
X527710Y304819D01*
X527730Y304914D01*
X527747Y305010D01*
X527760Y305107D01*
X527769Y305204D01*
X527775Y305301D01*
X527777Y305398D01*
X526994Y303570D02*
X522556Y298349D01*
X527777Y298349D01*
X531700Y305659D02*
X534310Y307747D01*
X534310Y298349D01*
X531700Y298349D02*
X536921Y298349D01*
X522135Y335301D02*
X520047Y335301D01*
X519958Y335303D01*
X519870Y335309D01*
X519782Y335318D01*
X519694Y335331D01*
X519607Y335348D01*
X519521Y335368D01*
X519436Y335393D01*
X519351Y335420D01*
X519268Y335452D01*
X519187Y335486D01*
X519107Y335525D01*
X519029Y335566D01*
X518952Y335611D01*
X518878Y335659D01*
X518805Y335710D01*
X518735Y335764D01*
X518668Y335822D01*
X518602Y335882D01*
X518540Y335944D01*
X518480Y336010D01*
X518422Y336077D01*
X518368Y336147D01*
X518317Y336220D01*
X518269Y336294D01*
X518224Y336371D01*
X518183Y336449D01*
X518144Y336529D01*
X518110Y336610D01*
X518078Y336693D01*
X518051Y336778D01*
X518026Y336863D01*
X518006Y336949D01*
X517989Y337036D01*
X517976Y337124D01*
X517967Y337212D01*
X517961Y337300D01*
X517959Y337389D01*
X517958Y337389D02*
X517958Y342611D01*
X517959Y342611D02*
X517961Y342702D01*
X517967Y342793D01*
X517977Y342884D01*
X517991Y342974D01*
X518008Y343063D01*
X518030Y343151D01*
X518056Y343239D01*
X518085Y343325D01*
X518118Y343410D01*
X518155Y343493D01*
X518195Y343575D01*
X518239Y343655D01*
X518286Y343733D01*
X518337Y343809D01*
X518390Y343882D01*
X518447Y343953D01*
X518508Y344022D01*
X518571Y344087D01*
X518636Y344150D01*
X518705Y344210D01*
X518776Y344268D01*
X518849Y344321D01*
X518925Y344372D01*
X519003Y344419D01*
X519083Y344463D01*
X519165Y344503D01*
X519248Y344540D01*
X519333Y344573D01*
X519419Y344602D01*
X519507Y344628D01*
X519595Y344650D01*
X519684Y344667D01*
X519774Y344681D01*
X519865Y344691D01*
X519956Y344697D01*
X520047Y344699D01*
X522135Y344699D01*
X528476Y344700D02*
X528571Y344698D01*
X528665Y344692D01*
X528759Y344683D01*
X528853Y344670D01*
X528946Y344653D01*
X529038Y344632D01*
X529130Y344607D01*
X529220Y344579D01*
X529309Y344547D01*
X529397Y344512D01*
X529483Y344473D01*
X529568Y344431D01*
X529651Y344385D01*
X529732Y344336D01*
X529811Y344284D01*
X529888Y344229D01*
X529962Y344170D01*
X530034Y344109D01*
X530104Y344045D01*
X530171Y343978D01*
X530235Y343908D01*
X530296Y343836D01*
X530355Y343762D01*
X530410Y343685D01*
X530462Y343606D01*
X530511Y343525D01*
X530557Y343442D01*
X530599Y343357D01*
X530638Y343271D01*
X530673Y343183D01*
X530705Y343094D01*
X530733Y343004D01*
X530758Y342912D01*
X530779Y342820D01*
X530796Y342727D01*
X530809Y342633D01*
X530818Y342539D01*
X530824Y342445D01*
X530826Y342350D01*
X528476Y344699D02*
X528368Y344697D01*
X528259Y344691D01*
X528151Y344681D01*
X528044Y344668D01*
X527937Y344650D01*
X527830Y344629D01*
X527725Y344604D01*
X527620Y344575D01*
X527517Y344543D01*
X527415Y344506D01*
X527314Y344466D01*
X527215Y344423D01*
X527117Y344376D01*
X527021Y344325D01*
X526927Y344271D01*
X526835Y344214D01*
X526745Y344153D01*
X526657Y344089D01*
X526572Y344023D01*
X526489Y343953D01*
X526409Y343880D01*
X526331Y343804D01*
X526256Y343726D01*
X526184Y343645D01*
X526115Y343561D01*
X526049Y343475D01*
X525986Y343387D01*
X525927Y343296D01*
X525870Y343204D01*
X525817Y343109D01*
X525768Y343013D01*
X525722Y342914D01*
X525679Y342815D01*
X525640Y342713D01*
X525605Y342611D01*
X530042Y340522D02*
X530111Y340591D01*
X530177Y340662D01*
X530241Y340735D01*
X530302Y340811D01*
X530360Y340890D01*
X530414Y340970D01*
X530466Y341053D01*
X530514Y341137D01*
X530560Y341223D01*
X530601Y341311D01*
X530640Y341401D01*
X530675Y341492D01*
X530706Y341584D01*
X530734Y341677D01*
X530758Y341771D01*
X530778Y341866D01*
X530795Y341962D01*
X530808Y342059D01*
X530817Y342156D01*
X530823Y342253D01*
X530825Y342350D01*
X530042Y340522D02*
X525604Y335301D01*
X530825Y335301D01*
X539970Y342350D02*
X539968Y342445D01*
X539962Y342539D01*
X539953Y342633D01*
X539940Y342727D01*
X539923Y342820D01*
X539902Y342912D01*
X539877Y343004D01*
X539849Y343094D01*
X539817Y343183D01*
X539782Y343271D01*
X539743Y343357D01*
X539701Y343442D01*
X539655Y343525D01*
X539606Y343606D01*
X539554Y343685D01*
X539499Y343762D01*
X539440Y343836D01*
X539379Y343908D01*
X539315Y343978D01*
X539248Y344045D01*
X539178Y344109D01*
X539106Y344170D01*
X539032Y344229D01*
X538955Y344284D01*
X538876Y344336D01*
X538795Y344385D01*
X538712Y344431D01*
X538627Y344473D01*
X538541Y344512D01*
X538453Y344547D01*
X538364Y344579D01*
X538274Y344607D01*
X538182Y344632D01*
X538090Y344653D01*
X537997Y344670D01*
X537903Y344683D01*
X537809Y344692D01*
X537715Y344698D01*
X537620Y344700D01*
X537620Y344699D02*
X537512Y344697D01*
X537403Y344691D01*
X537295Y344681D01*
X537188Y344668D01*
X537081Y344650D01*
X536974Y344629D01*
X536869Y344604D01*
X536764Y344575D01*
X536661Y344543D01*
X536559Y344506D01*
X536458Y344466D01*
X536359Y344423D01*
X536261Y344376D01*
X536165Y344325D01*
X536071Y344271D01*
X535979Y344214D01*
X535889Y344153D01*
X535801Y344089D01*
X535716Y344023D01*
X535633Y343953D01*
X535553Y343880D01*
X535475Y343804D01*
X535400Y343726D01*
X535328Y343645D01*
X535259Y343561D01*
X535193Y343475D01*
X535130Y343387D01*
X535071Y343296D01*
X535014Y343204D01*
X534961Y343109D01*
X534912Y343013D01*
X534866Y342914D01*
X534823Y342815D01*
X534784Y342713D01*
X534749Y342611D01*
X539186Y340522D02*
X539255Y340591D01*
X539321Y340662D01*
X539385Y340735D01*
X539446Y340811D01*
X539504Y340890D01*
X539558Y340970D01*
X539610Y341053D01*
X539658Y341137D01*
X539704Y341223D01*
X539745Y341311D01*
X539784Y341401D01*
X539819Y341492D01*
X539850Y341584D01*
X539878Y341677D01*
X539902Y341771D01*
X539922Y341866D01*
X539939Y341962D01*
X539952Y342059D01*
X539961Y342156D01*
X539967Y342253D01*
X539969Y342350D01*
X539186Y340522D02*
X534748Y335301D01*
X539969Y335301D01*
D17*
X656700Y155876D02*
X656700Y145876D01*
X638700Y145876D02*
X638700Y155876D01*
D15*
X590186Y474341D03*
D16*
X597474Y472294D02*
X597474Y471841D01*
X597474Y472294D02*
X637474Y472294D01*
X637474Y471841D01*
X597474Y422747D02*
X597474Y422294D01*
X637474Y422294D01*
X637474Y422747D01*
D14*
X618862Y426843D02*
X612190Y426843D01*
X618862Y426843D02*
X618961Y426845D01*
X619061Y426851D01*
X619160Y426860D01*
X619258Y426874D01*
X619356Y426891D01*
X619454Y426912D01*
X619550Y426937D01*
X619645Y426966D01*
X619740Y426998D01*
X619832Y427034D01*
X619924Y427073D01*
X620014Y427116D01*
X620102Y427162D01*
X620188Y427212D01*
X620272Y427265D01*
X620354Y427321D01*
X620434Y427381D01*
X620511Y427443D01*
X620586Y427509D01*
X620659Y427577D01*
X620728Y427648D01*
X620795Y427722D01*
X620859Y427798D01*
X620920Y427877D01*
X620978Y427958D01*
X621033Y428041D01*
X621084Y428126D01*
X621132Y428213D01*
X621177Y428302D01*
X621218Y428393D01*
X621256Y428485D01*
X621290Y428578D01*
X621320Y428673D01*
X621347Y428769D01*
X621370Y428866D01*
X621389Y428963D01*
X621404Y429062D01*
X621416Y429161D01*
X621424Y429260D01*
X621428Y429359D01*
X621428Y429459D01*
X621424Y429558D01*
X621416Y429657D01*
X621404Y429756D01*
X621389Y429855D01*
X621370Y429952D01*
X621347Y430049D01*
X621320Y430145D01*
X621290Y430240D01*
X621256Y430333D01*
X621218Y430425D01*
X621177Y430516D01*
X621132Y430605D01*
X621084Y430692D01*
X621033Y430777D01*
X620978Y430860D01*
X620920Y430941D01*
X620859Y431020D01*
X620795Y431096D01*
X620728Y431170D01*
X620659Y431241D01*
X620586Y431309D01*
X620511Y431375D01*
X620434Y431437D01*
X620354Y431497D01*
X620272Y431553D01*
X620188Y431606D01*
X620102Y431656D01*
X620014Y431702D01*
X619924Y431745D01*
X619832Y431784D01*
X619740Y431820D01*
X619645Y431852D01*
X619550Y431881D01*
X619454Y431906D01*
X619356Y431927D01*
X619258Y431944D01*
X619160Y431958D01*
X619061Y431967D01*
X618961Y431973D01*
X618862Y431975D01*
X612190Y431975D01*
X612190Y438109D02*
X621428Y438109D01*
X612190Y435543D02*
X612190Y440675D01*
X621428Y444260D02*
X621428Y448366D01*
X621428Y444260D02*
X612190Y444260D01*
X612190Y448366D01*
X616296Y447340D02*
X616296Y444260D01*
X612190Y452130D02*
X621428Y452130D01*
X617322Y455209D02*
X612190Y452130D01*
X617322Y455209D02*
X612190Y458288D01*
X621428Y458288D01*
X621428Y462973D02*
X612190Y462973D01*
X612190Y465539D01*
X612192Y465638D01*
X612198Y465738D01*
X612207Y465837D01*
X612221Y465935D01*
X612238Y466033D01*
X612259Y466131D01*
X612284Y466227D01*
X612313Y466322D01*
X612345Y466417D01*
X612381Y466509D01*
X612420Y466601D01*
X612463Y466691D01*
X612509Y466779D01*
X612559Y466865D01*
X612612Y466949D01*
X612668Y467031D01*
X612728Y467111D01*
X612790Y467188D01*
X612856Y467263D01*
X612924Y467336D01*
X612995Y467405D01*
X613069Y467472D01*
X613145Y467536D01*
X613224Y467597D01*
X613305Y467655D01*
X613388Y467710D01*
X613473Y467761D01*
X613560Y467809D01*
X613649Y467854D01*
X613740Y467895D01*
X613832Y467933D01*
X613925Y467967D01*
X614020Y467997D01*
X614116Y468024D01*
X614213Y468047D01*
X614310Y468066D01*
X614409Y468081D01*
X614508Y468093D01*
X614607Y468101D01*
X614706Y468105D01*
X614806Y468105D01*
X614905Y468101D01*
X615004Y468093D01*
X615103Y468081D01*
X615202Y468066D01*
X615299Y468047D01*
X615396Y468024D01*
X615492Y467997D01*
X615587Y467967D01*
X615680Y467933D01*
X615772Y467895D01*
X615863Y467854D01*
X615952Y467809D01*
X616039Y467761D01*
X616124Y467710D01*
X616207Y467655D01*
X616288Y467597D01*
X616367Y467536D01*
X616443Y467472D01*
X616517Y467405D01*
X616588Y467336D01*
X616656Y467263D01*
X616722Y467188D01*
X616784Y467111D01*
X616844Y467031D01*
X616900Y466949D01*
X616953Y466865D01*
X617003Y466779D01*
X617049Y466691D01*
X617092Y466601D01*
X617131Y466509D01*
X617167Y466417D01*
X617199Y466322D01*
X617228Y466227D01*
X617253Y466131D01*
X617274Y466033D01*
X617291Y465935D01*
X617305Y465837D01*
X617314Y465738D01*
X617320Y465638D01*
X617322Y465539D01*
X617322Y462973D01*
D10*
X490441Y406654D02*
X490441Y394970D01*
X490441Y406654D02*
X493686Y406654D01*
X493799Y406652D01*
X493912Y406646D01*
X494025Y406636D01*
X494138Y406622D01*
X494250Y406605D01*
X494361Y406583D01*
X494471Y406558D01*
X494581Y406528D01*
X494689Y406495D01*
X494796Y406458D01*
X494902Y406418D01*
X495006Y406373D01*
X495109Y406325D01*
X495210Y406274D01*
X495309Y406219D01*
X495406Y406161D01*
X495501Y406099D01*
X495594Y406034D01*
X495684Y405966D01*
X495772Y405895D01*
X495858Y405820D01*
X495941Y405743D01*
X496021Y405663D01*
X496098Y405580D01*
X496173Y405494D01*
X496244Y405406D01*
X496312Y405316D01*
X496377Y405223D01*
X496439Y405128D01*
X496497Y405031D01*
X496552Y404932D01*
X496603Y404831D01*
X496651Y404728D01*
X496696Y404624D01*
X496736Y404518D01*
X496773Y404411D01*
X496806Y404303D01*
X496836Y404193D01*
X496861Y404083D01*
X496883Y403972D01*
X496900Y403860D01*
X496914Y403747D01*
X496924Y403634D01*
X496930Y403521D01*
X496932Y403408D01*
X496930Y403295D01*
X496924Y403182D01*
X496914Y403069D01*
X496900Y402956D01*
X496883Y402844D01*
X496861Y402733D01*
X496836Y402623D01*
X496806Y402513D01*
X496773Y402405D01*
X496736Y402298D01*
X496696Y402192D01*
X496651Y402088D01*
X496603Y401985D01*
X496552Y401884D01*
X496497Y401785D01*
X496439Y401688D01*
X496377Y401593D01*
X496312Y401500D01*
X496244Y401410D01*
X496173Y401322D01*
X496098Y401236D01*
X496021Y401153D01*
X495941Y401073D01*
X495858Y400996D01*
X495772Y400921D01*
X495684Y400850D01*
X495594Y400782D01*
X495501Y400717D01*
X495406Y400655D01*
X495309Y400597D01*
X495210Y400542D01*
X495109Y400491D01*
X495006Y400443D01*
X494902Y400398D01*
X494796Y400358D01*
X494689Y400321D01*
X494581Y400288D01*
X494471Y400258D01*
X494361Y400233D01*
X494250Y400211D01*
X494138Y400194D01*
X494025Y400180D01*
X493912Y400170D01*
X493799Y400164D01*
X493686Y400162D01*
X493686Y400163D02*
X490441Y400163D01*
X494335Y400163D02*
X496932Y394970D01*
X508288Y403733D02*
X508286Y403840D01*
X508280Y403946D01*
X508270Y404052D01*
X508257Y404158D01*
X508239Y404264D01*
X508218Y404368D01*
X508193Y404472D01*
X508164Y404575D01*
X508132Y404676D01*
X508095Y404776D01*
X508055Y404875D01*
X508012Y404973D01*
X507965Y405069D01*
X507914Y405163D01*
X507860Y405255D01*
X507803Y405345D01*
X507743Y405433D01*
X507679Y405518D01*
X507612Y405601D01*
X507542Y405682D01*
X507470Y405760D01*
X507394Y405836D01*
X507316Y405908D01*
X507235Y405978D01*
X507152Y406045D01*
X507067Y406109D01*
X506979Y406169D01*
X506889Y406226D01*
X506797Y406280D01*
X506703Y406331D01*
X506607Y406378D01*
X506509Y406421D01*
X506410Y406461D01*
X506310Y406498D01*
X506209Y406530D01*
X506106Y406559D01*
X506002Y406584D01*
X505898Y406605D01*
X505792Y406623D01*
X505686Y406636D01*
X505580Y406646D01*
X505474Y406652D01*
X505367Y406654D01*
X505246Y406652D01*
X505125Y406646D01*
X505005Y406636D01*
X504884Y406623D01*
X504765Y406605D01*
X504645Y406584D01*
X504527Y406559D01*
X504410Y406530D01*
X504293Y406497D01*
X504178Y406461D01*
X504064Y406420D01*
X503951Y406377D01*
X503839Y406329D01*
X503730Y406278D01*
X503622Y406223D01*
X503515Y406165D01*
X503411Y406104D01*
X503309Y406039D01*
X503209Y405971D01*
X503111Y405900D01*
X503015Y405826D01*
X502922Y405749D01*
X502832Y405668D01*
X502744Y405585D01*
X502659Y405499D01*
X502576Y405410D01*
X502497Y405319D01*
X502420Y405225D01*
X502347Y405129D01*
X502277Y405031D01*
X502210Y404930D01*
X502146Y404827D01*
X502086Y404722D01*
X502029Y404615D01*
X501975Y404507D01*
X501925Y404397D01*
X501879Y404285D01*
X501836Y404172D01*
X501797Y404057D01*
X507315Y401461D02*
X507394Y401538D01*
X507470Y401619D01*
X507543Y401702D01*
X507613Y401787D01*
X507680Y401875D01*
X507744Y401965D01*
X507804Y402057D01*
X507861Y402152D01*
X507915Y402248D01*
X507966Y402346D01*
X508013Y402446D01*
X508057Y402548D01*
X508097Y402651D01*
X508133Y402755D01*
X508165Y402861D01*
X508194Y402967D01*
X508219Y403075D01*
X508241Y403183D01*
X508258Y403293D01*
X508272Y403402D01*
X508281Y403512D01*
X508287Y403623D01*
X508289Y403733D01*
X507314Y401461D02*
X501797Y394970D01*
X508288Y394970D01*
X490441Y425450D02*
X490441Y437134D01*
X493686Y437134D01*
X493799Y437132D01*
X493912Y437126D01*
X494025Y437116D01*
X494138Y437102D01*
X494250Y437085D01*
X494361Y437063D01*
X494471Y437038D01*
X494581Y437008D01*
X494689Y436975D01*
X494796Y436938D01*
X494902Y436898D01*
X495006Y436853D01*
X495109Y436805D01*
X495210Y436754D01*
X495309Y436699D01*
X495406Y436641D01*
X495501Y436579D01*
X495594Y436514D01*
X495684Y436446D01*
X495772Y436375D01*
X495858Y436300D01*
X495941Y436223D01*
X496021Y436143D01*
X496098Y436060D01*
X496173Y435974D01*
X496244Y435886D01*
X496312Y435796D01*
X496377Y435703D01*
X496439Y435608D01*
X496497Y435511D01*
X496552Y435412D01*
X496603Y435311D01*
X496651Y435208D01*
X496696Y435104D01*
X496736Y434998D01*
X496773Y434891D01*
X496806Y434783D01*
X496836Y434673D01*
X496861Y434563D01*
X496883Y434452D01*
X496900Y434340D01*
X496914Y434227D01*
X496924Y434114D01*
X496930Y434001D01*
X496932Y433888D01*
X496930Y433775D01*
X496924Y433662D01*
X496914Y433549D01*
X496900Y433436D01*
X496883Y433324D01*
X496861Y433213D01*
X496836Y433103D01*
X496806Y432993D01*
X496773Y432885D01*
X496736Y432778D01*
X496696Y432672D01*
X496651Y432568D01*
X496603Y432465D01*
X496552Y432364D01*
X496497Y432265D01*
X496439Y432168D01*
X496377Y432073D01*
X496312Y431980D01*
X496244Y431890D01*
X496173Y431802D01*
X496098Y431716D01*
X496021Y431633D01*
X495941Y431553D01*
X495858Y431476D01*
X495772Y431401D01*
X495684Y431330D01*
X495594Y431262D01*
X495501Y431197D01*
X495406Y431135D01*
X495309Y431077D01*
X495210Y431022D01*
X495109Y430971D01*
X495006Y430923D01*
X494902Y430878D01*
X494796Y430838D01*
X494689Y430801D01*
X494581Y430768D01*
X494471Y430738D01*
X494361Y430713D01*
X494250Y430691D01*
X494138Y430674D01*
X494025Y430660D01*
X493912Y430650D01*
X493799Y430644D01*
X493686Y430642D01*
X493686Y430643D02*
X490441Y430643D01*
X494335Y430643D02*
X496932Y425450D01*
X501797Y425450D02*
X505042Y425450D01*
X505155Y425452D01*
X505268Y425458D01*
X505381Y425468D01*
X505494Y425482D01*
X505606Y425499D01*
X505717Y425521D01*
X505827Y425546D01*
X505937Y425576D01*
X506045Y425609D01*
X506152Y425646D01*
X506258Y425686D01*
X506362Y425731D01*
X506465Y425779D01*
X506566Y425830D01*
X506665Y425885D01*
X506762Y425943D01*
X506857Y426005D01*
X506950Y426070D01*
X507040Y426138D01*
X507128Y426209D01*
X507214Y426284D01*
X507297Y426361D01*
X507377Y426441D01*
X507454Y426524D01*
X507529Y426610D01*
X507600Y426698D01*
X507668Y426788D01*
X507733Y426881D01*
X507795Y426976D01*
X507853Y427073D01*
X507908Y427172D01*
X507959Y427273D01*
X508007Y427376D01*
X508052Y427480D01*
X508092Y427586D01*
X508129Y427693D01*
X508162Y427801D01*
X508192Y427911D01*
X508217Y428021D01*
X508239Y428132D01*
X508256Y428244D01*
X508270Y428357D01*
X508280Y428470D01*
X508286Y428583D01*
X508288Y428696D01*
X508286Y428809D01*
X508280Y428922D01*
X508270Y429035D01*
X508256Y429148D01*
X508239Y429260D01*
X508217Y429371D01*
X508192Y429481D01*
X508162Y429591D01*
X508129Y429699D01*
X508092Y429806D01*
X508052Y429912D01*
X508007Y430016D01*
X507959Y430119D01*
X507908Y430220D01*
X507853Y430319D01*
X507795Y430416D01*
X507733Y430511D01*
X507668Y430604D01*
X507600Y430694D01*
X507529Y430782D01*
X507454Y430868D01*
X507377Y430951D01*
X507297Y431031D01*
X507214Y431108D01*
X507128Y431183D01*
X507040Y431254D01*
X506950Y431322D01*
X506857Y431387D01*
X506762Y431449D01*
X506665Y431507D01*
X506566Y431562D01*
X506465Y431613D01*
X506362Y431661D01*
X506258Y431706D01*
X506152Y431746D01*
X506045Y431783D01*
X505937Y431816D01*
X505827Y431846D01*
X505717Y431871D01*
X505606Y431893D01*
X505494Y431910D01*
X505381Y431924D01*
X505268Y431934D01*
X505155Y431940D01*
X505042Y431942D01*
X505692Y437134D02*
X501797Y437134D01*
X505692Y437134D02*
X505793Y437132D01*
X505893Y437126D01*
X505993Y437116D01*
X506093Y437103D01*
X506192Y437085D01*
X506291Y437064D01*
X506388Y437039D01*
X506485Y437010D01*
X506580Y436977D01*
X506674Y436941D01*
X506766Y436901D01*
X506857Y436858D01*
X506946Y436811D01*
X507033Y436761D01*
X507119Y436707D01*
X507202Y436650D01*
X507282Y436590D01*
X507361Y436527D01*
X507437Y436460D01*
X507510Y436391D01*
X507580Y436319D01*
X507648Y436245D01*
X507713Y436168D01*
X507774Y436088D01*
X507833Y436006D01*
X507888Y435922D01*
X507940Y435836D01*
X507989Y435748D01*
X508034Y435658D01*
X508076Y435566D01*
X508114Y435473D01*
X508148Y435378D01*
X508179Y435283D01*
X508206Y435186D01*
X508229Y435088D01*
X508249Y434989D01*
X508264Y434889D01*
X508276Y434789D01*
X508284Y434689D01*
X508288Y434588D01*
X508288Y434488D01*
X508284Y434387D01*
X508276Y434287D01*
X508264Y434187D01*
X508249Y434087D01*
X508229Y433988D01*
X508206Y433890D01*
X508179Y433793D01*
X508148Y433698D01*
X508114Y433603D01*
X508076Y433510D01*
X508034Y433418D01*
X507989Y433328D01*
X507940Y433240D01*
X507888Y433154D01*
X507833Y433070D01*
X507774Y432988D01*
X507713Y432908D01*
X507648Y432831D01*
X507580Y432757D01*
X507510Y432685D01*
X507437Y432616D01*
X507361Y432549D01*
X507282Y432486D01*
X507202Y432426D01*
X507119Y432369D01*
X507033Y432315D01*
X506946Y432265D01*
X506857Y432218D01*
X506766Y432175D01*
X506674Y432135D01*
X506580Y432099D01*
X506485Y432066D01*
X506388Y432037D01*
X506291Y432012D01*
X506192Y431991D01*
X506093Y431973D01*
X505993Y431960D01*
X505893Y431950D01*
X505793Y431944D01*
X505692Y431942D01*
X505692Y431941D02*
X503095Y431941D01*
X588372Y406654D02*
X588372Y394970D01*
X588372Y406654D02*
X591618Y406654D01*
X591731Y406652D01*
X591844Y406646D01*
X591957Y406636D01*
X592070Y406622D01*
X592182Y406605D01*
X592293Y406583D01*
X592403Y406558D01*
X592513Y406528D01*
X592621Y406495D01*
X592728Y406458D01*
X592834Y406418D01*
X592938Y406373D01*
X593041Y406325D01*
X593142Y406274D01*
X593241Y406219D01*
X593338Y406161D01*
X593433Y406099D01*
X593526Y406034D01*
X593616Y405966D01*
X593704Y405895D01*
X593790Y405820D01*
X593873Y405743D01*
X593953Y405663D01*
X594030Y405580D01*
X594105Y405494D01*
X594176Y405406D01*
X594244Y405316D01*
X594309Y405223D01*
X594371Y405128D01*
X594429Y405031D01*
X594484Y404932D01*
X594535Y404831D01*
X594583Y404728D01*
X594628Y404624D01*
X594668Y404518D01*
X594705Y404411D01*
X594738Y404303D01*
X594768Y404193D01*
X594793Y404083D01*
X594815Y403972D01*
X594832Y403860D01*
X594846Y403747D01*
X594856Y403634D01*
X594862Y403521D01*
X594864Y403408D01*
X594862Y403295D01*
X594856Y403182D01*
X594846Y403069D01*
X594832Y402956D01*
X594815Y402844D01*
X594793Y402733D01*
X594768Y402623D01*
X594738Y402513D01*
X594705Y402405D01*
X594668Y402298D01*
X594628Y402192D01*
X594583Y402088D01*
X594535Y401985D01*
X594484Y401884D01*
X594429Y401785D01*
X594371Y401688D01*
X594309Y401593D01*
X594244Y401500D01*
X594176Y401410D01*
X594105Y401322D01*
X594030Y401236D01*
X593953Y401153D01*
X593873Y401073D01*
X593790Y400996D01*
X593704Y400921D01*
X593616Y400850D01*
X593526Y400782D01*
X593433Y400717D01*
X593338Y400655D01*
X593241Y400597D01*
X593142Y400542D01*
X593041Y400491D01*
X592938Y400443D01*
X592834Y400398D01*
X592728Y400358D01*
X592621Y400321D01*
X592513Y400288D01*
X592403Y400258D01*
X592293Y400233D01*
X592182Y400211D01*
X592070Y400194D01*
X591957Y400180D01*
X591844Y400170D01*
X591731Y400164D01*
X591618Y400162D01*
X591618Y400163D02*
X588372Y400163D01*
X592267Y400163D02*
X594863Y394970D01*
X599728Y397566D02*
X602325Y406654D01*
X599728Y397566D02*
X606219Y397566D01*
X604272Y400163D02*
X604272Y394970D01*
M02*
