G04 EAGLE Gerber RS-274X export*
G75*
%MOMM*%
%FSLAX34Y34*%
%LPD*%
%INSolderpaste Top*%
%IPPOS*%
%AMOC8*
5,1,8,0,0,1.08239X$1,22.5*%
G01*
%ADD10R,0.200000X1.600000*%
%ADD11R,1.600000X0.200000*%
%ADD12R,1.050000X1.080000*%
%ADD13C,0.118838*%
%ADD14R,0.500000X1.200000*%
%ADD15R,1.000000X1.000000*%
%ADD16R,5.000000X2.000000*%
%ADD17R,4.000000X1.700000*%
%ADD18R,2.400000X2.400000*%
%ADD19R,1.000000X1.100000*%
%ADD20R,0.600000X2.200000*%
%ADD21C,0.200000*%
%ADD22R,1.500000X2.500000*%
%ADD23R,2.500000X1.500000*%
%ADD24R,0.550000X1.750000*%
%ADD25R,1.300000X1.500000*%
%ADD26R,1.000000X1.550000*%
%ADD27R,0.800000X1.400000*%
%ADD28R,1.300000X1.000000*%
%ADD29R,1.270000X3.000000*%
%ADD30R,1.270000X3.680000*%
%ADD31R,0.650000X0.650000*%
%ADD32R,0.800000X1.250000*%
%ADD33R,1.800000X1.000000*%
%ADD34R,1.745500X0.591500*%


D10*
X602800Y201500D03*
X606800Y201500D03*
X610800Y201500D03*
X614800Y201500D03*
X618800Y201500D03*
X622800Y201500D03*
X626800Y201500D03*
X630800Y201500D03*
X634800Y201500D03*
X638800Y201500D03*
X642800Y201500D03*
X646800Y201500D03*
X650800Y201500D03*
X654800Y201500D03*
X658800Y201500D03*
X662800Y201500D03*
X666800Y201500D03*
X670800Y201500D03*
X674800Y201500D03*
X678800Y201500D03*
X682800Y201500D03*
X686800Y201500D03*
X690800Y201500D03*
X694800Y201500D03*
X698800Y201500D03*
X702800Y201500D03*
X706800Y201500D03*
X710800Y201500D03*
X714800Y201500D03*
X718800Y201500D03*
X722800Y201500D03*
X726800Y201500D03*
D11*
X740800Y215500D03*
X740800Y219500D03*
X740800Y223500D03*
X740800Y227500D03*
X740800Y231500D03*
X740800Y235500D03*
X740800Y239500D03*
X740800Y243500D03*
X740800Y247500D03*
X740800Y251500D03*
X740800Y255500D03*
X740800Y259500D03*
X740800Y263500D03*
X740800Y267500D03*
X740800Y271500D03*
X740800Y275500D03*
X740800Y279500D03*
X740800Y283500D03*
X740800Y287500D03*
X740800Y291500D03*
X740800Y295500D03*
X740800Y299500D03*
X740800Y303500D03*
X740800Y307500D03*
X740800Y311500D03*
X740800Y315500D03*
X740800Y319500D03*
X740800Y323500D03*
X740800Y327500D03*
X740800Y331500D03*
X740800Y335500D03*
X740800Y339500D03*
D10*
X726800Y353500D03*
X722800Y353500D03*
X718800Y353500D03*
X714800Y353500D03*
X710800Y353500D03*
X706800Y353500D03*
X702800Y353500D03*
X698800Y353500D03*
X694800Y353500D03*
X690800Y353500D03*
X686800Y353500D03*
X682800Y353500D03*
X678800Y353500D03*
X674800Y353500D03*
X670800Y353500D03*
X666800Y353500D03*
X662800Y353500D03*
X658800Y353500D03*
X654800Y353500D03*
X650800Y353500D03*
X646800Y353500D03*
X642800Y353500D03*
X638800Y353500D03*
X634800Y353500D03*
X630800Y353500D03*
X626800Y353500D03*
X622800Y353500D03*
X618800Y353500D03*
X614800Y353500D03*
X610800Y353500D03*
X606800Y353500D03*
X602800Y353500D03*
D11*
X588800Y339500D03*
X588800Y335500D03*
X588800Y331500D03*
X588800Y327500D03*
X588800Y323500D03*
X588800Y319500D03*
X588800Y315500D03*
X588800Y311500D03*
X588800Y307500D03*
X588800Y303500D03*
X588800Y299500D03*
X588800Y295500D03*
X588800Y291500D03*
X588800Y287500D03*
X588800Y283500D03*
X588800Y279500D03*
X588800Y275500D03*
X588800Y271500D03*
X588800Y267500D03*
X588800Y263500D03*
X588800Y259500D03*
X588800Y255500D03*
X588800Y251500D03*
X588800Y247500D03*
X588800Y243500D03*
X588800Y239500D03*
X588800Y235500D03*
X588800Y231500D03*
X588800Y227500D03*
X588800Y223500D03*
X588800Y219500D03*
X588800Y215500D03*
D12*
X703302Y176556D03*
X685802Y176556D03*
D13*
X627862Y158171D02*
X614666Y158171D01*
X627862Y158171D02*
X627862Y156389D01*
X614666Y156389D01*
X614666Y158171D01*
X614666Y157518D02*
X627862Y157518D01*
X627862Y163171D02*
X614666Y163171D01*
X627862Y163171D02*
X627862Y161389D01*
X614666Y161389D01*
X614666Y163171D01*
X614666Y162518D02*
X627862Y162518D01*
X627862Y168171D02*
X614666Y168171D01*
X627862Y168171D02*
X627862Y166389D01*
X614666Y166389D01*
X614666Y168171D01*
X614666Y167518D02*
X627862Y167518D01*
X627862Y173171D02*
X614666Y173171D01*
X627862Y173171D02*
X627862Y171389D01*
X614666Y171389D01*
X614666Y173171D01*
X614666Y172518D02*
X627862Y172518D01*
X627862Y178171D02*
X614666Y178171D01*
X627862Y178171D02*
X627862Y176389D01*
X614666Y176389D01*
X614666Y178171D01*
X614666Y177518D02*
X627862Y177518D01*
X584954Y178171D02*
X571758Y178171D01*
X584954Y178171D02*
X584954Y176389D01*
X571758Y176389D01*
X571758Y178171D01*
X571758Y177518D02*
X584954Y177518D01*
X584954Y173171D02*
X571758Y173171D01*
X584954Y173171D02*
X584954Y171389D01*
X571758Y171389D01*
X571758Y173171D01*
X571758Y172518D02*
X584954Y172518D01*
X584954Y168171D02*
X571758Y168171D01*
X584954Y168171D02*
X584954Y166389D01*
X571758Y166389D01*
X571758Y168171D01*
X571758Y167518D02*
X584954Y167518D01*
X584954Y163171D02*
X571758Y163171D01*
X584954Y163171D02*
X584954Y161389D01*
X571758Y161389D01*
X571758Y163171D01*
X571758Y162518D02*
X584954Y162518D01*
X584954Y158171D02*
X571758Y158171D01*
X584954Y158171D02*
X584954Y156389D01*
X571758Y156389D01*
X571758Y158171D01*
X571758Y157518D02*
X584954Y157518D01*
D14*
X833202Y246980D03*
X845902Y246980D03*
X858602Y246980D03*
X871302Y246980D03*
X871302Y165780D03*
X858602Y165780D03*
X845902Y165780D03*
X833202Y165780D03*
D15*
X867252Y198880D03*
X857252Y213880D03*
X847252Y198880D03*
X837252Y213880D03*
D14*
X909402Y246980D03*
X922102Y246980D03*
X934802Y246980D03*
X947502Y246980D03*
X947502Y165780D03*
X934802Y165780D03*
X922102Y165780D03*
X909402Y165780D03*
D15*
X943452Y198880D03*
X933452Y213880D03*
X923452Y198880D03*
X913452Y213880D03*
D14*
X905592Y381600D03*
X918292Y381600D03*
X930992Y381600D03*
X943692Y381600D03*
X943692Y300400D03*
X930992Y300400D03*
X918292Y300400D03*
X905592Y300400D03*
D15*
X939642Y333500D03*
X929642Y348500D03*
X919642Y333500D03*
X909642Y348500D03*
D14*
X829392Y381600D03*
X842092Y381600D03*
X854792Y381600D03*
X867492Y381600D03*
X867492Y300400D03*
X854792Y300400D03*
X842092Y300400D03*
X829392Y300400D03*
D15*
X863442Y333500D03*
X853442Y348500D03*
X843442Y333500D03*
X833442Y348500D03*
D16*
X460000Y228500D03*
D17*
X460000Y330000D03*
D18*
X489320Y161770D03*
X445320Y161770D03*
D19*
X458500Y200000D03*
X441500Y200000D03*
D20*
X766654Y152910D03*
X779354Y152910D03*
X792054Y152910D03*
X804754Y152910D03*
X804754Y219210D03*
X792054Y219210D03*
X779354Y219210D03*
X766654Y219210D03*
D21*
X905096Y439508D02*
X905096Y450008D01*
X907096Y450008D01*
X907096Y439508D01*
X905096Y439508D01*
X905096Y441408D02*
X907096Y441408D01*
X907096Y443308D02*
X905096Y443308D01*
X905096Y445208D02*
X907096Y445208D01*
X907096Y447108D02*
X905096Y447108D01*
X905096Y449008D02*
X907096Y449008D01*
X898596Y450008D02*
X898596Y439508D01*
X898596Y450008D02*
X900596Y450008D01*
X900596Y439508D01*
X898596Y439508D01*
X898596Y441408D02*
X900596Y441408D01*
X900596Y443308D02*
X898596Y443308D01*
X898596Y445208D02*
X900596Y445208D01*
X900596Y447108D02*
X898596Y447108D01*
X898596Y449008D02*
X900596Y449008D01*
X892096Y450008D02*
X892096Y439508D01*
X892096Y450008D02*
X894096Y450008D01*
X894096Y439508D01*
X892096Y439508D01*
X892096Y441408D02*
X894096Y441408D01*
X894096Y443308D02*
X892096Y443308D01*
X892096Y445208D02*
X894096Y445208D01*
X894096Y447108D02*
X892096Y447108D01*
X892096Y449008D02*
X894096Y449008D01*
X885596Y450008D02*
X885596Y439508D01*
X885596Y450008D02*
X887596Y450008D01*
X887596Y439508D01*
X885596Y439508D01*
X885596Y441408D02*
X887596Y441408D01*
X887596Y443308D02*
X885596Y443308D01*
X885596Y445208D02*
X887596Y445208D01*
X887596Y447108D02*
X885596Y447108D01*
X885596Y449008D02*
X887596Y449008D01*
X879096Y450008D02*
X879096Y439508D01*
X879096Y450008D02*
X881096Y450008D01*
X881096Y439508D01*
X879096Y439508D01*
X879096Y441408D02*
X881096Y441408D01*
X881096Y443308D02*
X879096Y443308D01*
X879096Y445208D02*
X881096Y445208D01*
X881096Y447108D02*
X879096Y447108D01*
X879096Y449008D02*
X881096Y449008D01*
D22*
X944596Y490008D03*
X944596Y448008D03*
D23*
X912596Y426008D03*
X873596Y426008D03*
D22*
X841596Y448008D03*
X841596Y490008D03*
D24*
X705596Y388168D03*
X716596Y388168D03*
X727596Y388168D03*
X738596Y388168D03*
X749596Y388168D03*
X760596Y388168D03*
X771596Y388168D03*
X782596Y388168D03*
D25*
X693596Y389418D03*
X807096Y389418D03*
D26*
X809596Y496168D03*
D27*
X810596Y471918D03*
X691096Y465418D03*
D28*
X693596Y496168D03*
D12*
X559700Y269242D03*
X542200Y269242D03*
X644946Y486398D03*
X662446Y486398D03*
X912360Y146030D03*
X929860Y146030D03*
X836170Y146030D03*
X853670Y146030D03*
X904900Y279840D03*
X922400Y279840D03*
X841250Y276190D03*
X858750Y276190D03*
X766264Y267808D03*
X783764Y267808D03*
X565354Y205428D03*
X547854Y205428D03*
X761250Y328000D03*
X778750Y328000D03*
X745850Y353970D03*
X763350Y353970D03*
X681250Y370000D03*
X698750Y370000D03*
X621930Y377840D03*
X604430Y377840D03*
X726170Y176350D03*
X743670Y176350D03*
X643790Y176350D03*
X661290Y176350D03*
X560020Y255682D03*
X542520Y255682D03*
X562052Y303048D03*
X544552Y303048D03*
X565100Y340000D03*
X547600Y340000D03*
D29*
X70000Y546600D03*
X95400Y546600D03*
D30*
X120800Y550000D03*
X146200Y550000D03*
X171600Y550000D03*
X197000Y550000D03*
X222400Y550000D03*
X247800Y550000D03*
D29*
X273200Y546600D03*
X298600Y546600D03*
X298600Y597400D03*
X273200Y597400D03*
D30*
X247800Y594000D03*
X222400Y594000D03*
X197000Y594000D03*
X171600Y594000D03*
X146200Y594000D03*
X120800Y594000D03*
D29*
X95400Y597400D03*
X70000Y597400D03*
X950000Y93400D03*
X924600Y93400D03*
D30*
X899200Y90000D03*
X873800Y90000D03*
X848400Y90000D03*
X823000Y90000D03*
X797600Y90000D03*
X772200Y90000D03*
D29*
X746800Y93400D03*
X721400Y93400D03*
X721400Y42600D03*
X746800Y42600D03*
D30*
X772200Y46000D03*
X797600Y46000D03*
X823000Y46000D03*
X848400Y46000D03*
X873800Y46000D03*
X899200Y46000D03*
D29*
X924600Y42600D03*
X950000Y42600D03*
D31*
X145000Y126750D03*
X95000Y126750D03*
D32*
X120000Y143750D03*
X131500Y143750D03*
X108500Y143750D03*
D31*
X245000Y126750D03*
X195000Y126750D03*
D32*
X220000Y143750D03*
X231500Y143750D03*
X208500Y143750D03*
D31*
X345000Y126750D03*
X295000Y126750D03*
D32*
X320000Y143750D03*
X331500Y143750D03*
X308500Y143750D03*
D33*
X647700Y163376D03*
X647700Y138376D03*
D34*
X591625Y466344D03*
X591625Y453644D03*
X591625Y440944D03*
X591625Y428244D03*
X643323Y428244D03*
X643323Y440944D03*
X643323Y453644D03*
X643323Y466344D03*
D19*
X534280Y400812D03*
X517280Y400812D03*
X534280Y431292D03*
X517280Y431292D03*
X555380Y400812D03*
X572380Y400812D03*
M02*
