G04 EAGLE Gerber RS-274X export*
G75*
%MOMM*%
%FSLAX34Y34*%
%LPD*%
%INSoldermask Top*%
%IPPOS*%
%AMOC8*
5,1,8,0,0,1.08239X$1,22.5*%
G01*
%ADD10R,0.403200X1.803200*%
%ADD11R,1.803200X0.403200*%
%ADD12R,1.253200X1.283200*%
%ADD13C,0.320191*%
%ADD14R,0.703200X1.403200*%
%ADD15R,4.503200X3.603200*%
%ADD16R,5.203200X2.203200*%
%ADD17R,4.203200X1.903200*%
%ADD18R,2.603200X2.603200*%
%ADD19R,1.203200X1.303200*%
%ADD20R,0.803200X2.403200*%
%ADD21C,0.404144*%
%ADD22R,1.703200X2.703200*%
%ADD23R,2.703200X1.703200*%
%ADD24R,0.753200X1.953200*%
%ADD25R,1.503200X1.703200*%
%ADD26R,1.203200X1.753200*%
%ADD27R,1.003200X1.603200*%
%ADD28R,1.503200X1.203200*%
%ADD29P,2.281895X8X202.500000*%
%ADD30R,1.473200X3.203200*%
%ADD31R,1.473200X3.883200*%
%ADD32C,1.783200*%
%ADD33R,0.853200X0.853200*%
%ADD34R,1.003200X1.453200*%
%ADD35R,2.003200X1.203200*%
%ADD36R,1.948700X0.794700*%
%ADD37C,0.959600*%


D10*
X602800Y201500D03*
X606800Y201500D03*
X610800Y201500D03*
X614800Y201500D03*
X618800Y201500D03*
X622800Y201500D03*
X626800Y201500D03*
X630800Y201500D03*
X634800Y201500D03*
X638800Y201500D03*
X642800Y201500D03*
X646800Y201500D03*
X650800Y201500D03*
X654800Y201500D03*
X658800Y201500D03*
X662800Y201500D03*
X666800Y201500D03*
X670800Y201500D03*
X674800Y201500D03*
X678800Y201500D03*
X682800Y201500D03*
X686800Y201500D03*
X690800Y201500D03*
X694800Y201500D03*
X698800Y201500D03*
X702800Y201500D03*
X706800Y201500D03*
X710800Y201500D03*
X714800Y201500D03*
X718800Y201500D03*
X722800Y201500D03*
X726800Y201500D03*
D11*
X740800Y215500D03*
X740800Y219500D03*
X740800Y223500D03*
X740800Y227500D03*
X740800Y231500D03*
X740800Y235500D03*
X740800Y239500D03*
X740800Y243500D03*
X740800Y247500D03*
X740800Y251500D03*
X740800Y255500D03*
X740800Y259500D03*
X740800Y263500D03*
X740800Y267500D03*
X740800Y271500D03*
X740800Y275500D03*
X740800Y279500D03*
X740800Y283500D03*
X740800Y287500D03*
X740800Y291500D03*
X740800Y295500D03*
X740800Y299500D03*
X740800Y303500D03*
X740800Y307500D03*
X740800Y311500D03*
X740800Y315500D03*
X740800Y319500D03*
X740800Y323500D03*
X740800Y327500D03*
X740800Y331500D03*
X740800Y335500D03*
X740800Y339500D03*
D10*
X726800Y353500D03*
X722800Y353500D03*
X718800Y353500D03*
X714800Y353500D03*
X710800Y353500D03*
X706800Y353500D03*
X702800Y353500D03*
X698800Y353500D03*
X694800Y353500D03*
X690800Y353500D03*
X686800Y353500D03*
X682800Y353500D03*
X678800Y353500D03*
X674800Y353500D03*
X670800Y353500D03*
X666800Y353500D03*
X662800Y353500D03*
X658800Y353500D03*
X654800Y353500D03*
X650800Y353500D03*
X646800Y353500D03*
X642800Y353500D03*
X638800Y353500D03*
X634800Y353500D03*
X630800Y353500D03*
X626800Y353500D03*
X622800Y353500D03*
X618800Y353500D03*
X614800Y353500D03*
X610800Y353500D03*
X606800Y353500D03*
X602800Y353500D03*
D11*
X588800Y339500D03*
X588800Y335500D03*
X588800Y331500D03*
X588800Y327500D03*
X588800Y323500D03*
X588800Y319500D03*
X588800Y315500D03*
X588800Y311500D03*
X588800Y307500D03*
X588800Y303500D03*
X588800Y299500D03*
X588800Y295500D03*
X588800Y291500D03*
X588800Y287500D03*
X588800Y283500D03*
X588800Y279500D03*
X588800Y275500D03*
X588800Y271500D03*
X588800Y267500D03*
X588800Y263500D03*
X588800Y259500D03*
X588800Y255500D03*
X588800Y251500D03*
X588800Y247500D03*
X588800Y243500D03*
X588800Y239500D03*
X588800Y235500D03*
X588800Y231500D03*
X588800Y227500D03*
X588800Y223500D03*
X588800Y219500D03*
X588800Y215500D03*
D12*
X703302Y176556D03*
X685802Y176556D03*
D13*
X627871Y158180D02*
X614657Y158180D01*
X627871Y158180D02*
X627871Y156380D01*
X614657Y156380D01*
X614657Y158180D01*
X614657Y163180D02*
X627871Y163180D01*
X627871Y161380D01*
X614657Y161380D01*
X614657Y163180D01*
X614657Y168180D02*
X627871Y168180D01*
X627871Y166380D01*
X614657Y166380D01*
X614657Y168180D01*
X614657Y173180D02*
X627871Y173180D01*
X627871Y171380D01*
X614657Y171380D01*
X614657Y173180D01*
X614657Y178180D02*
X627871Y178180D01*
X627871Y176380D01*
X614657Y176380D01*
X614657Y178180D01*
X584963Y178180D02*
X571749Y178180D01*
X584963Y178180D02*
X584963Y176380D01*
X571749Y176380D01*
X571749Y178180D01*
X571749Y173180D02*
X584963Y173180D01*
X584963Y171380D01*
X571749Y171380D01*
X571749Y173180D01*
X571749Y168180D02*
X584963Y168180D01*
X584963Y166380D01*
X571749Y166380D01*
X571749Y168180D01*
X571749Y163180D02*
X584963Y163180D01*
X584963Y161380D01*
X571749Y161380D01*
X571749Y163180D01*
X571749Y158180D02*
X584963Y158180D01*
X584963Y156380D01*
X571749Y156380D01*
X571749Y158180D01*
D14*
X833202Y246980D03*
X845902Y246980D03*
X858602Y246980D03*
X871302Y246980D03*
X871302Y165780D03*
X858602Y165780D03*
X845902Y165780D03*
X833202Y165780D03*
D15*
X852252Y206380D03*
D14*
X909402Y246980D03*
X922102Y246980D03*
X934802Y246980D03*
X947502Y246980D03*
X947502Y165780D03*
X934802Y165780D03*
X922102Y165780D03*
X909402Y165780D03*
D15*
X928452Y206380D03*
D14*
X905592Y381600D03*
X918292Y381600D03*
X930992Y381600D03*
X943692Y381600D03*
X943692Y300400D03*
X930992Y300400D03*
X918292Y300400D03*
X905592Y300400D03*
D15*
X924642Y341000D03*
D14*
X829392Y381600D03*
X842092Y381600D03*
X854792Y381600D03*
X867492Y381600D03*
X867492Y300400D03*
X854792Y300400D03*
X842092Y300400D03*
X829392Y300400D03*
D15*
X848442Y341000D03*
D16*
X460000Y228500D03*
D17*
X460000Y330000D03*
D18*
X489320Y161770D03*
X445320Y161770D03*
D19*
X458500Y200000D03*
X441500Y200000D03*
D20*
X766654Y152910D03*
X779354Y152910D03*
X792054Y152910D03*
X804754Y152910D03*
X804754Y219210D03*
X792054Y219210D03*
X779354Y219210D03*
X766654Y219210D03*
D21*
X905100Y439512D02*
X905100Y450004D01*
X907092Y450004D01*
X907092Y439512D01*
X905100Y439512D01*
X905100Y443351D02*
X907092Y443351D01*
X907092Y447190D02*
X905100Y447190D01*
X898600Y450004D02*
X898600Y439512D01*
X898600Y450004D02*
X900592Y450004D01*
X900592Y439512D01*
X898600Y439512D01*
X898600Y443351D02*
X900592Y443351D01*
X900592Y447190D02*
X898600Y447190D01*
X892100Y450004D02*
X892100Y439512D01*
X892100Y450004D02*
X894092Y450004D01*
X894092Y439512D01*
X892100Y439512D01*
X892100Y443351D02*
X894092Y443351D01*
X894092Y447190D02*
X892100Y447190D01*
X885600Y450004D02*
X885600Y439512D01*
X885600Y450004D02*
X887592Y450004D01*
X887592Y439512D01*
X885600Y439512D01*
X885600Y443351D02*
X887592Y443351D01*
X887592Y447190D02*
X885600Y447190D01*
X879100Y450004D02*
X879100Y439512D01*
X879100Y450004D02*
X881092Y450004D01*
X881092Y439512D01*
X879100Y439512D01*
X879100Y443351D02*
X881092Y443351D01*
X881092Y447190D02*
X879100Y447190D01*
D22*
X944596Y490008D03*
X944596Y448008D03*
D23*
X912596Y426008D03*
X873596Y426008D03*
D22*
X841596Y448008D03*
X841596Y490008D03*
D24*
X705596Y388168D03*
X716596Y388168D03*
X727596Y388168D03*
X738596Y388168D03*
X749596Y388168D03*
X760596Y388168D03*
X771596Y388168D03*
X782596Y388168D03*
D25*
X693596Y389418D03*
X807096Y389418D03*
D26*
X809596Y496168D03*
D27*
X810596Y471918D03*
X691096Y465418D03*
D28*
X693596Y496168D03*
D29*
X260300Y477300D03*
X234900Y477300D03*
X209500Y477300D03*
X184100Y477300D03*
D12*
X559700Y269242D03*
X542200Y269242D03*
X644946Y486398D03*
X662446Y486398D03*
X912360Y146030D03*
X929860Y146030D03*
X836170Y146030D03*
X853670Y146030D03*
X904900Y279840D03*
X922400Y279840D03*
X841250Y276190D03*
X858750Y276190D03*
X766264Y267808D03*
X783764Y267808D03*
X565354Y205428D03*
X547854Y205428D03*
X761250Y328000D03*
X778750Y328000D03*
X745850Y353970D03*
X763350Y353970D03*
X681250Y370000D03*
X698750Y370000D03*
X621930Y377840D03*
X604430Y377840D03*
X726170Y176350D03*
X743670Y176350D03*
X643790Y176350D03*
X661290Y176350D03*
X560020Y255682D03*
X542520Y255682D03*
X562052Y303048D03*
X544552Y303048D03*
X565100Y340000D03*
X547600Y340000D03*
D30*
X70000Y546600D03*
X95400Y546600D03*
D31*
X120800Y550000D03*
X146200Y550000D03*
X171600Y550000D03*
X197000Y550000D03*
X222400Y550000D03*
X247800Y550000D03*
D30*
X273200Y546600D03*
X298600Y546600D03*
X298600Y597400D03*
X273200Y597400D03*
D31*
X247800Y594000D03*
X222400Y594000D03*
X197000Y594000D03*
X171600Y594000D03*
X146200Y594000D03*
X120800Y594000D03*
D30*
X95400Y597400D03*
X70000Y597400D03*
D32*
X82700Y572000D03*
X285900Y572000D03*
D30*
X950000Y93400D03*
X924600Y93400D03*
D31*
X899200Y90000D03*
X873800Y90000D03*
X848400Y90000D03*
X823000Y90000D03*
X797600Y90000D03*
X772200Y90000D03*
D30*
X746800Y93400D03*
X721400Y93400D03*
X721400Y42600D03*
X746800Y42600D03*
D31*
X772200Y46000D03*
X797600Y46000D03*
X823000Y46000D03*
X848400Y46000D03*
X873800Y46000D03*
X899200Y46000D03*
D30*
X924600Y42600D03*
X950000Y42600D03*
D32*
X937300Y68000D03*
X734100Y68000D03*
D33*
X145000Y126750D03*
X95000Y126750D03*
D34*
X120000Y143750D03*
X131500Y143750D03*
X108500Y143750D03*
D33*
X245000Y126750D03*
X195000Y126750D03*
D34*
X220000Y143750D03*
X231500Y143750D03*
X208500Y143750D03*
D33*
X345000Y126750D03*
X295000Y126750D03*
D34*
X320000Y143750D03*
X331500Y143750D03*
X308500Y143750D03*
D35*
X647700Y163376D03*
X647700Y138376D03*
D36*
X591625Y466344D03*
X591625Y453644D03*
X591625Y440944D03*
X591625Y428244D03*
X643323Y428244D03*
X643323Y440944D03*
X643323Y453644D03*
X643323Y466344D03*
D19*
X534280Y400812D03*
X517280Y400812D03*
X534280Y431292D03*
X517280Y431292D03*
X555380Y400812D03*
X572380Y400812D03*
D37*
X350520Y441960D03*
X284988Y603504D03*
X311000Y597400D03*
M02*
