M48
;GenerationSoftware,Autodesk,EAGLE,9.4.0*%
;CreationDate,2019-05-23T22:51:52Z*%
FMAT,2
ICI,OFF
METRIC,TZ,000.000
T4C0.300
T3C0.350
T2C0.889
T1C1.580
%
G90
M71
T1
X73410Y6800
X93730Y6800
X28590Y57200
X8270Y57200
T2
X18410Y47730
X20950Y47730
X23490Y47730
X26030Y47730
T3
X31100Y59740
X28499Y60350
X35052Y44196
T4
X81542Y30950
X96655Y23178
X92210Y23178
X65500Y33600
X72000Y37000
X60881Y22144
X58976Y18461
X54341Y36728
X81542Y24448
X60274Y22779
X56436Y17648
X55626Y36728
X72728Y27547
X92460Y4260
X76284Y27861
X92460Y9340
X75395Y28741
X95000Y9340
X51315Y22218
X72009Y8458
X51922Y21611
X74676Y8604
X52530Y21003
X77220Y4600
X53137Y20396
X77220Y9000
X62750Y22250
X79760Y4600
X62750Y23109
X79760Y9000
X67500Y18750
X82300Y4600
X68143Y22250
X82300Y9000
X86916Y41345
X61811Y34044
X84840Y4600
X88000Y41345
X62377Y33165
X84840Y9000
X82939Y28893
X89670Y30036
X83320Y17717
X90940Y17717
X59219Y15712
X47000Y20000
X57565Y33948
X57390Y30060
X62289Y36665
X67090Y36691
X73424Y35386
X75386Y29743
X75395Y26759
X72424Y22924
X72678Y18835
X70265Y18835
X65896Y18835
X62289Y18835
X57565Y25947
X78316Y19571
X82547Y14600
X74049Y20511
X89456Y27986
X76121Y33955
X56563Y19223
X64495Y47549
X51700Y41600
X58369Y40081
X87380Y4600
X94369Y36767
X86749Y36839
X87918Y24702
X94369Y27877
X60870Y17744
X49000Y33000
X60206Y30341
X62670Y34024
X67221Y34024
X72728Y33948
X72728Y29553
X72728Y26353
X71789Y23559
X72271Y21502
X69884Y21502
X65464Y21502
X61883Y21502
X60206Y26353
X80475Y16904
X86408Y14524
X94028Y14524
X85900Y28748
X77899Y33955
X66190Y47544
X74368Y18715
X67208Y17599
X76248Y36495
X70914Y37003
X54785Y35098
X53328Y30002
X53201Y25614
X54785Y19223
X85674Y43967
X57429Y43485
X66396Y44094
X58979Y37617
X53188Y26899
X79477Y26772
X17018Y14351
X27076Y14351
X36373Y14376
X69141Y32750
X59182Y35357
X7600Y14400
X50100Y23433
X74680Y4260
X50708Y22825
X72140Y4260
X55637Y35814
X12000Y14805
X56546Y35814
X22000Y14794
X57455Y35814
X32000Y14794
X61417Y27635
X53734Y37490
X22240Y55000
X87380Y9000
X70000Y32500
X89920Y4600
X71500Y32250
X89920Y9000
X72500Y33000
X80475Y20282
X90091Y14524
M30